<svg xmlns="http://www.w3.org/2000/svg" xmlns:xlink="http://www.w3.org/1999/xlink" contentStyleType="text/css" data-diagram-type="CLASS" height="985px" preserveAspectRatio="none" style="width:1041px;height:985px;background:#FFFFFF;" version="1.1" viewBox="0 0 1041 985" width="1041px" zoomAndPan="magnify"><defs/><g><!--class Rulebook--><a href="" target="_top" title="A set of rules" xlink:actuate="onRequest" xlink:href="" xlink:show="new" xlink:title="A set of rules" xlink:type="simple"><g class="entity" data-entity="Rulebook" data-source-line="4" data-uid="ent0002" id="entity_Rulebook"><rect fill="#F1F1F1" height="50.9766" rx="2.5" ry="2.5" style="stroke:#181818;stroke-width:0.5;" width="108.0244" x="748.33" y="167.95"/><text fill="#000000" font-family="sans-serif" font-size="14" lengthAdjust="spacing" textLength="63.5811" x="770.5517" y="186.4852">Rulebook</text><line style="stroke:#181818;stroke-width:0.5;" x1="749.33" x2="855.3544" y1="194.4383" y2="194.4383"/><text fill="#000000" font-family="sans-serif" font-size="14" lengthAdjust="spacing" textLength="96.0244" x="754.33" y="211.9734">status : Status</text></g></a><!--class Rule--><a href="" target="_top" title="The template that describes an entry in our best practice workbook, consisting of an (abstracted) situation we try to solve, and the process we intend to use to solve it." xlink:actuate="onRequest" xlink:href="" xlink:show="new" xlink:title="The template that describes an entry in our best practice workbook, consisting of an (abstracted) situation we try to solve, and the process we intend to use to solve it." xlink:type="simple"><g class="entity" data-entity="Rule" data-source-line="7" data-uid="ent0003" id="entity_Rule"><rect fill="#F1F1F1" height="133.418" rx="2.5" ry="2.5" style="stroke:#181818;stroke-width:0.5;" width="228.4121" x="404.13" y="312.42"/><text fill="#000000" font-family="sans-serif" font-size="14" lengthAdjust="spacing" textLength="29.3877" x="503.6422" y="330.9552">Rule</text><line style="stroke:#181818;stroke-width:0.5;" x1="405.13" x2="631.5421" y1="338.9083" y2="338.9083"/><text fill="#000000" font-family="sans-serif" font-size="14" lengthAdjust="spacing" textLength="79.2969" x="410.13" y="356.4434">id : ncname</text><text fill="#000000" font-family="sans-serif" font-size="14" lengthAdjust="spacing" textLength="90.1455" x="410.13" y="372.9317">name : string</text><text fill="#000000" font-family="sans-serif" font-size="14" lengthAdjust="spacing" textLength="128.9326" x="410.13" y="389.42">description : string</text><text fill="#000000" font-family="sans-serif" font-size="14" lengthAdjust="spacing" textLength="96.0244" x="410.13" y="405.9083">status : Status</text><text fill="#000000" font-family="sans-serif" font-size="14" lengthAdjust="spacing" textLength="103.1133" x="410.13" y="422.3966">prompt : string</text><text fill="#000000" font-family="sans-serif" font-size="14" lengthAdjust="spacing" textLength="216.4121" x="410.13" y="438.8848">situation_schema : JSONSchema</text></g></a><!--class Organization--><a href="" target="_top" title="An organization where persons work" xlink:actuate="onRequest" xlink:href="" xlink:show="new" xlink:title="An organization where persons work" xlink:type="simple"><g class="entity" data-entity="Organization" data-source-line="15" data-uid="ent0004" id="entity_Organization"><rect fill="#F1F1F1" height="67.4648" rx="2.5" ry="2.5" style="stroke:#181818;stroke-width:0.5;" width="102.1455" x="589.26" y="7"/><text fill="#000000" font-family="sans-serif" font-size="14" lengthAdjust="spacing" textLength="88.1289" x="596.2683" y="25.5352">Organization</text><line style="stroke:#181818;stroke-width:0.5;" x1="590.26" x2="690.4055" y1="33.4883" y2="33.4883"/><text fill="#000000" font-family="sans-serif" font-size="14" lengthAdjust="spacing" textLength="79.2969" x="595.26" y="51.0234">id : ncname</text><text fill="#000000" font-family="sans-serif" font-size="14" lengthAdjust="spacing" textLength="90.1455" x="595.26" y="67.5117">name : string</text></g></a><!--class OutcomeTemplate--><a href="" target="_top" title="A template that describes a category of outcome we expect at the end of a ProcessTemplate, and especially the criteria we intend to measure at the end of the process." xlink:actuate="onRequest" xlink:href="" xlink:show="new" xlink:title="A template that describes a category of outcome we expect at the end of a ProcessTemplate, and especially the criteria we intend to measure at the end of the process." xlink:type="simple"><g class="entity" data-entity="OutcomeTemplate" data-source-line="22" data-uid="ent0008" id="entity_OutcomeTemplate"><rect fill="#F1F1F1" height="83.9531" rx="2.5" ry="2.5" style="stroke:#181818;stroke-width:0.5;" width="190.7598" x="843.96" y="539.32"/><text fill="#000000" font-family="sans-serif" font-size="14" lengthAdjust="spacing" textLength="124.79" x="876.9449" y="557.8552">OutcomeTemplate</text><line style="stroke:#181818;stroke-width:0.5;" x1="844.96" x2="1033.7198" y1="565.8083" y2="565.8083"/><text fill="#000000" font-family="sans-serif" font-size="14" lengthAdjust="spacing" textLength="79.2969" x="849.96" y="583.3434">id : ncname</text><text fill="#000000" font-family="sans-serif" font-size="14" lengthAdjust="spacing" textLength="103.1133" x="849.96" y="599.8317">prompt : string</text><text fill="#000000" font-family="sans-serif" font-size="14" lengthAdjust="spacing" textLength="178.7598" x="849.96" y="616.32">schema_def : JSONSchema</text></g></a><!--class ProgramTemplate--><a href="" target="_top" title="The actual process we will use to solve a given problem." xlink:actuate="onRequest" xlink:href="" xlink:show="new" xlink:title="The actual process we will use to solve a given problem." xlink:type="simple"><g class="entity" data-entity="ProgramTemplate" data-source-line="27" data-uid="ent0009" id="entity_ProgramTemplate"><rect fill="#F1F1F1" height="100.4414" rx="2.5" ry="2.5" style="stroke:#181818;stroke-width:0.5;" width="140.9326" x="447.87" y="531.08"/><text fill="#000000" font-family="sans-serif" font-size="14" lengthAdjust="spacing" textLength="120.6748" x="457.9989" y="549.6152">ProgramTemplate</text><line style="stroke:#181818;stroke-width:0.5;" x1="448.87" x2="587.8026" y1="557.5683" y2="557.5683"/><text fill="#000000" font-family="sans-serif" font-size="14" lengthAdjust="spacing" textLength="79.2969" x="453.87" y="575.1034">id : ncname</text><text fill="#000000" font-family="sans-serif" font-size="14" lengthAdjust="spacing" textLength="90.1455" x="453.87" y="591.5917">name : string</text><text fill="#000000" font-family="sans-serif" font-size="14" lengthAdjust="spacing" textLength="128.9326" x="453.87" y="608.08">description : string</text><text fill="#000000" font-family="sans-serif" font-size="14" lengthAdjust="spacing" textLength="96.0244" x="453.87" y="624.5683">status : Status</text></g></a><!--class Person--><a href="" target="_top" title="A person involved in a process" xlink:actuate="onRequest" xlink:href="" xlink:show="new" xlink:title="A person involved in a process" xlink:type="simple"><g class="entity" data-entity="Person" data-source-line="33" data-uid="ent0010" id="entity_Person"><rect fill="#F1F1F1" height="83.9531" rx="2.5" ry="2.5" style="stroke:#181818;stroke-width:0.5;" width="102.1455" x="337.26" y="716.77"/><text fill="#000000" font-family="sans-serif" font-size="14" lengthAdjust="spacing" textLength="45.6914" x="365.4871" y="735.3052">Person</text><line style="stroke:#181818;stroke-width:0.5;" x1="338.26" x2="438.4055" y1="743.2583" y2="743.2583"/><text fill="#000000" font-family="sans-serif" font-size="14" lengthAdjust="spacing" textLength="79.2969" x="343.26" y="760.7934">id : ncname</text><text fill="#000000" font-family="sans-serif" font-size="14" lengthAdjust="spacing" textLength="90.1455" x="343.26" y="777.2817">name : string</text><text fill="#000000" font-family="sans-serif" font-size="14" lengthAdjust="spacing" textLength="89.5508" x="343.26" y="793.77">email : string</text></g></a><!--class Case--><a href="" target="_top" title="The narrative description of an individual work unit we have solved or intend to solve." xlink:actuate="onRequest" xlink:href="" xlink:show="new" xlink:title="The narrative description of an individual work unit we have solved or intend to solve." xlink:type="simple"><g class="entity" data-entity="Case" data-source-line="38" data-uid="ent0011" id="entity_Case"><rect fill="#F1F1F1" height="83.9531" rx="2.5" ry="2.5" style="stroke:#181818;stroke-width:0.5;" width="178.4004" x="209.14" y="151.46"/><text fill="#000000" font-family="sans-serif" font-size="14" lengthAdjust="spacing" textLength="32.3545" x="282.1629" y="169.9952">Case</text><line style="stroke:#181818;stroke-width:0.5;" x1="210.14" x2="386.5404" y1="177.9483" y2="177.9483"/><text fill="#000000" font-family="sans-serif" font-size="14" lengthAdjust="spacing" textLength="79.2969" x="215.14" y="195.4834">id : ncname</text><text fill="#000000" font-family="sans-serif" font-size="14" lengthAdjust="spacing" textLength="90.1455" x="215.14" y="211.9717">name : string</text><text fill="#000000" font-family="sans-serif" font-size="14" lengthAdjust="spacing" textLength="166.4004" x="215.14" y="228.46">outcome_analysis : JSON</text></g></a><!--class Role--><a href="" target="_top" title="A process involves certain actors playing certain roles in the process. This describes the roles." xlink:actuate="onRequest" xlink:href="" xlink:show="new" xlink:title="A process involves certain actors playing certain roles in the process. This describes the roles." xlink:type="simple"><g class="entity" data-entity="Role" data-source-line="50" data-uid="ent0019" id="entity_Role"><rect fill="#F1F1F1" height="83.9531" rx="2.5" ry="2.5" style="stroke:#181818;stroke-width:0.5;" width="140.9326" x="476.87" y="716.77"/><text fill="#000000" font-family="sans-serif" font-size="14" lengthAdjust="spacing" textLength="29.2988" x="532.6869" y="735.3052">Role</text><line style="stroke:#181818;stroke-width:0.5;" x1="477.87" x2="616.8026" y1="743.2583" y2="743.2583"/><text fill="#000000" font-family="sans-serif" font-size="14" lengthAdjust="spacing" textLength="79.2969" x="482.87" y="760.7934">id : ncname</text><text fill="#000000" font-family="sans-serif" font-size="14" lengthAdjust="spacing" textLength="90.1455" x="482.87" y="777.2817">name : string</text><text fill="#000000" font-family="sans-serif" font-size="14" lengthAdjust="spacing" textLength="128.9326" x="482.87" y="793.77">description : string</text></g></a><!--class Report--><a href="" target="_top" title="A report contains a narrative and evaluations" xlink:actuate="onRequest" xlink:href="" xlink:show="new" xlink:title="A report contains a narrative and evaluations" xlink:type="simple"><g class="entity" data-entity="Report" data-source-line="56" data-uid="ent0021" id="entity_Report"><rect fill="#F1F1F1" height="26.4883" rx="2.5" ry="2.5" style="stroke:#181818;stroke-width:0.5;" width="51.0283" x="260.82" y="365.88"/><text fill="#000000" font-family="sans-serif" font-size="14" lengthAdjust="spacing" textLength="45.0283" x="263.82" y="384.4152">Report</text></g></a><!--class Evaluation--><a href="" target="_top" title="The evaluation of an outcome with respect to one of the Program's Criteria" xlink:actuate="onRequest" xlink:href="" xlink:show="new" xlink:title="The evaluation of an outcome with respect to one of the Program's Criteria" xlink:type="simple"><g class="entity" data-entity="Evaluation" data-source-line="59" data-uid="ent0022" id="entity_Evaluation"><rect fill="#F1F1F1" height="67.4648" rx="2.5" ry="2.5" style="stroke:#181818;stroke-width:0.5;" width="138.8613" x="229.91" y="547.57"/><text fill="#000000" font-family="sans-serif" font-size="14" lengthAdjust="spacing" textLength="69.6035" x="264.5389" y="566.1052">Evaluation</text><line style="stroke:#181818;stroke-width:0.5;" x1="230.91" x2="367.7713" y1="574.0583" y2="574.0583"/><text fill="#000000" font-family="sans-serif" font-size="14" lengthAdjust="spacing" textLength="79.5635" x="235.91" y="591.5934">value : float</text><text fill="#000000" font-family="sans-serif" font-size="14" lengthAdjust="spacing" textLength="126.8613" x="235.91" y="608.0817">achieved : boolean</text></g></a><!--class Narrative--><a href="" target="_top" title="A narrative description of either a concrete or abstracted Case or ProgramTemplate. There can be many narratives." xlink:actuate="onRequest" xlink:href="" xlink:show="new" xlink:title="A narrative description of either a concrete or abstracted Case or ProgramTemplate. There can be many narratives." xlink:type="simple"><g class="entity" data-entity="Narrative" data-source-line="63" data-uid="ent0023" id="entity_Narrative"><rect fill="#F1F1F1" height="116.9297" rx="2.5" ry="2.5" style="stroke:#181818;stroke-width:0.5;" width="120.9854" x="98.84" y="522.84"/><text fill="#000000" font-family="sans-serif" font-size="14" lengthAdjust="spacing" textLength="61.5918" x="128.5368" y="541.3752">Narrative</text><line style="stroke:#181818;stroke-width:0.5;" x1="99.84" x2="218.8254" y1="549.3283" y2="549.3283"/><text fill="#000000" font-family="sans-serif" font-size="14" lengthAdjust="spacing" textLength="79.2969" x="104.84" y="566.8634">id : ncname</text><text fill="#000000" font-family="sans-serif" font-size="14" lengthAdjust="spacing" textLength="96.0244" x="104.84" y="583.3517">status : Status</text><text fill="#000000" font-family="sans-serif" font-size="14" lengthAdjust="spacing" textLength="108.9854" x="104.84" y="599.84">when : datetime</text><text fill="#000000" font-family="sans-serif" font-size="14" lengthAdjust="spacing" textLength="79.2217" x="104.84" y="616.3283">title : string</text><text fill="#000000" font-family="sans-serif" font-size="14" lengthAdjust="spacing" textLength="104.2754" x="104.84" y="632.8166">content : string</text></g></a><!--class Objective--><a href="" target="_top" title="None" xlink:actuate="onRequest" xlink:href="" xlink:show="new" xlink:title="None" xlink:type="simple"><g class="entity" data-entity="Objective" data-source-line="78" data-uid="ent0032" id="entity_Objective"><rect fill="#F1F1F1" height="67.4648" rx="2.5" ry="2.5" style="stroke:#181818;stroke-width:0.5;" width="214.5625" x="730.06" y="725.01"/><text fill="#000000" font-family="sans-serif" font-size="14" lengthAdjust="spacing" textLength="63.2461" x="805.7182" y="743.5452">Objective</text><line style="stroke:#181818;stroke-width:0.5;" x1="731.06" x2="943.6225" y1="751.4983" y2="751.4983"/><text fill="#000000" font-family="sans-serif" font-size="14" lengthAdjust="spacing" textLength="202.5625" x="736.06" y="769.0334">standard_of_evalution : string</text><text fill="#000000" font-family="sans-serif" font-size="14" lengthAdjust="spacing" textLength="108.7871" x="736.06" y="785.5217">threshold : float</text></g></a><!--class Criterion--><a href="" target="_top" title="A description of a criterion by which outcomes will be evaluated. E.g. A KPI is a Criterion." xlink:actuate="onRequest" xlink:href="" xlink:show="new" xlink:title="A description of a criterion by which outcomes will be evaluated. E.g. A KPI is a Criterion." xlink:type="simple"><g class="entity" data-entity="Criterion" data-source-line="86" data-uid="ent0037" id="entity_Criterion"><rect fill="#F1F1F1" height="100.4414" rx="2.5" ry="2.5" style="stroke:#181818;stroke-width:0.5;" width="140.9326" x="766.87" y="877.72"/><text fill="#000000" font-family="sans-serif" font-size="14" lengthAdjust="spacing" textLength="59.5615" x="807.5555" y="896.2552">Criterion</text><line style="stroke:#181818;stroke-width:0.5;" x1="767.87" x2="906.8026" y1="904.2083" y2="904.2083"/><text fill="#000000" font-family="sans-serif" font-size="14" lengthAdjust="spacing" textLength="79.2969" x="772.87" y="921.7434">id : ncname</text><text fill="#000000" font-family="sans-serif" font-size="14" lengthAdjust="spacing" textLength="90.1455" x="772.87" y="938.2317">name : string</text><text fill="#000000" font-family="sans-serif" font-size="14" lengthAdjust="spacing" textLength="128.9326" x="772.87" y="954.72">description : string</text><text fill="#000000" font-family="sans-serif" font-size="14" lengthAdjust="spacing" textLength="79.5156" x="772.87" y="971.2083">unit : string</text></g></a><!--link Rulebook to Rule--><g class="link" data-entity-1="Rulebook" data-entity-2="Rule" data-source-line="19" data-uid="lnk5" id="link_Rulebook_Rule"><path codeLine="19" d="M765.01,219.22 C756.89,224.58 748.34,230.2 740.34,235.42 C701.76,260.56 664.3097,284.7195 626.9097,308.7195" fill="none" id="Rulebook-to-Rule" style="stroke:#181818;stroke-width:1;"/><polygon fill="#181818" points="621.86,311.96,631.5949,310.4658,626.0681,309.2596,627.2743,303.7329,621.86,311.96" style="stroke:#181818;stroke-width:1;"/><text fill="#000000" font-family="sans-serif" font-size="13" lengthAdjust="spacing" textLength="31.0146" x="692.83" y="278.9884">rules</text><text fill="#000000" font-family="sans-serif" font-size="13" lengthAdjust="spacing" textLength="22.7119" x="609.4382" y="301.8441">0..*</text></g><!--link Organization to Rulebook--><g class="link" data-entity-1="Organization" data-entity-2="Rulebook" data-source-line="20" data-uid="lnk6" id="link_Organization_Rulebook"><path codeLine="20" d="M702.654,67.1008 C724.194,77.4108 737.48,86.46 755.34,104.46 C773.14,122.42 783.6776,142.9448 791.3776,162.0548" fill="none" id="Organization-Rulebook" style="stroke:#181818;stroke-width:1;"/><polygon fill="#181818" points="691.83,61.92,695.515,68.1184,702.654,67.1008,698.9689,60.9024,691.83,61.92" style="stroke:#181818;stroke-width:1;"/><polygon fill="#181818" points="793.62,167.62,793.9666,157.7772,791.7513,162.9823,786.5463,160.7671,793.62,167.62" style="stroke:#181818;stroke-width:1;"/><text fill="#000000" font-family="sans-serif" font-size="13" lengthAdjust="spacing" textLength="106.7803" x="770.13" y="118.0284">considered_rules</text><text fill="#000000" font-family="sans-serif" font-size="13" lengthAdjust="spacing" textLength="24.667" x="764.6503" y="157.1049">0..1</text></g><!--link Organization to Rulebook--><g class="link" data-entity-1="Organization" data-entity-2="Rulebook" data-source-line="21" data-uid="lnk7" id="link_Organization_Rulebook"><path codeLine="21" d="M665.6197,85.0748 C675.2297,100.2848 681.42,107.8 695.34,121.46 C696.1,122.21 729.1641,144.1123 759.6741,164.2723" fill="none" id="Organization-Rulebook-1" style="stroke:#181818;stroke-width:1;"/><polygon fill="#181818" points="659.21,74.93,659.0333,82.1389,665.6197,85.0748,665.7964,77.8658,659.21,74.93" style="stroke:#181818;stroke-width:1;"/><polygon fill="#181818" points="764.68,167.58,759.3763,159.2811,760.5084,164.8236,754.966,165.9557,764.68,167.58" style="stroke:#181818;stroke-width:1;"/><text fill="#000000" font-family="sans-serif" font-size="13" lengthAdjust="spacing" textLength="56.1387" x="696.34" y="118.0284">rulebook</text><text fill="#000000" font-family="sans-serif" font-size="13" lengthAdjust="spacing" textLength="24.667" x="728.6561" y="157.0551">0..1</text></g><!--link Rule to Rule--><g class="link" data-entity-1="Rule" data-entity-2="Rule" data-source-line="43" data-uid="lnk12" id="link_Rule_Rule"><path codeLine="43" d="M633,366.17 C638.99,369.36 642.54,373.68 642.54,379.13 C642.54,384.57 644.2858,386.0697 638.2958,389.2597" fill="none" id="Rule-to-Rule" style="stroke:#181818;stroke-width:1;"/><polygon fill="#181818" points="633,392.08,642.824,391.3801,637.4132,389.7297,639.0635,384.319,633,392.08" style="stroke:#181818;stroke-width:1;"/><text fill="#000000" font-family="sans-serif" font-size="13" lengthAdjust="spacing" textLength="94.3896" x="648.54" y="384.1984">superseded_by</text><text fill="#000000" font-family="sans-serif" font-size="13" lengthAdjust="spacing" textLength="24.667" x="640.7389" y="405.9041">0..1</text></g><!--link Rule to OutcomeTemplate--><g class="link" data-entity-1="Rule" data-entity-2="OutcomeTemplate" data-source-line="44" data-uid="lnk13" id="link_Rule_OutcomeTemplate"><path codeLine="44" d="M632.9,427.99 C694.47,454.52 771.3,488.92 838.34,522.84 C848.24,527.84 853.2984,530.4481 863.3784,536.0181" fill="none" id="Rule-to-OutcomeTemplate" style="stroke:#181818;stroke-width:1;"/><polygon fill="#181818" points="868.63,538.92,862.6873,531.0661,864.2537,536.5017,858.818,538.0682,868.63,538.92" style="stroke:#181818;stroke-width:1;"/><text fill="#000000" font-family="sans-serif" font-size="13" lengthAdjust="spacing" textLength="119.0249" x="770.32" y="489.4084">expected_outcome</text><text fill="#000000" font-family="sans-serif" font-size="13" lengthAdjust="spacing" textLength="24.667" x="831.5013" y="528.564">0..1</text></g><!--link Rule to ProgramTemplate--><g class="link" data-entity-1="Rule" data-entity-2="ProgramTemplate" data-source-line="45" data-uid="lnk14" id="link_Rule_ProgramTemplate"><path codeLine="45" d="M518.34,446.23 C518.34,473.78 518.34,499.24 518.34,524.76" fill="none" id="Rule-to-ProgramTemplate" style="stroke:#181818;stroke-width:1;"/><polygon fill="#181818" points="518.34,530.76,522.34,521.76,518.34,525.76,514.34,521.76,518.34,530.76" style="stroke:#181818;stroke-width:1;"/><text fill="#000000" font-family="sans-serif" font-size="13" lengthAdjust="spacing" textLength="48.6421" x="519.34" y="489.4084">process</text><text fill="#000000" font-family="sans-serif" font-size="13" lengthAdjust="spacing" textLength="24.667" x="492.6999" y="520.1882">0..1</text></g><!--link Rule to Person--><g class="link" data-entity-1="Rule" data-entity-2="Person" data-source-line="46" data-uid="lnk15" id="link_Rule_Person"><path codeLine="46" d="M443.67,446.01 C423.53,468.21 404.3,494.59 393.34,522.84 C368.46,586.91 373.3322,662.4688 380.1322,710.6888" fill="none" id="Rule-to-Person" style="stroke:#181818;stroke-width:1;"/><polygon fill="#181818" points="380.97,716.63,383.6741,707.1596,380.2718,711.679,375.7524,708.2767,380.97,716.63" style="stroke:#181818;stroke-width:1;"/><text fill="#000000" font-family="sans-serif" font-size="13" lengthAdjust="spacing" textLength="48.1089" x="394.34" y="586.3684">authors</text><text fill="#000000" font-family="sans-serif" font-size="13" lengthAdjust="spacing" textLength="22.7119" x="355.9876" y="706.0063">0..*</text></g><!--link Case to Rule--><g class="link" data-entity-1="Case" data-entity-2="Rule" data-source-line="47" data-uid="lnk16" id="link_Case_Rule"><path codeLine="47" d="M323.88,235.62 C334.83,251.36 348.52,268.79 363.34,282.42 C375.67,293.77 384.6157,301.092 398.8657,311.012" fill="none" id="Case-to-Rule" style="stroke:#181818;stroke-width:1;"/><polygon fill="#181818" points="403.79,314.44,398.6889,306.0151,399.6864,311.5833,394.1182,312.5809,403.79,314.44" style="stroke:#181818;stroke-width:1;"/><text fill="#000000" font-family="sans-serif" font-size="13" lengthAdjust="spacing" textLength="137.8584" x="364.34" y="278.9884">considered_templates</text><text fill="#000000" font-family="sans-serif" font-size="13" lengthAdjust="spacing" textLength="22.7119" x="373.3788" y="307.1686">0..*</text></g><!--link Case to Rule--><g class="link" data-entity-1="Case" data-entity-2="Rule" data-source-line="48" data-uid="lnk17" id="link_Case_Rule"><path codeLine="48" d="M387.93,205.03 C428.07,214.41 472.53,232.1 500.34,265.42 C511.2,278.42 515.8679,289.3844 518.5279,306.1144" fill="none" id="Case-to-Rule-1" style="stroke:#181818;stroke-width:1;"/><polygon fill="#181818" points="519.47,312.04,522.0072,302.5236,518.6849,307.102,514.1064,303.7797,519.47,312.04" style="stroke:#181818;stroke-width:1;"/><text fill="#000000" font-family="sans-serif" font-size="13" lengthAdjust="spacing" textLength="113.7817" x="511.12" y="278.9884">selected_template</text><text fill="#000000" font-family="sans-serif" font-size="13" lengthAdjust="spacing" textLength="24.667" x="494.318" y="301.4672">0..1</text></g><!--link Organization to Rule--><g class="link" data-entity-1="Organization" data-entity-2="Rule" data-source-line="49" data-uid="lnk18" id="link_Organization_Rule"><path codeLine="49" d="M641.67,74.8 C643.46,132.01 644.66,246.75 627.34,282.42 C622.17,293.06 619.1333,298.4818 611.2433,307.6518" fill="none" id="Organization-to-Rule" style="stroke:#181818;stroke-width:1;"/><polygon fill="#181818" points="607.33,312.2,616.2321,307.9866,610.5911,308.4099,610.1679,302.7689,607.33,312.2" style="stroke:#181818;stroke-width:1;"/><text fill="#000000" font-family="sans-serif" font-size="13" lengthAdjust="spacing" textLength="96.3003" x="643.51" y="198.5084">case_templates</text><text fill="#000000" font-family="sans-serif" font-size="13" lengthAdjust="spacing" textLength="22.7119" x="593.8995" y="301.6447">0..*</text></g><!--link ProgramTemplate to Role--><g class="link" data-entity-1="ProgramTemplate" data-entity-2="Role" data-source-line="55" data-uid="lnk20" id="link_ProgramTemplate_Role"><path codeLine="55" d="M526.93,631.78 C529.05,644.18 531.3,657.45 533.34,669.77 C535.86,685.02 537.6105,695.864 539.9505,710.624" fill="none" id="ProgramTemplate-to-Role" style="stroke:#181818;stroke-width:1;"/><polygon fill="#181818" points="540.89,716.55,543.4314,707.0347,540.1071,711.6117,535.5301,708.2873,540.89,716.55" style="stroke:#181818;stroke-width:1;"/><text fill="#000000" font-family="sans-serif" font-size="13" lengthAdjust="spacing" textLength="30.9321" x="537.09" y="683.3384">roles</text><text fill="#000000" font-family="sans-serif" font-size="13" lengthAdjust="spacing" textLength="22.7119" x="516.0594" y="705.9131">0..*</text></g><!--link Report to Evaluation--><g class="link" data-entity-1="Report" data-entity-2="Evaluation" data-source-line="70" data-uid="lnk24" id="link_Report_Evaluation"><path codeLine="70" d="M287.9281,404.6247 C289.9081,435.0947 293.8619,495.9526 296.7919,541.1526" fill="none" id="Report-Evaluation" style="stroke:#181818;stroke-width:1;"/><polygon fill="#181818" points="287.15,392.65,283.5475,398.8968,287.9281,404.6247,291.5307,398.378,287.15,392.65" style="stroke:#181818;stroke-width:1;"/><polygon fill="#181818" points="297.18,547.14,300.5894,537.9001,296.8566,542.1505,292.6062,538.4176,297.18,547.14" style="stroke:#181818;stroke-width:1;"/><text fill="#000000" font-family="sans-serif" font-size="13" lengthAdjust="spacing" textLength="71.4556" x="294.62" y="489.4084">evaluations</text><text fill="#000000" font-family="sans-serif" font-size="13" lengthAdjust="spacing" textLength="22.7119" x="272.7391" y="536.7961">0..*</text></g><!--link Report to Narrative--><g class="link" data-entity-1="Report" data-entity-2="Narrative" data-source-line="71" data-uid="lnk25" id="link_Report_Narrative"><path codeLine="71" d="M278.39,392.65 C262.21,418.15 227.7435,472.4731 199.0835,517.6631" fill="none" id="Report-to-Narrative" style="stroke:#181818;stroke-width:1;"/><polygon fill="#181818" points="195.87,522.73,204.0682,517.272,198.5479,518.5076,197.3123,512.9873,195.87,522.73" style="stroke:#181818;stroke-width:1;"/><text fill="#000000" font-family="sans-serif" font-size="13" lengthAdjust="spacing" textLength="55.6563" x="223.84" y="489.4084">narrative</text><text fill="#000000" font-family="sans-serif" font-size="13" lengthAdjust="spacing" textLength="8.2202" x="191.8489" y="512.2644">1</text></g><!--link Case to Report--><g class="link" data-entity-1="Case" data-entity-2="Report" data-source-line="72" data-uid="lnk26" id="link_Case_Report"><path codeLine="72" d="M241.3646,244.7361 C233.6746,253.6961 234.66,254.65 230.34,265.42 C227.52,272.43 228.36,275.13 230.34,282.42 C239.2,315.12 258.6577,343.3606 272.2577,360.7806" fill="none" id="Case-Report" style="stroke:#181818;stroke-width:1;"/><polygon fill="#181818" points="249.18,235.63,242.237,237.5779,241.3646,244.7361,248.3077,242.7881,249.18,235.63" style="stroke:#181818;stroke-width:1;"/><polygon fill="#181818" points="275.95,365.51,273.5645,355.9544,272.8731,361.5688,267.2587,360.8775,275.95,365.51" style="stroke:#181818;stroke-width:1;"/><text fill="#000000" font-family="sans-serif" font-size="13" lengthAdjust="spacing" textLength="54.939" x="231.34" y="278.9884">outcome</text><text fill="#000000" font-family="sans-serif" font-size="13" lengthAdjust="spacing" textLength="22.7119" x="245.933" y="355.0878">0..*</text></g><!--link Case to Report--><g class="link" data-entity-1="Case" data-entity-2="Report" data-source-line="73" data-uid="lnk27" id="link_Case_Report"><path codeLine="73" d="M294.8586,247.6345 C292.1386,289.3145 289.2714,333.2528 287.5514,359.5628" fill="none" id="Case-Report-1" style="stroke:#181818;stroke-width:1;"/><polygon fill="#181818" points="295.64,235.66,291.2578,241.3868,294.8586,247.6345,299.2408,241.9077,295.64,235.66" style="stroke:#181818;stroke-width:1;"/><polygon fill="#181818" points="287.16,365.55,291.7386,356.8301,287.4862,360.5607,283.7556,356.3082,287.16,365.55" style="stroke:#181818;stroke-width:1;"/><text fill="#000000" font-family="sans-serif" font-size="13" lengthAdjust="spacing" textLength="45.5381" x="294.41" y="278.9884">reports</text><text fill="#000000" font-family="sans-serif" font-size="13" lengthAdjust="spacing" textLength="22.7119" x="291.8043" y="355.143">0..*</text></g><!--link ProgramTemplate to ProgramTemplate--><g class="link" data-entity-1="ProgramTemplate" data-entity-2="ProgramTemplate" data-source-line="74" data-uid="lnk28" id="link_ProgramTemplate_ProgramTemplate"><path codeLine="74" d="M589.22,574.27 C595.13,575.79 598.8,578.13 598.8,581.3 C598.8,584.47 600.9409,585.3155 595.0309,586.8355" fill="none" id="ProgramTemplate-to-ProgramTemplate" style="stroke:#181818;stroke-width:1;"/><polygon fill="#181818" points="589.22,588.33,598.9327,589.9622,594.0624,587.0846,596.94,582.2143,589.22,588.33" style="stroke:#181818;stroke-width:1;"/><text fill="#000000" font-family="sans-serif" font-size="13" lengthAdjust="spacing" textLength="100.0518" x="604.8" y="586.3684">follows_process</text><text fill="#000000" font-family="sans-serif" font-size="13" lengthAdjust="spacing" textLength="24.667" x="596.8916" y="602.2521">0..1</text></g><!--link ProgramTemplate to ProgramTemplate--><g class="link" data-entity-1="ProgramTemplate" data-entity-2="ProgramTemplate" data-source-line="75" data-uid="lnk29" id="link_ProgramTemplate_ProgramTemplate"><path codeLine="75" d="M589.15,564.5 C644.8,560.24 710.8,565.84 710.8,581.3 C710.8,596.76 650.7825,602.818 595.1325,598.558" fill="none" id="ProgramTemplate-to-ProgramTemplate-1" style="stroke:#181818;stroke-width:1;"/><polygon fill="#181818" points="589.15,598.1,597.8184,602.7753,594.1354,598.4816,598.4291,594.7986,589.15,598.1" style="stroke:#181818;stroke-width:1;"/><text fill="#000000" font-family="sans-serif" font-size="13" lengthAdjust="spacing" textLength="85.3887" x="716.8" y="586.3684">subprocesses</text><text fill="#000000" font-family="sans-serif" font-size="13" lengthAdjust="spacing" textLength="22.7119" x="596.725" y="612.9228">0..*</text></g><!--link ProgramTemplate to Person--><g class="link" data-entity-1="ProgramTemplate" data-entity-2="Person" data-source-line="76" data-uid="lnk30" id="link_ProgramTemplate_Person"><path codeLine="76" d="M499.46,631.92 C491.33,650.08 480.8,670.23 468.34,686.77 C460.07,697.74 454.3149,704.2369 444.0249,713.7069" fill="none" id="ProgramTemplate-to-Person" style="stroke:#181818;stroke-width:1;"/><polygon fill="#181818" points="439.61,717.77,448.9411,714.6186,443.2891,714.3841,443.5236,708.7321,439.61,717.77" style="stroke:#181818;stroke-width:1;"/><text fill="#000000" font-family="sans-serif" font-size="13" lengthAdjust="spacing" textLength="48.1089" x="479.96" y="683.3384">authors</text><text fill="#000000" font-family="sans-serif" font-size="13" lengthAdjust="spacing" textLength="22.7119" x="446.2729" y="708.8563">0..*</text></g><!--link Narrative to Person--><g class="link" data-entity-1="Narrative" data-entity-2="Person" data-source-line="77" data-uid="lnk31" id="link_Narrative_Person"><path codeLine="77" d="M220.3,635.72 C221.99,637.09 223.67,638.44 225.34,639.77 C261.71,668.67 299.3812,695.9298 331.8912,718.7798" fill="none" id="Narrative-to-Person" style="stroke:#181818;stroke-width:1;"/><polygon fill="#181818" points="336.8,722.23,331.7369,713.7822,332.7093,719.3548,327.1367,720.3272,336.8,722.23" style="stroke:#181818;stroke-width:1;"/><text fill="#000000" font-family="sans-serif" font-size="13" lengthAdjust="spacing" textLength="48.1089" x="288.01" y="683.3384">authors</text><text fill="#000000" font-family="sans-serif" font-size="13" lengthAdjust="spacing" textLength="22.7119" x="306.445" y="713.9045">0..*</text></g><!--link OutcomeTemplate to Objective--><g class="link" data-entity-1="OutcomeTemplate" data-entity-2="Objective" data-source-line="82" data-uid="lnk33" id="link_OutcomeTemplate_Objective"><path codeLine="82" d="M909.3884,633.804 C891.4284,664.694 876.2055,690.8828 859.5155,719.5928" fill="none" id="OutcomeTemplate-Objective" style="stroke:#181818;stroke-width:1;"/><polygon fill="#181818" points="915.42,623.43,908.9462,626.6065,909.3884,633.804,915.8622,630.6275,915.42,623.43" style="stroke:#181818;stroke-width:1;"/><polygon fill="#181818" points="856.5,724.78,864.4813,719.0095,859.0129,720.4573,857.5651,714.9889,856.5,724.78" style="stroke:#181818;stroke-width:1;"/><text fill="#000000" font-family="sans-serif" font-size="13" lengthAdjust="spacing" textLength="63.2417" x="889.34" y="683.3384">objectives</text><text fill="#000000" font-family="sans-serif" font-size="13" lengthAdjust="spacing" textLength="22.7119" x="836.1763" y="714.216">0..*</text></g><!--link Organization to Case--><g class="link" data-entity-1="Organization" data-entity-2="Case" data-source-line="83" data-uid="lnk34" id="link_Organization_Case"><path codeLine="83" d="M588.77,64.46 C535.68,87.85 457.4002,122.3398 393.4502,150.5298" fill="none" id="Organization-to-Case" style="stroke:#181818;stroke-width:1;"/><polygon fill="#181818" points="387.96,152.95,397.8088,152.9799,392.5352,150.9332,394.5819,145.6596,387.96,152.95" style="stroke:#181818;stroke-width:1;"/><text fill="#000000" font-family="sans-serif" font-size="13" lengthAdjust="spacing" textLength="59.4585" x="490.81" y="118.0284">casebook</text><text fill="#000000" font-family="sans-serif" font-size="13" lengthAdjust="spacing" textLength="22.7119" x="395.691" y="146.8563">0..*</text></g><!--link Organization to Organization--><g class="link" data-entity-1="Organization" data-entity-2="Organization" data-source-line="84" data-uid="lnk35" id="link_Organization_Organization"><path codeLine="84" d="M691.8,29.26 C697.63,31.4 701.41,35.23 701.41,40.73 C701.41,46.23 703.2594,47.984 697.4294,50.134" fill="none" id="Organization-to-Organization" style="stroke:#181818;stroke-width:1;"/><polygon fill="#181818" points="691.8,52.21,701.6281,52.8489,696.4912,50.48,698.8601,45.343,691.8,52.21" style="stroke:#181818;stroke-width:1;"/><text fill="#000000" font-family="sans-serif" font-size="13" lengthAdjust="spacing" textLength="54.2598" x="707.41" y="45.7984">subunits</text><text fill="#000000" font-family="sans-serif" font-size="13" lengthAdjust="spacing" textLength="22.7119" x="699.4566" y="67.1102">0..*</text></g><!--link Organization to Narrative--><g class="link" data-entity-1="Organization" data-entity-2="Narrative" data-source-line="85" data-uid="lnk36" id="link_Organization_Narrative"><path codeLine="85" d="M589.14,40.96 C464.9,42.31 150.26,65.97 49.34,265.42 C6,351.06 61.3752,452.9445 108.2852,517.5645" fill="none" id="Organization-to-Narrative" style="stroke:#181818;stroke-width:1;"/><polygon fill="#181818" points="111.81,522.42,109.7598,512.7869,108.8727,518.3737,103.2858,517.4866,111.81,522.42" style="stroke:#181818;stroke-width:1;"/><text fill="#000000" font-family="sans-serif" font-size="13" lengthAdjust="spacing" textLength="91.3872" x="50.34" y="278.9884">base_narrative</text><text fill="#000000" font-family="sans-serif" font-size="13" lengthAdjust="spacing" textLength="24.667" x="80.5963" y="511.9166">0..1</text></g><!--link Objective to Criterion--><g class="link" data-entity-1="Objective" data-entity-2="Criterion" data-source-line="92" data-uid="lnk38" id="link_Objective_Criterion"><path codeLine="92" d="M837.34,792.77 C837.34,816.95 837.34,844.16 837.34,871.48" fill="none" id="Objective-to-Criterion" style="stroke:#181818;stroke-width:1;"/><polygon fill="#181818" points="837.34,877.48,841.34,868.48,837.34,872.48,833.34,868.48,837.34,877.48" style="stroke:#181818;stroke-width:1;"/><text fill="#000000" font-family="sans-serif" font-size="13" lengthAdjust="spacing" textLength="63.229" x="838.34" y="844.2884">addresses</text><text fill="#000000" font-family="sans-serif" font-size="13" lengthAdjust="spacing" textLength="8.2202" x="828.7935" y="866.9195">1</text></g><!--link Evaluation to Objective--><g class="link" data-entity-1="Evaluation" data-entity-2="Objective" data-source-line="93" data-uid="lnk39" id="link_Evaluation_Objective"><path codeLine="93" d="M331.8511,624.5496 C351.8211,648.5196 374.38,670.29 408.34,686.77 C494.75,728.69 527.58,701.1 622.34,716.77 C657.39,722.56 689.6276,728.459 723.9076,735.039" fill="none" id="Evaluation-Objective" style="stroke:#181818;stroke-width:1;"/><polygon fill="#181818" points="324.17,615.33,324.9373,622.5002,331.8511,624.5496,331.0837,617.3794,324.17,615.33" style="stroke:#181818;stroke-width:1;"/><polygon fill="#181818" points="729.8,736.17,721.7154,730.5451,724.8896,735.2275,720.2073,738.4017,729.8,736.17" style="stroke:#181818;stroke-width:1;"/><text fill="#000000" font-family="sans-serif" font-size="13" lengthAdjust="spacing" textLength="56.6147" x="409.34" y="683.3384">objective</text><text fill="#000000" font-family="sans-serif" font-size="13" lengthAdjust="spacing" textLength="8.2202" x="713.965" y="731.6348">1</text></g><!--link Case to Narrative--><g class="link" data-entity-1="Case" data-entity-2="Narrative" data-source-line="94" data-uid="lnk40" id="link_Case_Narrative"><path codeLine="94" d="M248.51,235.72 C240.05,244.73 232.14,254.79 226.34,265.42 C187.05,337.33 205.42,365.69 188.34,445.84 C182.99,470.94 178.276,492.8151 173.156,516.5351" fill="none" id="Case-to-Narrative" style="stroke:#181818;stroke-width:1;"/><polygon fill="#181818" points="171.89,522.4,177.6989,514.4466,172.945,517.5126,169.879,512.7586,171.89,522.4" style="stroke:#181818;stroke-width:1;"/><text fill="#000000" font-family="sans-serif" font-size="13" lengthAdjust="spacing" textLength="29.2817" x="206.96" y="384.1984">brief</text><text fill="#000000" font-family="sans-serif" font-size="13" lengthAdjust="spacing" textLength="22.7119" x="150.1232" y="511.8942">1..*</text></g><!--link Case to Narrative--><g class="link" data-entity-1="Case" data-entity-2="Narrative" data-source-line="95" data-uid="lnk41" id="link_Case_Narrative"><path codeLine="95" d="M209.1,231.74 C175.6,250.65 141.13,277.2 122.34,312.42 C87.2,378.28 107.7851,460.0859 130.0951,516.8459" fill="none" id="Case-to-Narrative-1" style="stroke:#181818;stroke-width:1;"/><polygon fill="#181818" points="132.29,522.43,132.7204,512.5906,130.4609,517.7766,125.2749,515.5171,132.29,522.43" style="stroke:#181818;stroke-width:1;"/><text fill="#000000" font-family="sans-serif" font-size="13" lengthAdjust="spacing" textLength="62.2832" x="123.34" y="384.1984">narratives</text><text fill="#000000" font-family="sans-serif" font-size="13" lengthAdjust="spacing" textLength="22.7119" x="105.6969" y="511.9278">0..*</text></g><!--SRC=[nLTDRzms4BtlhnZeqjP85l7LXm91a4DRm0bgtu9WGL6pAzOKkI2fTRU6_tjdH56YLgirZ2QDJojoXfoFzzxG_a6PlN2Y0MChzBY7wtUhMbK8KZcfCVx6PX-Eq61JelChgONtKFpPQYojVIZWovUdz-0nWDs2erN__FKhFAs0_fws2dNr33w8q7guWRlu0rRF-JdT6VSrGg2hj0ZqenO1A2BfL8aUX04qmHr16R2j0reBi7T21YKH7grxu53UWBJ6An-KsN4mvFMpA7rWEwn-0Qz2AuAo1Xxf1ZejMF1M7_0DcLPq9zAPLYA5HGRA1EHL2wt7mHHKMC_pKnNbPgGH3L9k-KwtT4C5S1pKT2_cj-yYMZ2P5oxVfMYfDOk-ATsDbpKsWkn-l_jqUnS_iXPySZjXr3-TRMmdLJbRWySQ7TM6ka_rxShzNqhmlCh0y_Rjhr2yMw-lYWI56oWw51Mhay2kakrraSEFxBksLnHZjNcjgqiVGp7Q86s3zpqIUtWl0XCahUuiWOa0PwClemV_tgCCGCOCAmOI0n8-HtobqoFmq9Ej4beVEsCwEg1JOWh21eLlgGlJ4pFClWgMBo2dWyYcmkqYPYYH7Ud6f4pCOA9QAtJEeqUbzPH20dRgW8QDIetDZ-NJc547xxxV4UjK_WD7NB7kY9JKjmgNAghqb1XzA1-47ojgX7C4OwfRdb-KDsKgTL0LLvnP2QrHWMjU2pBtCNJhCXHrQz-iu3tUDy88VIJXxT4oSdpaztNERzzoVR4YlfR7ufpfZ8Na5Ib5FlsrPnrdk2J7lcypUzQSr7Ko4ssehMEpMF-pqfH9JTA4kSSqMTGnx6G_KwVp5z69-HLfN5gTD2bnh0Uf1uak24Qg39G7aEUHUvQM7RcozKGquBwcles2ndkTuVTc9I5argj98MmQ1bRd-UFUkj1Nm7KVFFKvGLRZaIoTi1w4ZYEm9-r8iO_3ra2qqRfdro3dAjHqb-yKdKXa3IRjxLFuoSE7NhNdPUDZkJfRRKcyfyKHibR8BBq1ca8QwTPC1svJDds-YrA0524wdaRMI8SqfuZruzC769wyT59nxZvFTadNbWYDCCVnZjSXuF93XHuGtFoAxWngvXjKq8lmuURIs-_q0T73u2g7JDvJrekn-yNeqJamGRFYal6Gza3coT79con7zRbi5y79Lo_YV4cmjbPh- -Wtet1TfCgv8tnRzjxuilyv3SpAyv9jUZcLVn514bflYILd_n4mbN2auTjDrvzBmphKHBhQwYeZ3_L-DXic7SYYu6QbBtzHTMCdUzMDpy4BrjETM6oUlCjtpF5Mihnde4kJFwh8y0uv7VdfSKYVvP5efMITPCh7brOv21bMQ_YutgtXFVpn-JTGh8_3-V_dewjxbKpvctLf86IMEwEhgbn2Rqxigy5-eTFJQNmTMtPIVATmUtREBuY2B_u5]--></g></svg>