<svg xmlns="http://www.w3.org/2000/svg" xmlns:xlink="http://www.w3.org/1999/xlink" contentStyleType="text/css" data-diagram-type="CLASS" height="646px" preserveAspectRatio="none" style="width:1058px;height:646px;background:#FFFFFF;" version="1.1" viewBox="0 0 1058 646" width="1058px" zoomAndPan="magnify"><defs/><g><!--class Process--><a href="" target="_top" title="None" xlink:actuate="onRequest" xlink:href="" xlink:show="new" xlink:title="None" xlink:type="simple"><g class="entity" data-entity="Process" data-source-line="4" data-uid="ent0002" id="entity_Process"><rect fill="#F1F1F1" height="100.4414" rx="2.5" ry="2.5" style="stroke:#181818;stroke-width:0.5;" width="140.9326" x="7" y="370.13"/><text fill="#000000" font-family="sans-serif" font-size="14" lengthAdjust="spacing" textLength="51.3105" x="51.811" y="388.6652">Process</text><line style="stroke:#181818;stroke-width:0.5;" x1="8" x2="146.9326" y1="396.6183" y2="396.6183"/><text fill="#000000" font-family="sans-serif" font-size="14" lengthAdjust="spacing" textLength="59.582" x="13" y="414.1534">id : curie</text><text fill="#000000" font-family="sans-serif" font-size="14" lengthAdjust="spacing" textLength="90.1455" x="13" y="430.6417">name : string</text><text fill="#000000" font-family="sans-serif" font-size="14" lengthAdjust="spacing" textLength="128.9326" x="13" y="447.13">description : string</text><text fill="#000000" font-family="sans-serif" font-size="14" lengthAdjust="spacing" textLength="96.0244" x="13" y="463.6183">status : Status</text></g></a><!--class Role--><a href="" target="_top" title="None" xlink:actuate="onRequest" xlink:href="" xlink:show="new" xlink:title="None" xlink:type="simple"><g class="entity" data-entity="Role" data-source-line="10" data-uid="ent0003" id="entity_Role"><rect fill="#F1F1F1" height="83.9531" rx="2.5" ry="2.5" style="stroke:#181818;stroke-width:0.5;" width="140.9326" x="7" y="555.82"/><text fill="#000000" font-family="sans-serif" font-size="14" lengthAdjust="spacing" textLength="29.2988" x="62.8169" y="574.3552">Role</text><line style="stroke:#181818;stroke-width:0.5;" x1="8" x2="146.9326" y1="582.3083" y2="582.3083"/><text fill="#000000" font-family="sans-serif" font-size="14" lengthAdjust="spacing" textLength="59.582" x="13" y="599.8434">id : curie</text><text fill="#000000" font-family="sans-serif" font-size="14" lengthAdjust="spacing" textLength="90.1455" x="13" y="616.3317">name : string</text><text fill="#000000" font-family="sans-serif" font-size="14" lengthAdjust="spacing" textLength="128.9326" x="13" y="632.82">description : string</text></g></a><!--class Person--><a href="" target="_top" title="None" xlink:actuate="onRequest" xlink:href="" xlink:show="new" xlink:title="None" xlink:type="simple"><g class="entity" data-entity="Person" data-source-line="16" data-uid="ent0005" id="entity_Person"><rect fill="#F1F1F1" height="83.9531" rx="2.5" ry="2.5" style="stroke:#181818;stroke-width:0.5;" width="102.1455" x="361.39" y="555.82"/><text fill="#000000" font-family="sans-serif" font-size="14" lengthAdjust="spacing" textLength="45.6914" x="389.6171" y="574.3552">Person</text><line style="stroke:#181818;stroke-width:0.5;" x1="362.39" x2="462.5355" y1="582.3083" y2="582.3083"/><text fill="#000000" font-family="sans-serif" font-size="14" lengthAdjust="spacing" textLength="59.582" x="367.39" y="599.8434">id : curie</text><text fill="#000000" font-family="sans-serif" font-size="14" lengthAdjust="spacing" textLength="90.1455" x="367.39" y="616.3317">name : string</text><text fill="#000000" font-family="sans-serif" font-size="14" lengthAdjust="spacing" textLength="89.5508" x="367.39" y="632.82">email : string</text></g></a><!--class CaseTemplate--><a href="" target="_top" title="None" xlink:actuate="onRequest" xlink:href="" xlink:show="new" xlink:title="None" xlink:type="simple"><g class="entity" data-entity="CaseTemplate" data-source-line="21" data-uid="ent0006" id="entity_CaseTemplate"><rect fill="#F1F1F1" height="133.418" rx="2.5" ry="2.5" style="stroke:#181818;stroke-width:0.5;" width="162.001" x="373.47" y="151.47"/><text fill="#000000" font-family="sans-serif" font-size="14" lengthAdjust="spacing" textLength="95.7031" x="406.6189" y="170.0052">CaseTemplate</text><line style="stroke:#181818;stroke-width:0.5;" x1="374.47" x2="534.471" y1="177.9583" y2="177.9583"/><text fill="#000000" font-family="sans-serif" font-size="14" lengthAdjust="spacing" textLength="59.582" x="379.47" y="195.4934">id : curie</text><text fill="#000000" font-family="sans-serif" font-size="14" lengthAdjust="spacing" textLength="90.1455" x="379.47" y="211.9817">name : string</text><text fill="#000000" font-family="sans-serif" font-size="14" lengthAdjust="spacing" textLength="128.9326" x="379.47" y="228.47">description : string</text><text fill="#000000" font-family="sans-serif" font-size="14" lengthAdjust="spacing" textLength="96.0244" x="379.47" y="244.9583">status : Status</text><text fill="#000000" font-family="sans-serif" font-size="14" lengthAdjust="spacing" textLength="150.001" x="379.47" y="261.4466">schema : JSONSchema</text><text fill="#000000" font-family="sans-serif" font-size="14" lengthAdjust="spacing" textLength="103.1133" x="379.47" y="277.9348">prompt : string</text></g></a><!--class Narrative--><a href="" target="_top" title="None" xlink:actuate="onRequest" xlink:href="" xlink:show="new" xlink:title="None" xlink:type="simple"><g class="entity" data-entity="Narrative" data-source-line="33" data-uid="ent0011" id="entity_Narrative"><rect fill="#F1F1F1" height="116.9297" rx="2.5" ry="2.5" style="stroke:#181818;stroke-width:0.5;" width="120.9854" x="728.97" y="361.89"/><text fill="#000000" font-family="sans-serif" font-size="14" lengthAdjust="spacing" textLength="61.5918" x="758.6668" y="380.4252">Narrative</text><line style="stroke:#181818;stroke-width:0.5;" x1="729.97" x2="848.9554" y1="388.3783" y2="388.3783"/><text fill="#000000" font-family="sans-serif" font-size="14" lengthAdjust="spacing" textLength="59.582" x="734.97" y="405.9134">id : curie</text><text fill="#000000" font-family="sans-serif" font-size="14" lengthAdjust="spacing" textLength="96.0244" x="734.97" y="422.4017">status : Status</text><text fill="#000000" font-family="sans-serif" font-size="14" lengthAdjust="spacing" textLength="108.9854" x="734.97" y="438.89">when : datetime</text><text fill="#000000" font-family="sans-serif" font-size="14" lengthAdjust="spacing" textLength="79.2217" x="734.97" y="455.3783">title : string</text><text fill="#000000" font-family="sans-serif" font-size="14" lengthAdjust="spacing" textLength="104.2754" x="734.97" y="471.8666">content : string</text></g></a><!--class OutcomeTemplate--><a href="" target="_top" title="None" xlink:actuate="onRequest" xlink:href="" xlink:show="new" xlink:title="None" xlink:type="simple"><g class="entity" data-entity="OutcomeTemplate" data-source-line="42" data-uid="ent0014" id="entity_OutcomeTemplate"><rect fill="#F1F1F1" height="83.9531" rx="2.5" ry="2.5" style="stroke:#181818;stroke-width:0.5;" width="162.001" x="472.47" y="378.38"/><text fill="#000000" font-family="sans-serif" font-size="14" lengthAdjust="spacing" textLength="124.79" x="491.0755" y="396.9152">OutcomeTemplate</text><line style="stroke:#181818;stroke-width:0.5;" x1="473.47" x2="633.471" y1="404.8683" y2="404.8683"/><text fill="#000000" font-family="sans-serif" font-size="14" lengthAdjust="spacing" textLength="59.582" x="478.47" y="422.4034">id : curie</text><text fill="#000000" font-family="sans-serif" font-size="14" lengthAdjust="spacing" textLength="103.1133" x="478.47" y="438.8917">prompt : string</text><text fill="#000000" font-family="sans-serif" font-size="14" lengthAdjust="spacing" textLength="150.001" x="478.47" y="455.38">schema : JSONSchema</text></g></a><!--class Organization--><a href="" target="_top" title="None" xlink:actuate="onRequest" xlink:href="" xlink:show="new" xlink:title="None" xlink:type="simple"><g class="entity" data-entity="Organization" data-source-line="48" data-uid="ent0016" id="entity_Organization"><rect fill="#F1F1F1" height="67.4648" rx="2.5" ry="2.5" style="stroke:#181818;stroke-width:0.5;" width="102.1455" x="655.39" y="7"/><text fill="#000000" font-family="sans-serif" font-size="14" lengthAdjust="spacing" textLength="88.1289" x="662.3983" y="25.5352">Organization</text><line style="stroke:#181818;stroke-width:0.5;" x1="656.39" x2="756.5355" y1="33.4883" y2="33.4883"/><text fill="#000000" font-family="sans-serif" font-size="14" lengthAdjust="spacing" textLength="59.582" x="661.39" y="51.0234">id : curie</text><text fill="#000000" font-family="sans-serif" font-size="14" lengthAdjust="spacing" textLength="90.1455" x="661.39" y="67.5117">name : string</text></g></a><!--class Case--><a href="" target="_top" title="None" xlink:actuate="onRequest" xlink:href="" xlink:show="new" xlink:title="None" xlink:type="simple"><g class="entity" data-entity="Case" data-source-line="52" data-uid="ent0017" id="entity_Case"><rect fill="#F1F1F1" height="83.9531" rx="2.5" ry="2.5" style="stroke:#181818;stroke-width:0.5;" width="178.4004" x="799.27" y="176.2"/><text fill="#000000" font-family="sans-serif" font-size="14" lengthAdjust="spacing" textLength="32.3545" x="872.2929" y="194.7352">Case</text><line style="stroke:#181818;stroke-width:0.5;" x1="800.27" x2="976.6704" y1="202.6883" y2="202.6883"/><text fill="#000000" font-family="sans-serif" font-size="14" lengthAdjust="spacing" textLength="59.582" x="805.27" y="220.2234">id : curie</text><text fill="#000000" font-family="sans-serif" font-size="14" lengthAdjust="spacing" textLength="90.1455" x="805.27" y="236.7117">name : string</text><text fill="#000000" font-family="sans-serif" font-size="14" lengthAdjust="spacing" textLength="166.4004" x="805.27" y="253.2">outcome_analysis : JSON</text></g></a><!--class Evaluation--><a href="" target="_top" title="None" xlink:actuate="onRequest" xlink:href="" xlink:show="new" xlink:title="None" xlink:type="simple"><g class="entity" data-entity="Evaluation" data-source-line="64" data-uid="ent0025" id="entity_Evaluation"><rect fill="#F1F1F1" height="50.9766" rx="2.5" ry="2.5" style="stroke:#181818;stroke-width:0.5;" width="91.5635" x="901.68" y="394.86"/><text fill="#000000" font-family="sans-serif" font-size="14" lengthAdjust="spacing" textLength="69.6035" x="912.66" y="413.3952">Evaluation</text><line style="stroke:#181818;stroke-width:0.5;" x1="902.68" x2="992.2435" y1="421.3483" y2="421.3483"/><text fill="#000000" font-family="sans-serif" font-size="14" lengthAdjust="spacing" textLength="79.5635" x="907.68" y="438.8834">value : float</text></g></a><!--class Criterion--><a href="" target="_top" title="None" xlink:actuate="onRequest" xlink:href="" xlink:show="new" xlink:title="None" xlink:type="simple"><g class="entity" data-entity="Criterion" data-source-line="67" data-uid="ent0026" id="entity_Criterion"><rect fill="#F1F1F1" height="83.9531" rx="2.5" ry="2.5" style="stroke:#181818;stroke-width:0.5;" width="140.9326" x="703" y="555.82"/><text fill="#000000" font-family="sans-serif" font-size="14" lengthAdjust="spacing" textLength="59.5615" x="743.6855" y="574.3552">Criterion</text><line style="stroke:#181818;stroke-width:0.5;" x1="704" x2="842.9326" y1="582.3083" y2="582.3083"/><text fill="#000000" font-family="sans-serif" font-size="14" lengthAdjust="spacing" textLength="59.582" x="709" y="599.8434">id : curie</text><text fill="#000000" font-family="sans-serif" font-size="14" lengthAdjust="spacing" textLength="90.1455" x="709" y="616.3317">name : string</text><text fill="#000000" font-family="sans-serif" font-size="14" lengthAdjust="spacing" textLength="128.9326" x="709" y="632.82">description : string</text></g></a><!--link Process to Role--><g class="link" data-entity-1="Process" data-entity-2="Role" data-source-line="15" data-uid="lnk4" id="link_Process_Role"><path codeLine="15" d="M77.47,470.69 C77.47,497.45 77.47,524.14 77.47,549.53" fill="none" id="Process-to-Role" style="stroke:#181818;stroke-width:1;"/><polygon fill="#181818" points="77.47,555.53,81.47,546.53,77.47,550.53,73.47,546.53,77.47,555.53" style="stroke:#181818;stroke-width:1;"/><text fill="#000000" font-family="sans-serif" font-size="13" lengthAdjust="spacing" textLength="30.9321" x="78.47" y="522.3884">roles</text><text fill="#000000" font-family="sans-serif" font-size="13" lengthAdjust="spacing" textLength="22.7119" x="53.7742" y="545.1916">0..*</text></g><!--link Process to Process--><g class="link" data-entity-1="Process" data-entity-2="Process" data-source-line="29" data-uid="lnk7" id="link_Process_Process"><path codeLine="29" d="M148.35,413.33 C154.26,414.84 157.93,417.18 157.93,420.35 C157.93,423.52 160.0733,424.3847 154.1633,425.8947" fill="none" id="Process-to-Process" style="stroke:#181818;stroke-width:1;"/><polygon fill="#181818" points="148.35,427.38,158.0601,429.0276,153.1944,426.1423,156.0797,421.2766,148.35,427.38" style="stroke:#181818;stroke-width:1;"/><text fill="#000000" font-family="sans-serif" font-size="13" lengthAdjust="spacing" textLength="100.0518" x="163.93" y="425.4184">follows_process</text><text fill="#000000" font-family="sans-serif" font-size="13" lengthAdjust="spacing" textLength="24.667" x="156.0216" y="441.3021">0..1</text></g><!--link Process to Process--><g class="link" data-entity-1="Process" data-entity-2="Process" data-source-line="30" data-uid="lnk8" id="link_Process_Process"><path codeLine="30" d="M148.28,403.55 C203.93,399.29 269.93,404.89 269.93,420.35 C269.93,435.81 209.9125,441.868 154.2625,437.608" fill="none" id="Process-to-Process-1" style="stroke:#181818;stroke-width:1;"/><polygon fill="#181818" points="148.28,437.15,156.9484,441.8253,153.2654,437.5316,157.5591,433.8486,148.28,437.15" style="stroke:#181818;stroke-width:1;"/><text fill="#000000" font-family="sans-serif" font-size="13" lengthAdjust="spacing" textLength="85.3887" x="275.93" y="425.4184">subprocesses</text><text fill="#000000" font-family="sans-serif" font-size="13" lengthAdjust="spacing" textLength="22.7119" x="155.855" y="451.9728">0..*</text></g><!--link Process to Person--><g class="link" data-entity-1="Process" data-entity-2="Person" data-source-line="31" data-uid="lnk9" id="link_Process_Person"><path codeLine="31" d="M148.1,458.34 C211.83,491.72 298.7548,537.2464 355.7348,567.0864" fill="none" id="Process-to-Person" style="stroke:#181818;stroke-width:1;"/><polygon fill="#181818" points="361.05,569.87,354.9328,562.1512,356.6206,567.5504,351.2214,569.2382,361.05,569.87" style="stroke:#181818;stroke-width:1;"/><text fill="#000000" font-family="sans-serif" font-size="13" lengthAdjust="spacing" textLength="48.1089" x="275.97" y="522.3884">authors</text><text fill="#000000" font-family="sans-serif" font-size="13" lengthAdjust="spacing" textLength="22.7119" x="330.7111" y="562.6988">0..*</text></g><!--link CaseTemplate to Process--><g class="link" data-entity-1="CaseTemplate" data-entity-2="Process" data-source-line="32" data-uid="lnk10" id="link_CaseTemplate_Process"><path codeLine="32" d="M373.13,262.37 C306.13,297.94 217.3995,345.0565 153.4895,378.9865" fill="none" id="CaseTemplate-to-Process" style="stroke:#181818;stroke-width:1;"/><polygon fill="#181818" points="148.19,381.8,158.0148,381.1127,152.6062,379.4554,154.2635,374.0468,148.19,381.8" style="stroke:#181818;stroke-width:1;"/><text fill="#000000" font-family="sans-serif" font-size="13" lengthAdjust="spacing" textLength="48.6421" x="266.97" y="328.4584">process</text><text fill="#000000" font-family="sans-serif" font-size="13" lengthAdjust="spacing" textLength="24.667" x="155.8468" y="375.1374">0..1</text></g><!--link CaseTemplate to Person--><g class="link" data-entity-1="CaseTemplate" data-entity-2="Person" data-source-line="40" data-uid="lnk12" id="link_CaseTemplate_Person"><path codeLine="40" d="M433.9,285.33 C427.39,309.21 420.97,336.53 417.47,361.89 C408.16,429.16 408.6338,502.3035 410.2538,549.4035" fill="none" id="CaseTemplate-to-Person" style="stroke:#181818;stroke-width:1;"/><polygon fill="#181818" points="410.46,555.4,414.1483,546.2678,410.2881,550.403,406.153,546.5428,410.46,555.4" style="stroke:#181818;stroke-width:1;"/><text fill="#000000" font-family="sans-serif" font-size="13" lengthAdjust="spacing" textLength="48.1089" x="418.47" y="425.4184">authors</text><text fill="#000000" font-family="sans-serif" font-size="13" lengthAdjust="spacing" textLength="22.7119" x="386.4444" y="545.0408">0..*</text></g><!--link Narrative to Person--><g class="link" data-entity-1="Narrative" data-entity-2="Person" data-source-line="41" data-uid="lnk13" id="link_Narrative_Person"><path codeLine="41" d="M728.64,474.34 C726.26,475.9 723.86,477.4 721.47,478.82 C636.78,528.8 532.8841,563.0341 469.5641,581.3341" fill="none" id="Narrative-to-Person" style="stroke:#181818;stroke-width:1;"/><polygon fill="#181818" points="463.8,583,473.5567,584.3439,468.6034,581.6118,471.3356,576.6585,463.8,583" style="stroke:#181818;stroke-width:1;"/><text fill="#000000" font-family="sans-serif" font-size="13" lengthAdjust="spacing" textLength="48.1089" x="658.39" y="522.3884">authors</text><text fill="#000000" font-family="sans-serif" font-size="13" lengthAdjust="spacing" textLength="22.7119" x="471.4407" y="577.8699">0..*</text></g><!--link CaseTemplate to OutcomeTemplate--><g class="link" data-entity-1="CaseTemplate" data-entity-2="OutcomeTemplate" data-source-line="47" data-uid="lnk15" id="link_CaseTemplate_OutcomeTemplate"><path codeLine="47" d="M487.16,285.28 C502.31,315.91 517.1809,345.9814 530.4109,372.7414" fill="none" id="CaseTemplate-to-OutcomeTemplate" style="stroke:#181818;stroke-width:1;"/><polygon fill="#181818" points="533.07,378.12,532.667,368.2794,530.8541,373.6379,525.4956,371.8249,533.07,378.12" style="stroke:#181818;stroke-width:1;"/><text fill="#000000" font-family="sans-serif" font-size="13" lengthAdjust="spacing" textLength="119.0249" x="510.89" y="328.4584">expected_outcome</text><text fill="#000000" font-family="sans-serif" font-size="13" lengthAdjust="spacing" textLength="24.667" x="503.9593" y="367.7863">0..1</text></g><!--link Organization to Case--><g class="link" data-entity-1="Organization" data-entity-2="Case" data-source-line="57" data-uid="lnk18" id="link_Organization_Case"><path codeLine="57" d="M740.7,74.74 C770.46,103.42 809.3799,140.9463 841.4099,171.8163" fill="none" id="Organization-to-Case" style="stroke:#181818;stroke-width:1;"/><polygon fill="#181818" points="845.73,175.98,842.0256,166.8544,842.1299,172.5103,836.474,172.6146,845.73,175.98" style="stroke:#181818;stroke-width:1;"/><text fill="#000000" font-family="sans-serif" font-size="13" lengthAdjust="spacing" textLength="34.3345" x="787.57" y="118.0384">cases</text><text fill="#000000" font-family="sans-serif" font-size="13" lengthAdjust="spacing" textLength="22.7119" x="814.8882" y="165.3431">0..*</text></g><!--link Organization to Organization--><g class="link" data-entity-1="Organization" data-entity-2="Organization" data-source-line="58" data-uid="lnk19" id="link_Organization_Organization"><path codeLine="58" d="M757.93,29.26 C763.76,31.41 767.54,35.23 767.54,40.74 C767.54,46.24 769.3894,47.984 763.5594,50.134" fill="none" id="Organization-to-Organization" style="stroke:#181818;stroke-width:1;"/><polygon fill="#181818" points="757.93,52.21,767.7581,52.8489,762.6212,50.48,764.9901,45.343,757.93,52.21" style="stroke:#181818;stroke-width:1;"/><text fill="#000000" font-family="sans-serif" font-size="13" lengthAdjust="spacing" textLength="54.2598" x="773.54" y="45.8084">subunits</text><text fill="#000000" font-family="sans-serif" font-size="13" lengthAdjust="spacing" textLength="22.7119" x="765.5866" y="67.1102">0..*</text></g><!--link Organization to Narrative--><g class="link" data-entity-1="Organization" data-entity-2="Narrative" data-source-line="59" data-uid="lnk20" id="link_Organization_Narrative"><path codeLine="59" d="M700.42,74.59 C692.91,121.9 683.18,211.56 701.47,284.89 C708.32,312.36 720.0911,334.3016 736.0111,356.6716" fill="none" id="Organization-to-Narrative" style="stroke:#181818;stroke-width:1;"/><polygon fill="#181818" points="739.49,361.56,737.5305,351.908,736.5909,357.4863,731.0126,356.5466,739.49,361.56" style="stroke:#181818;stroke-width:1;"/><text fill="#000000" font-family="sans-serif" font-size="13" lengthAdjust="spacing" textLength="91.3872" x="702.47" y="223.2484">base_narrative</text><text fill="#000000" font-family="sans-serif" font-size="13" lengthAdjust="spacing" textLength="24.667" x="734.9027" y="351.0676">0..1</text></g><!--link Case to Narrative--><g class="link" data-entity-1="Case" data-entity-2="Narrative" data-source-line="60" data-uid="lnk21" id="link_Case_Narrative"><path codeLine="60" d="M829.68,260.62 C817.24,268.93 804.05,277.4 791.47,284.89 C766.52,299.72 748.55,290.1 733.47,314.89 C724.43,329.74 724.6571,340.8649 732.7671,356.2149" fill="none" id="Case-to-Narrative" style="stroke:#181818;stroke-width:1;"/><polygon fill="#181818" points="735.57,361.52,734.9024,351.6938,733.2343,357.0991,727.829,355.431,735.57,361.52" style="stroke:#181818;stroke-width:1;"/><text fill="#000000" font-family="sans-serif" font-size="13" lengthAdjust="spacing" textLength="29.2817" x="734.47" y="328.4584">brief</text><text fill="#000000" font-family="sans-serif" font-size="13" lengthAdjust="spacing" textLength="22.7119" x="705.7046" y="351.0227">0..*</text></g><!--link Case to Narrative--><g class="link" data-entity-1="Case" data-entity-2="Narrative" data-source-line="61" data-uid="lnk22" id="link_Case_Narrative"><path codeLine="61" d="M823.63,260.46 C805.97,275.28 789.07,293.67 779.47,314.89 C772.97,329.24 771.4015,339.8599 772.9715,355.5199" fill="none" id="Case-to-Narrative-1" style="stroke:#181818;stroke-width:1;"/><polygon fill="#181818" points="773.57,361.49,776.6522,352.1359,773.0712,356.5149,768.6922,352.9339,773.57,361.49" style="stroke:#181818;stroke-width:1;"/><text fill="#000000" font-family="sans-serif" font-size="13" lengthAdjust="spacing" textLength="54.939" x="780.47" y="328.4584">outcome</text><text fill="#000000" font-family="sans-serif" font-size="13" lengthAdjust="spacing" textLength="22.7119" x="773.0171" y="350.9891">0..*</text></g><!--link Case to Narrative--><g class="link" data-entity-1="Case" data-entity-2="Narrative" data-source-line="62" data-uid="lnk23" id="link_Case_Narrative"><path codeLine="62" d="M868.47,260.46 C858.09,281.81 845.16,308.28 833.47,331.89 C828.71,341.48 826.3176,346.2856 821.3676,356.1656" fill="none" id="Case-to-Narrative-2" style="stroke:#181818;stroke-width:1;"/><polygon fill="#181818" points="818.68,361.53,826.2877,355.2752,820.9197,357.0597,819.1352,351.6917,818.68,361.53" style="stroke:#181818;stroke-width:1;"/><text fill="#000000" font-family="sans-serif" font-size="13" lengthAdjust="spacing" textLength="45.5381" x="842.02" y="328.4584">reports</text><text fill="#000000" font-family="sans-serif" font-size="13" lengthAdjust="spacing" textLength="22.7119" x="798.9436" y="351.0339">0..*</text></g><!--link Case to Narrative--><g class="link" data-entity-1="Case" data-entity-2="Narrative" data-source-line="63" data-uid="lnk24" id="link_Case_Narrative"><path codeLine="63" d="M897.56,260.57 C900.4,282.68 900.55,309.81 890.47,331.89 C881.69,351.09 871.0065,363.8455 854.9265,377.2655" fill="none" id="Case-to-Narrative-3" style="stroke:#181818;stroke-width:1;"/><polygon fill="#181818" points="850.32,381.11,859.7928,378.4143,854.1588,377.9063,854.6668,372.2723,850.32,381.11" style="stroke:#181818;stroke-width:1;"/><text fill="#000000" font-family="sans-serif" font-size="13" lengthAdjust="spacing" textLength="62.2832" x="896.47" y="328.4584">narratives</text><text fill="#000000" font-family="sans-serif" font-size="13" lengthAdjust="spacing" textLength="22.7119" x="857.767" y="373.8738">0..*</text></g><!--link Evaluation to Criterion--><g class="link" data-entity-1="Evaluation" data-entity-2="Criterion" data-source-line="72" data-uid="lnk27" id="link_Evaluation_Criterion"><path codeLine="72" d="M922.91,446.12 C894.71,474.55 852.2457,517.3705 818.5457,551.3405" fill="none" id="Evaluation-to-Criterion" style="stroke:#181818;stroke-width:1;"/><polygon fill="#181818" points="814.32,555.6,823.4982,552.0278,817.8414,552.0504,817.8188,546.3936,814.32,555.6" style="stroke:#181818;stroke-width:1;"/><text fill="#000000" font-family="sans-serif" font-size="13" lengthAdjust="spacing" textLength="52.9712" x="861.47" y="522.3884">criterion</text><text fill="#000000" font-family="sans-serif" font-size="13" lengthAdjust="spacing" textLength="24.667" x="795.1541" y="544.9631">0..1</text></g><!--link Case to Evaluation--><g class="link" data-entity-1="Case" data-entity-2="Evaluation" data-source-line="73" data-uid="lnk28" id="link_Case_Evaluation"><path codeLine="73" d="M945.6655,268.8417 C960.5055,284.2817 966.63,294.45 974.47,314.89 C984.59,341.3 976.0951,367.5495 965.1951,389.0295" fill="none" id="Case-Evaluation" style="stroke:#181818;stroke-width:1;"/><polygon fill="#181818" points="937.35,260.19,938.6238,267.2877,945.6655,268.8417,944.3917,261.744,937.35,260.19" style="stroke:#181818;stroke-width:1;"/><polygon fill="#181818" points="962.48,394.38,970.1197,388.1643,964.7426,389.9212,962.9857,384.5441,962.48,394.38" style="stroke:#181818;stroke-width:1;"/><text fill="#000000" font-family="sans-serif" font-size="13" lengthAdjust="spacing" textLength="71.4556" x="979.18" y="328.4584">evaluations</text><text fill="#000000" font-family="sans-serif" font-size="13" lengthAdjust="spacing" textLength="22.7119" x="941.4915" y="384.2447">0..*</text></g><!--link CaseTemplate to Criterion--><g class="link" data-entity-1="CaseTemplate" data-entity-2="Criterion" data-source-line="74" data-uid="lnk29" id="link_CaseTemplate_Criterion"><path codeLine="74" d="M535.82,244.28 C570.94,259.24 609.22,281.91 632.47,314.89 C687.1,392.39 613.13,446.1 664.47,525.82 C674.06,540.72 683.0663,549.7747 697.8163,559.8547" fill="none" id="CaseTemplate-to-Criterion" style="stroke:#181818;stroke-width:1;"/><polygon fill="#181818" points="702.77,563.24,697.5963,554.8595,698.6419,560.4189,693.0825,561.4645,702.77,563.24" style="stroke:#181818;stroke-width:1;"/><text fill="#000000" font-family="sans-serif" font-size="13" lengthAdjust="spacing" textLength="63.229" x="654.77" y="425.4184">addresses</text><text fill="#000000" font-family="sans-serif" font-size="13" lengthAdjust="spacing" textLength="22.7119" x="672.3818" y="556.4873">0..*</text></g><!--link CaseTemplate to CaseTemplate--><g class="link" data-entity-1="CaseTemplate" data-entity-2="CaseTemplate" data-source-line="75" data-uid="lnk30" id="link_CaseTemplate_CaseTemplate"><path codeLine="75" d="M535.8,203.54 C541.79,206.83 545.47,211.71 545.47,218.18 C545.47,224.65 547.049,226.6415 541.059,229.9315" fill="none" id="CaseTemplate-to-CaseTemplate" style="stroke:#181818;stroke-width:1;"/><polygon fill="#181818" points="535.8,232.82,545.6141,231.9933,540.1825,230.4129,541.7628,224.9813,535.8,232.82" style="stroke:#181818;stroke-width:1;"/><text fill="#000000" font-family="sans-serif" font-size="13" lengthAdjust="spacing" textLength="94.3896" x="551.47" y="223.2484">superseded_by</text><text fill="#000000" font-family="sans-serif" font-size="13" lengthAdjust="spacing" textLength="24.667" x="543.5565" y="247.2348">0..1</text></g><!--SRC=[pLMnRjim4Dtr5OH60mcIDKENe4i79wYx1O5n9iyn4OeaI2gfQ-ZVSwfecRJBA4YDeff8tJlTutjtb7-MseA3XcaZqADbrrVLHWfaN3gkS5XZOyEMDTYiqFcAA_2UrVVESFI-PWyFkxdHs3q-ibt5wDcj9IhHCIdO3UEjayXO5j3G88LyS58_7SM81NVI1cbq2U83XDPJT34iMDNjINqt2lyHewuwI71nyONLLvUNitfFuORLZXQ-7kKYwOm-DpTiGAgSLQnt2nv_a74A0luN7cLHlY7c5Fssk9ilXasEiCvGqqtfVLqdVKYIhurIvjKlRNnNi2XDyUqgeh6CZzuH7DgmCQv7vWAN68rCeYrpS0w2VFcK9- -B-hh1tWv1V89iZdE33AfeA3Swe3wM-yydB0gI76qA6yMuQmCtpL-rwMcVJFTPzvvv9vo8D_wqo0EAfHc2XmEu9z3o5_IJS8uXowRtt5CRoIz1WzfwwQCiWo3vILB_1Yga0eTXHChGF38CLwjbA6VrYYTzGoahghBKuwigra_B72MG2kiFu4Rl9f4EhN71Vm0vyZpqzDSNKErKG_IOtgUrCX0otvqCwEJvVnJbdrXAEBKbeTARF-xsginIMTAFz0CpRiitvUoa1WZXzlTmUK3poEycitJ5eA3vN6thDm00]--></g></svg>