<svg xmlns="http://www.w3.org/2000/svg" xmlns:xlink="http://www.w3.org/1999/xlink" contentStyleType="text/css" data-diagram-type="CLASS" height="985px" preserveAspectRatio="none" style="width:1268px;height:985px;background:#FFFFFF;" version="1.1" viewBox="0 0 1268 985" width="1268px" zoomAndPan="magnify"><defs/><g><!--class SituationSchema--><a href="" target="_top" title="None" xlink:actuate="onRequest" xlink:href="" xlink:show="new" xlink:title="None" xlink:type="simple"><g class="entity" data-entity="SituationSchema" data-source-line="4" data-uid="ent0002" id="entity_SituationSchema"><rect fill="#F1F1F1" height="83.9531" rx="2.5" ry="2.5" style="stroke:#181818;stroke-width:0.5;" width="190.7598" x="493.9" y="522.84"/><text fill="#000000" font-family="sans-serif" font-size="14" lengthAdjust="spacing" textLength="111.8154" x="533.3722" y="541.3752">SituationSchema</text><line style="stroke:#181818;stroke-width:0.5;" x1="494.9" x2="683.6598" y1="549.3283" y2="549.3283"/><text fill="#000000" font-family="sans-serif" font-size="14" lengthAdjust="spacing" textLength="79.2969" x="499.9" y="566.8634">id : ncname</text><text fill="#000000" font-family="sans-serif" font-size="14" lengthAdjust="spacing" textLength="103.1133" x="499.9" y="583.3517">prompt : string</text><text fill="#000000" font-family="sans-serif" font-size="14" lengthAdjust="spacing" textLength="178.7598" x="499.9" y="599.84">schema_def : JSONSchema</text></g></a><!--class Narrative--><a href="" target="_top" title="A narrative description of either a concrete or abstracted Case or ProgramTemplate. There can be many narratives." xlink:actuate="onRequest" xlink:href="" xlink:show="new" xlink:title="A narrative description of either a concrete or abstracted Case or ProgramTemplate. There can be many narratives." xlink:type="simple"><g class="entity" data-entity="Narrative" data-source-line="9" data-uid="ent0003" id="entity_Narrative"><rect fill="#F1F1F1" height="116.9297" rx="2.5" ry="2.5" style="stroke:#181818;stroke-width:0.5;" width="120.9854" x="813.79" y="683.79"/><text fill="#000000" font-family="sans-serif" font-size="14" lengthAdjust="spacing" textLength="61.5918" x="843.4868" y="702.3252">Narrative</text><line style="stroke:#181818;stroke-width:0.5;" x1="814.79" x2="933.7754" y1="710.2783" y2="710.2783"/><text fill="#000000" font-family="sans-serif" font-size="14" lengthAdjust="spacing" textLength="79.2969" x="819.79" y="727.8134">id : ncname</text><text fill="#000000" font-family="sans-serif" font-size="14" lengthAdjust="spacing" textLength="96.0244" x="819.79" y="744.3017">status : Status</text><text fill="#000000" font-family="sans-serif" font-size="14" lengthAdjust="spacing" textLength="108.9854" x="819.79" y="760.79">when : datetime</text><text fill="#000000" font-family="sans-serif" font-size="14" lengthAdjust="spacing" textLength="79.2217" x="819.79" y="777.2783">title : string</text><text fill="#000000" font-family="sans-serif" font-size="14" lengthAdjust="spacing" textLength="104.2754" x="819.79" y="793.7666">content : string</text></g></a><!--class Rule--><a href="" target="_top" title="The template that describes an entry in our best practice workbook, consisting of an (abstracted) situation we try to solve, and the process we intend to use to solve it." xlink:actuate="onRequest" xlink:href="" xlink:show="new" xlink:title="The template that describes an entry in our best practice workbook, consisting of an (abstracted) situation we try to solve, and the process we intend to use to solve it." xlink:type="simple"><g class="entity" data-entity="Rule" data-source-line="16" data-uid="ent0004" id="entity_Rule"><rect fill="#F1F1F1" height="100.4414" rx="2.5" ry="2.5" style="stroke:#181818;stroke-width:0.5;" width="140.9326" x="680.81" y="345.39"/><text fill="#000000" font-family="sans-serif" font-size="14" lengthAdjust="spacing" textLength="29.3877" x="736.5825" y="363.9252">Rule</text><line style="stroke:#181818;stroke-width:0.5;" x1="681.81" x2="820.7426" y1="371.8783" y2="371.8783"/><text fill="#000000" font-family="sans-serif" font-size="14" lengthAdjust="spacing" textLength="79.2969" x="686.81" y="389.4134">id : ncname</text><text fill="#000000" font-family="sans-serif" font-size="14" lengthAdjust="spacing" textLength="90.1455" x="686.81" y="405.9017">name : string</text><text fill="#000000" font-family="sans-serif" font-size="14" lengthAdjust="spacing" textLength="128.9326" x="686.81" y="422.39">description : string</text><text fill="#000000" font-family="sans-serif" font-size="14" lengthAdjust="spacing" textLength="103.1133" x="686.81" y="438.8783">prompt : string</text></g></a><!--class Rulebook--><a href="" target="_top" title="A set of rules" xlink:actuate="onRequest" xlink:href="" xlink:show="new" xlink:title="A set of rules" xlink:type="simple"><g class="entity" data-entity="Rulebook" data-source-line="24" data-uid="ent0007" id="entity_Rulebook"><rect fill="#F1F1F1" height="50.9766" rx="2.5" ry="2.5" style="stroke:#181818;stroke-width:0.5;" width="108.0244" x="1044.27" y="192.69"/><text fill="#000000" font-family="sans-serif" font-size="14" lengthAdjust="spacing" textLength="63.5811" x="1066.4917" y="211.2252">Rulebook</text><line style="stroke:#181818;stroke-width:0.5;" x1="1045.27" x2="1151.2944" y1="219.1783" y2="219.1783"/><text fill="#000000" font-family="sans-serif" font-size="14" lengthAdjust="spacing" textLength="96.0244" x="1050.27" y="236.7134">status : Status</text></g></a><!--class Organization--><a href="" target="_top" title="An organization where persons work" xlink:actuate="onRequest" xlink:href="" xlink:show="new" xlink:title="An organization where persons work" xlink:type="simple"><g class="entity" data-entity="Organization" data-source-line="27" data-uid="ent0008" id="entity_Organization"><rect fill="#F1F1F1" height="83.9531" rx="2.5" ry="2.5" style="stroke:#181818;stroke-width:0.5;" width="205.5527" x="934.5" y="7"/><text fill="#000000" font-family="sans-serif" font-size="14" lengthAdjust="spacing" textLength="88.1289" x="993.2119" y="25.5352">Organization</text><line style="stroke:#181818;stroke-width:0.5;" x1="935.5" x2="1139.0527" y1="33.4883" y2="33.4883"/><text fill="#000000" font-family="sans-serif" font-size="14" lengthAdjust="spacing" textLength="79.2969" x="940.5" y="51.0234">id : ncname</text><text fill="#000000" font-family="sans-serif" font-size="14" lengthAdjust="spacing" textLength="90.1455" x="940.5" y="67.5117">name : string</text><text fill="#000000" font-family="sans-serif" font-size="14" lengthAdjust="spacing" textLength="193.5527" x="940.5" y="84">mission_statetement : string</text></g></a><!--class OutcomeTemplate--><a href="" target="_top" title="A template that describes a category of outcome we expect at the end of a ProcessTemplate, and especially the criteria we intend to measure at the end of the process." xlink:actuate="onRequest" xlink:href="" xlink:show="new" xlink:title="A template that describes a category of outcome we expect at the end of a ProcessTemplate, and especially the criteria we intend to measure at the end of the process." xlink:type="simple"><g class="entity" data-entity="OutcomeTemplate" data-source-line="35" data-uid="ent0012" id="entity_OutcomeTemplate"><rect fill="#F1F1F1" height="83.9531" rx="2.5" ry="2.5" style="stroke:#181818;stroke-width:0.5;" width="190.7598" x="292.9" y="522.84"/><text fill="#000000" font-family="sans-serif" font-size="14" lengthAdjust="spacing" textLength="124.79" x="325.8849" y="541.3752">OutcomeTemplate</text><line style="stroke:#181818;stroke-width:0.5;" x1="293.9" x2="482.6598" y1="549.3283" y2="549.3283"/><text fill="#000000" font-family="sans-serif" font-size="14" lengthAdjust="spacing" textLength="79.2969" x="298.9" y="566.8634">id : ncname</text><text fill="#000000" font-family="sans-serif" font-size="14" lengthAdjust="spacing" textLength="103.1133" x="298.9" y="583.3517">prompt : string</text><text fill="#000000" font-family="sans-serif" font-size="14" lengthAdjust="spacing" textLength="178.7598" x="298.9" y="599.84">schema_def : JSONSchema</text></g></a><!--class ProgramTemplate--><a href="" target="_top" title="The actual process we will use to solve a given problem." xlink:actuate="onRequest" xlink:href="" xlink:show="new" xlink:title="The actual process we will use to solve a given problem." xlink:type="simple"><g class="entity" data-entity="ProgramTemplate" data-source-line="40" data-uid="ent0013" id="entity_ProgramTemplate"><rect fill="#F1F1F1" height="67.4648" rx="2.5" ry="2.5" style="stroke:#181818;stroke-width:0.5;" width="126.6748" x="694.94" y="531.08"/><text fill="#000000" font-family="sans-serif" font-size="14" lengthAdjust="spacing" textLength="120.6748" x="697.94" y="549.6152">ProgramTemplate</text><line style="stroke:#181818;stroke-width:0.5;" x1="695.94" x2="820.6148" y1="557.5683" y2="557.5683"/><text fill="#000000" font-family="sans-serif" font-size="14" lengthAdjust="spacing" textLength="79.2969" x="700.94" y="575.1034">id : ncname</text><text fill="#000000" font-family="sans-serif" font-size="14" lengthAdjust="spacing" textLength="90.1455" x="700.94" y="591.5917">name : string</text></g></a><!--class Case--><a href="" target="_top" title="The narrative description of an individual work unit we have solved or intend to solve." xlink:actuate="onRequest" xlink:href="" xlink:show="new" xlink:title="The narrative description of an individual work unit we have solved or intend to solve." xlink:type="simple"><g class="entity" data-entity="Case" data-source-line="44" data-uid="ent0014" id="entity_Case"><rect fill="#F1F1F1" height="100.4414" rx="2.5" ry="2.5" style="stroke:#181818;stroke-width:0.5;" width="178.4004" x="810.08" y="167.95"/><text fill="#000000" font-family="sans-serif" font-size="14" lengthAdjust="spacing" textLength="32.3545" x="883.1029" y="186.4852">Case</text><line style="stroke:#181818;stroke-width:0.5;" x1="811.08" x2="987.4804" y1="194.4383" y2="194.4383"/><text fill="#000000" font-family="sans-serif" font-size="14" lengthAdjust="spacing" textLength="79.2969" x="816.08" y="211.9734">id : ncname</text><text fill="#000000" font-family="sans-serif" font-size="14" lengthAdjust="spacing" textLength="90.1455" x="816.08" y="228.4617">name : string</text><text fill="#000000" font-family="sans-serif" font-size="14" lengthAdjust="spacing" textLength="128.6865" x="816.08" y="244.95">idealized : boolean</text><text fill="#000000" font-family="sans-serif" font-size="14" lengthAdjust="spacing" textLength="166.4004" x="816.08" y="261.4383">outcome_analysis : JSON</text></g></a><!--class Role--><a href="" target="_top" title="A process involves certain actors playing certain roles in the process. This describes the roles." xlink:actuate="onRequest" xlink:href="" xlink:show="new" xlink:title="A process involves certain actors playing certain roles in the process. This describes the roles." xlink:type="simple"><g class="entity" data-entity="Role" data-source-line="55" data-uid="ent0020" id="entity_Role"><rect fill="#F1F1F1" height="83.9531" rx="2.5" ry="2.5" style="stroke:#181818;stroke-width:0.5;" width="140.9326" x="662.81" y="700.28"/><text fill="#000000" font-family="sans-serif" font-size="14" lengthAdjust="spacing" textLength="29.2988" x="718.6269" y="718.8152">Role</text><line style="stroke:#181818;stroke-width:0.5;" x1="663.81" x2="802.7426" y1="726.7683" y2="726.7683"/><text fill="#000000" font-family="sans-serif" font-size="14" lengthAdjust="spacing" textLength="79.2969" x="668.81" y="744.3034">id : ncname</text><text fill="#000000" font-family="sans-serif" font-size="14" lengthAdjust="spacing" textLength="90.1455" x="668.81" y="760.7917">name : string</text><text fill="#000000" font-family="sans-serif" font-size="14" lengthAdjust="spacing" textLength="128.9326" x="668.81" y="777.28">description : string</text></g></a><!--class Report--><a href="" target="_top" title="A report contains a narrative and evaluations" xlink:actuate="onRequest" xlink:href="" xlink:show="new" xlink:title="A report contains a narrative and evaluations" xlink:type="simple"><g class="entity" data-entity="Report" data-source-line="61" data-uid="ent0022" id="entity_Report"><rect fill="#F1F1F1" height="26.4883" rx="2.5" ry="2.5" style="stroke:#181818;stroke-width:0.5;" width="51.0283" x="393.77" y="382.37"/><text fill="#000000" font-family="sans-serif" font-size="14" lengthAdjust="spacing" textLength="45.0283" x="396.77" y="400.9052">Report</text></g></a><!--class Evaluation--><a href="" target="_top" title="The evaluation of an outcome with respect to one of the Program's Criteria" xlink:actuate="onRequest" xlink:href="" xlink:show="new" xlink:title="The evaluation of an outcome with respect to one of the Program's Criteria" xlink:type="simple"><g class="entity" data-entity="Evaluation" data-source-line="64" data-uid="ent0023" id="entity_Evaluation"><rect fill="#F1F1F1" height="67.4648" rx="2.5" ry="2.5" style="stroke:#181818;stroke-width:0.5;" width="138.8613" x="37.85" y="531.08"/><text fill="#000000" font-family="sans-serif" font-size="14" lengthAdjust="spacing" textLength="69.6035" x="72.4789" y="549.6152">Evaluation</text><line style="stroke:#181818;stroke-width:0.5;" x1="38.85" x2="175.7113" y1="557.5683" y2="557.5683"/><text fill="#000000" font-family="sans-serif" font-size="14" lengthAdjust="spacing" textLength="79.5635" x="43.85" y="575.1034">value : float</text><text fill="#000000" font-family="sans-serif" font-size="14" lengthAdjust="spacing" textLength="126.8613" x="43.85" y="591.5917">achieved : boolean</text></g></a><!--class Person--><a href="" target="_top" title="A person involved in a process" xlink:actuate="onRequest" xlink:href="" xlink:show="new" xlink:title="A person involved in a process" xlink:type="simple"><g class="entity" data-entity="Person" data-source-line="75" data-uid="ent0031" id="entity_Person"><rect fill="#F1F1F1" height="83.9531" rx="2.5" ry="2.5" style="stroke:#181818;stroke-width:0.5;" width="102.1455" x="823.21" y="885.96"/><text fill="#000000" font-family="sans-serif" font-size="14" lengthAdjust="spacing" textLength="45.6914" x="851.4371" y="904.4952">Person</text><line style="stroke:#181818;stroke-width:0.5;" x1="824.21" x2="924.3555" y1="912.4483" y2="912.4483"/><text fill="#000000" font-family="sans-serif" font-size="14" lengthAdjust="spacing" textLength="79.2969" x="829.21" y="929.9834">id : ncname</text><text fill="#000000" font-family="sans-serif" font-size="14" lengthAdjust="spacing" textLength="90.1455" x="829.21" y="946.4717">name : string</text><text fill="#000000" font-family="sans-serif" font-size="14" lengthAdjust="spacing" textLength="89.5508" x="829.21" y="962.96">email : string</text></g></a><!--class Objective--><a href="" target="_top" title="None" xlink:actuate="onRequest" xlink:href="" xlink:show="new" xlink:title="None" xlink:type="simple"><g class="entity" data-entity="Objective" data-source-line="81" data-uid="ent0033" id="entity_Objective"><rect fill="#F1F1F1" height="67.4648" rx="2.5" ry="2.5" style="stroke:#181818;stroke-width:0.5;" width="214.5625" x="7" y="708.52"/><text fill="#000000" font-family="sans-serif" font-size="14" lengthAdjust="spacing" textLength="63.2461" x="82.6582" y="727.0552">Objective</text><line style="stroke:#181818;stroke-width:0.5;" x1="8" x2="220.5625" y1="735.0083" y2="735.0083"/><text fill="#000000" font-family="sans-serif" font-size="14" lengthAdjust="spacing" textLength="202.5625" x="13" y="752.5434">standard_of_evalution : string</text><text fill="#000000" font-family="sans-serif" font-size="14" lengthAdjust="spacing" textLength="108.7871" x="13" y="769.0317">threshold : float</text></g></a><!--class Criterion--><a href="" target="_top" title="A description of a criterion by which outcomes will be evaluated. E.g. A KPI is a Criterion." xlink:actuate="onRequest" xlink:href="" xlink:show="new" xlink:title="A description of a criterion by which outcomes will be evaluated. E.g. A KPI is a Criterion." xlink:type="simple"><g class="entity" data-entity="Criterion" data-source-line="90" data-uid="ent0039" id="entity_Criterion"><rect fill="#F1F1F1" height="100.4414" rx="2.5" ry="2.5" style="stroke:#181818;stroke-width:0.5;" width="140.9326" x="43.81" y="877.72"/><text fill="#000000" font-family="sans-serif" font-size="14" lengthAdjust="spacing" textLength="59.5615" x="84.4955" y="896.2552">Criterion</text><line style="stroke:#181818;stroke-width:0.5;" x1="44.81" x2="183.7426" y1="904.2083" y2="904.2083"/><text fill="#000000" font-family="sans-serif" font-size="14" lengthAdjust="spacing" textLength="79.2969" x="49.81" y="921.7434">id : ncname</text><text fill="#000000" font-family="sans-serif" font-size="14" lengthAdjust="spacing" textLength="90.1455" x="49.81" y="938.2317">name : string</text><text fill="#000000" font-family="sans-serif" font-size="14" lengthAdjust="spacing" textLength="128.9326" x="49.81" y="954.72">description : string</text><text fill="#000000" font-family="sans-serif" font-size="14" lengthAdjust="spacing" textLength="79.5156" x="49.81" y="971.2083">unit : string</text></g></a><!--link SituationSchema to Narrative--><g class="link" data-entity-1="SituationSchema" data-entity-2="Narrative" data-source-line="22" data-uid="lnk5" id="link_SituationSchema_Narrative"><path codeLine="22" d="M625.94,607.11 C642.81,623.82 664,641.94 686.28,653.79 C735.58,680.01 758.72,658.07 808.28,683.79 C810.03,684.7 806.6115,682.6127 808.3415,683.6327" fill="none" id="SituationSchema-to-Narrative" style="stroke:#181818;stroke-width:1;"/><polygon fill="#181818" points="813.51,686.68,807.7888,678.6633,809.2029,684.1405,803.7256,685.5547,813.51,686.68" style="stroke:#181818;stroke-width:1;"/><text fill="#000000" font-family="sans-serif" font-size="13" lengthAdjust="spacing" textLength="55.6563" x="687.28" y="650.3584">narrative</text><text fill="#000000" font-family="sans-serif" font-size="13" lengthAdjust="spacing" textLength="8.2202" x="797.6292" y="676.58">1</text></g><!--link Rule to SituationSchema--><g class="link" data-entity-1="Rule" data-entity-2="SituationSchema" data-source-line="23" data-uid="lnk6" id="link_Rule_SituationSchema"><path codeLine="23" d="M680.49,440.96 C666.6,451.42 652.79,463.24 641.28,475.84 C628.72,489.59 620.6107,501.6078 612.0007,517.1978" fill="none" id="Rule-to-SituationSchema" style="stroke:#181818;stroke-width:1;"/><polygon fill="#181818" points="609.1,522.45,616.9525,516.5054,611.5172,518.0731,609.9495,512.6379,609.1,522.45" style="stroke:#181818;stroke-width:1;"/><text fill="#000000" font-family="sans-serif" font-size="13" lengthAdjust="spacing" textLength="109.5796" x="642.28" y="489.4084">situation_schema</text><text fill="#000000" font-family="sans-serif" font-size="13" lengthAdjust="spacing" textLength="24.667" x="586.3995" y="512.0956">0..1</text></g><!--link Rulebook to Rule--><g class="link" data-entity-1="Rulebook" data-entity-2="Rule" data-source-line="32" data-uid="lnk9" id="link_Rulebook_Rule"><path codeLine="32" d="M1081.54,243.96 C1065.61,265.74 1039.75,296.78 1010.28,315.39 C952.44,351.93 882.5625,371.3485 827.9425,382.3185" fill="none" id="Rulebook-to-Rule" style="stroke:#181818;stroke-width:1;"/><polygon fill="#181818" points="822.06,383.5,831.6714,385.6495,826.9621,382.5154,830.0962,377.8061,822.06,383.5" style="stroke:#181818;stroke-width:1;"/><text fill="#000000" font-family="sans-serif" font-size="13" lengthAdjust="spacing" textLength="31.0146" x="1031.19" y="311.9584">rules</text><text fill="#000000" font-family="sans-serif" font-size="13" lengthAdjust="spacing" textLength="22.7119" x="829.6322" y="379.2748">0..*</text></g><!--link Organization to Rulebook--><g class="link" data-entity-1="Organization" data-entity-2="Rulebook" data-source-line="33" data-uid="lnk10" id="link_Organization_Rulebook"><path codeLine="33" d="M981.2232,100.5548 C969.9532,115.0148 970.82,122.15 979.28,137.95 C993.11,163.77 1014.158,179.8302 1038.568,192.6502" fill="none" id="Organization-Rulebook" style="stroke:#181818;stroke-width:1;"/><polygon fill="#181818" points="988.6,91.09,981.7567,93.3635,981.2232,100.5548,988.0665,98.2813,988.6,91.09" style="stroke:#181818;stroke-width:1;"/><polygon fill="#181818" points="1043.88,195.44,1037.7719,187.714,1039.4534,193.1152,1034.0522,194.7966,1043.88,195.44" style="stroke:#181818;stroke-width:1;"/><text fill="#000000" font-family="sans-serif" font-size="13" lengthAdjust="spacing" textLength="106.7803" x="980.28" y="134.5184">considered_rules</text><text fill="#000000" font-family="sans-serif" font-size="13" lengthAdjust="spacing" textLength="8.2202" x="1028.047" y="188.966">1</text></g><!--link Organization to Rulebook--><g class="link" data-entity-1="Organization" data-entity-2="Rulebook" data-source-line="34" data-uid="lnk11" id="link_Organization_Rulebook"><path codeLine="34" d="M1076.3502,101.4734 C1082.3302,110.7734 1081.41,110.81 1085.28,120.95 C1094.11,144.1 1096.8099,166.3965 1097.7399,186.2965" fill="none" id="Organization-Rulebook-1" style="stroke:#181818;stroke-width:1;"/><polygon fill="#181818" points="1069.86,91.38,1069.7406,98.5901,1076.3502,101.4734,1076.4696,94.2633,1069.86,91.38" style="stroke:#181818;stroke-width:1;"/><polygon fill="#181818" points="1098.02,192.29,1101.5955,183.1131,1097.7866,187.2955,1093.6042,183.4865,1098.02,192.29" style="stroke:#181818;stroke-width:1;"/><text fill="#000000" font-family="sans-serif" font-size="13" lengthAdjust="spacing" textLength="56.1387" x="1091.09" y="134.5184">rulebook</text><text fill="#000000" font-family="sans-serif" font-size="13" lengthAdjust="spacing" textLength="8.2202" x="1089.0079" y="181.7578">1</text></g><!--link Rule to Rule--><g class="link" data-entity-1="Rule" data-entity-2="Rule" data-source-line="50" data-uid="lnk15" id="link_Rule_Rule"><path codeLine="50" d="M822.17,382.76 C828.07,385.52 831.75,389.81 831.75,395.62 C831.75,401.42 833.5047,403.1676 827.6047,405.9276" fill="none" id="Rule-to-Rule" style="stroke:#181818;stroke-width:1;"/><polygon fill="#181818" points="822.17,408.47,832.017,408.2796,826.699,406.3514,828.6272,401.0333,822.17,408.47" style="stroke:#181818;stroke-width:1;"/><text fill="#000000" font-family="sans-serif" font-size="13" lengthAdjust="spacing" textLength="94.3896" x="837.75" y="400.6884">superseded_by</text><text fill="#000000" font-family="sans-serif" font-size="13" lengthAdjust="spacing" textLength="24.667" x="829.8425" y="422.9295">0..1</text></g><!--link Rule to OutcomeTemplate--><g class="link" data-entity-1="Rule" data-entity-2="OutcomeTemplate" data-source-line="51" data-uid="lnk16" id="link_Rule_OutcomeTemplate"><path codeLine="51" d="M680.48,412.91 C630.19,426.04 561.99,447.07 506.28,475.84 C481.65,488.56 461.4115,502.5849 440.8415,518.8049" fill="none" id="Rule-to-OutcomeTemplate" style="stroke:#181818;stroke-width:1;"/><polygon fill="#181818" points="436.13,522.52,445.6739,520.0883,440.0562,519.4241,440.7205,513.8063,436.13,522.52" style="stroke:#181818;stroke-width:1;"/><text fill="#000000" font-family="sans-serif" font-size="13" lengthAdjust="spacing" textLength="119.0249" x="507.28" y="489.4084">expected_outcome</text><text fill="#000000" font-family="sans-serif" font-size="13" lengthAdjust="spacing" textLength="24.667" x="417.8968" y="512.1768">0..1</text></g><!--link Rule to ProgramTemplate--><g class="link" data-entity-1="Rule" data-entity-2="ProgramTemplate" data-source-line="52" data-uid="lnk17" id="link_Rule_ProgramTemplate"><path codeLine="52" d="M753.36,446.33 C754.5,473.57 755.6411,500.5952 756.6411,524.6852" fill="none" id="Rule-to-ProgramTemplate" style="stroke:#181818;stroke-width:1;"/><polygon fill="#181818" points="756.89,530.68,760.5133,521.5218,756.6826,525.6843,752.5202,521.8536,756.89,530.68" style="stroke:#181818;stroke-width:1;"/><text fill="#000000" font-family="sans-serif" font-size="13" lengthAdjust="spacing" textLength="48.6421" x="756.2" y="489.4084">process</text><text fill="#000000" font-family="sans-serif" font-size="13" lengthAdjust="spacing" textLength="24.667" x="730.4016" y="520.3418">0..1</text></g><!--link Case to Rule--><g class="link" data-entity-1="Case" data-entity-2="Rule" data-source-line="53" data-uid="lnk18" id="link_Case_Rule"><path codeLine="53" d="M809.72,246.55 C785.58,258.48 762.3,275.21 748.28,298.39 C739.98,312.12 737.888,323.1063 739.058,338.9463" fill="none" id="Case-to-Rule" style="stroke:#181818;stroke-width:1;"/><polygon fill="#181818" points="739.5,344.93,742.8262,335.6598,739.1317,339.9436,734.8479,336.2491,739.5,344.93" style="stroke:#181818;stroke-width:1;"/><text fill="#000000" font-family="sans-serif" font-size="13" lengthAdjust="spacing" textLength="137.8584" x="749.28" y="311.9584">considered_templates</text><text fill="#000000" font-family="sans-serif" font-size="13" lengthAdjust="spacing" textLength="22.7119" x="714.4873" y="334.7012">0..*</text></g><!--link Case to Rule--><g class="link" data-entity-1="Case" data-entity-2="Rule" data-source-line="54" data-uid="lnk19" id="link_Case_Rule"><path codeLine="54" d="M900.34,268.68 C898.62,284.69 894.4,301.79 885.28,315.39 C870,338.18 851.0935,352.5631 827.4135,364.9831" fill="none" id="Case-to-Rule-1" style="stroke:#181818;stroke-width:1;"/><polygon fill="#181818" points="822.1,367.77,831.9282,367.132,826.5279,365.4476,828.2123,360.0473,822.1,367.77" style="stroke:#181818;stroke-width:1;"/><text fill="#000000" font-family="sans-serif" font-size="13" lengthAdjust="spacing" textLength="113.7817" x="894.5" y="311.9584">selected_template</text><text fill="#000000" font-family="sans-serif" font-size="13" lengthAdjust="spacing" textLength="24.667" x="829.7661" y="362.0947">0..1</text></g><!--link ProgramTemplate to Role--><g class="link" data-entity-1="ProgramTemplate" data-entity-2="Role" data-source-line="60" data-uid="lnk21" id="link_ProgramTemplate_Role"><path codeLine="60" d="M753.58,598.81 C749.49,627.5 744.3966,663.24 739.9966,694.11" fill="none" id="ProgramTemplate-to-Role" style="stroke:#181818;stroke-width:1;"/><polygon fill="#181818" points="739.15,700.05,744.3799,691.7045,739.8555,695.1,736.46,690.5756,739.15,700.05" style="stroke:#181818;stroke-width:1;"/><text fill="#000000" font-family="sans-serif" font-size="13" lengthAdjust="spacing" textLength="30.9321" x="749.02" y="650.3584">roles</text><text fill="#000000" font-family="sans-serif" font-size="13" lengthAdjust="spacing" textLength="22.7119" x="716.3599" y="689.4114">0..*</text></g><!--link Report to Evaluation--><g class="link" data-entity-1="Report" data-entity-2="Evaluation" data-source-line="68" data-uid="lnk24" id="link_Report_Evaluation"><path codeLine="68" d="M381.6005,397.5428 C328.6605,399.7628 218.29,411.51 145.28,475.84 C129.18,490.02 121.3482,506.4953 115.8682,525.0653" fill="none" id="Report-Evaluation" style="stroke:#181818;stroke-width:1;"/><polygon fill="#181818" points="393.59,397.04,387.4277,393.2949,381.6005,397.5428,387.7629,401.2879,393.59,397.04" style="stroke:#181818;stroke-width:1;"/><polygon fill="#181818" points="114.17,530.82,120.5537,523.3201,115.5852,526.0244,112.8809,521.0559,114.17,530.82" style="stroke:#181818;stroke-width:1;"/><text fill="#000000" font-family="sans-serif" font-size="13" lengthAdjust="spacing" textLength="71.4556" x="146.28" y="489.4084">evaluations</text><text fill="#000000" font-family="sans-serif" font-size="13" lengthAdjust="spacing" textLength="22.7119" x="91.4308" y="520.2501">0..*</text></g><!--link Report to Narrative--><g class="link" data-entity-1="Report" data-entity-2="Narrative" data-source-line="69" data-uid="lnk25" id="link_Report_Narrative"><path codeLine="69" d="M393.55,404.92 C350.69,420.32 265.96,457.79 231.28,522.84 C213.73,555.76 206.88,578.56 231.28,606.79 C315.89,704.64 689.99,631.43 808.28,683.79 C810.09,684.59 806.5621,682.6715 808.3421,683.6015" fill="none" id="Report-to-Narrative" style="stroke:#181818;stroke-width:1;"/><polygon fill="#181818" points="813.66,686.38,807.5354,678.667,809.2284,684.0646,803.8308,685.7576,813.66,686.38" style="stroke:#181818;stroke-width:1;"/><text fill="#000000" font-family="sans-serif" font-size="13" lengthAdjust="spacing" textLength="55.6563" x="232.28" y="569.8784">narrative</text><text fill="#000000" font-family="sans-serif" font-size="13" lengthAdjust="spacing" textLength="8.2202" x="803.9469" y="673.0825">1</text></g><!--link Case to Report--><g class="link" data-entity-1="Case" data-entity-2="Report" data-source-line="70" data-uid="lnk26" id="link_Case_Report"><path codeLine="70" d="M797.8049,234.0512 C729.4449,245.8512 645.83,264.69 567.28,298.39 C514.9,320.87 465.2071,357.7467 439.3771,378.2767" fill="none" id="Case-Report" style="stroke:#181818;stroke-width:1;"/><polygon fill="#181818" points="809.63,232.01,803.037,229.0889,797.8049,234.0512,804.3978,236.9723,809.63,232.01" style="stroke:#181818;stroke-width:1;"/><polygon fill="#181818" points="434.68,382.01,444.2145,379.5414,438.5942,378.8989,439.2368,373.2787,434.68,382.01" style="stroke:#181818;stroke-width:1;"/><text fill="#000000" font-family="sans-serif" font-size="13" lengthAdjust="spacing" textLength="54.939" x="568.28" y="311.9584">outcome</text><text fill="#000000" font-family="sans-serif" font-size="13" lengthAdjust="spacing" textLength="22.7119" x="414.4916" y="371.5916">0..*</text></g><!--link Case to Report--><g class="link" data-entity-1="Case" data-entity-2="Report" data-source-line="71" data-uid="lnk27" id="link_Case_Report"><path codeLine="71" d="M798.5695,255.9801 C686.5495,296.9301 518.0353,358.5202 450.5153,383.2002" fill="none" id="Case-Report-1" style="stroke:#181818;stroke-width:1;"/><polygon fill="#181818" points="809.84,251.86,802.8314,250.1632,798.5695,255.9801,805.5781,257.6769,809.84,251.86" style="stroke:#181818;stroke-width:1;"/><polygon fill="#181818" points="444.88,385.26,454.7062,385.9271,449.5761,383.5435,451.9598,378.4133,444.88,385.26" style="stroke:#181818;stroke-width:1;"/><text fill="#000000" font-family="sans-serif" font-size="13" lengthAdjust="spacing" textLength="45.5381" x="674.67" y="311.9584">reports</text><text fill="#000000" font-family="sans-serif" font-size="13" lengthAdjust="spacing" textLength="22.7119" x="452.9632" y="378.9567">0..*</text></g><!--link ProgramTemplate to ProgramTemplate--><g class="link" data-entity-1="ProgramTemplate" data-entity-2="ProgramTemplate" data-source-line="72" data-uid="lnk28" id="link_ProgramTemplate_ProgramTemplate"><path codeLine="72" d="M821.65,558.71 C827.75,559.95 831.62,561.98 831.62,564.81 C831.62,567.64 833.6316,568.494 827.5316,569.724" fill="none" id="ProgramTemplate-to-ProgramTemplate" style="stroke:#181818;stroke-width:1;"/><polygon fill="#181818" points="821.65,570.91,831.2631,573.0521,826.5514,569.9217,829.6818,565.21,821.65,570.91" style="stroke:#181818;stroke-width:1;"/><text fill="#000000" font-family="sans-serif" font-size="13" lengthAdjust="spacing" textLength="100.0518" x="837.62" y="569.8784">follows_process</text><text fill="#000000" font-family="sans-serif" font-size="13" lengthAdjust="spacing" textLength="24.667" x="829.4572" y="584.8966">0..1</text></g><!--link ProgramTemplate to ProgramTemplate--><g class="link" data-entity-1="ProgramTemplate" data-entity-2="ProgramTemplate" data-source-line="73" data-uid="lnk29" id="link_ProgramTemplate_ProgramTemplate"><path codeLine="73" d="M821.75,551.16 C876.17,547.1 943.62,551.65 943.62,564.81 C943.62,577.98 882.1533,582.9775 827.7333,578.9075" fill="none" id="ProgramTemplate-to-ProgramTemplate-1" style="stroke:#181818;stroke-width:1;"/><polygon fill="#181818" points="821.75,578.46,830.4266,583.1201,826.7361,578.8329,831.0233,575.1424,821.75,578.46" style="stroke:#181818;stroke-width:1;"/><text fill="#000000" font-family="sans-serif" font-size="13" lengthAdjust="spacing" textLength="85.3887" x="949.62" y="569.8784">subprocesses</text><text fill="#000000" font-family="sans-serif" font-size="13" lengthAdjust="spacing" textLength="22.7119" x="829.4667" y="593.2252">0..*</text></g><!--link ProgramTemplate to Narrative--><g class="link" data-entity-1="ProgramTemplate" data-entity-2="Narrative" data-source-line="74" data-uid="lnk30" id="link_ProgramTemplate_Narrative"><path codeLine="74" d="M780.1,598.81 C795.85,622.63 814.2203,650.4154 832.8103,678.5254" fill="none" id="ProgramTemplate-to-Narrative" style="stroke:#181818;stroke-width:1;"/><polygon fill="#181818" points="836.12,683.53,834.4919,673.8167,833.3619,679.3595,827.8191,678.2296,836.12,683.53" style="stroke:#181818;stroke-width:1;"/><text fill="#000000" font-family="sans-serif" font-size="13" lengthAdjust="spacing" textLength="55.6563" x="817.28" y="650.3584">narrative</text><text fill="#000000" font-family="sans-serif" font-size="13" lengthAdjust="spacing" textLength="8.2202" x="822.9948" y="673.0461">1</text></g><!--link Narrative to Person--><g class="link" data-entity-1="Narrative" data-entity-2="Person" data-source-line="80" data-uid="lnk32" id="link_Narrative_Person"><path codeLine="80" d="M874.28,801.12 C874.28,828.57 874.28,854.73 874.28,879.66" fill="none" id="Narrative-to-Person" style="stroke:#181818;stroke-width:1;"/><polygon fill="#181818" points="874.28,885.66,878.28,876.66,874.28,880.66,870.28,876.66,874.28,885.66" style="stroke:#181818;stroke-width:1;"/><text fill="#000000" font-family="sans-serif" font-size="13" lengthAdjust="spacing" textLength="48.1089" x="875.28" y="844.2884">authors</text><text fill="#000000" font-family="sans-serif" font-size="13" lengthAdjust="spacing" textLength="22.7119" x="850.5832" y="875.32">0..*</text></g><!--link OutcomeTemplate to Objective--><g class="link" data-entity-1="OutcomeTemplate" data-entity-2="Objective" data-source-line="85" data-uid="lnk34" id="link_OutcomeTemplate_Objective"><path codeLine="85" d="M313.5839,613.6405 C265.4939,644.4305 215.8432,676.2249 171.1232,704.8549" fill="none" id="OutcomeTemplate-Objective" style="stroke:#181818;stroke-width:1;"/><polygon fill="#181818" points="323.69,607.17,316.4801,607.0366,313.5839,613.6405,320.7938,613.7739,323.69,607.17" style="stroke:#181818;stroke-width:1;"/><polygon fill="#181818" points="166.07,708.09,175.8064,706.6062,170.281,705.3941,171.493,699.8686,166.07,708.09" style="stroke:#181818;stroke-width:1;"/><text fill="#000000" font-family="sans-serif" font-size="13" lengthAdjust="spacing" textLength="63.2417" x="276.82" y="650.3584">objectives</text><text fill="#000000" font-family="sans-serif" font-size="13" lengthAdjust="spacing" textLength="22.7119" x="151.9132" y="697.7461">0..*</text></g><!--link OutcomeTemplate to Narrative--><g class="link" data-entity-1="OutcomeTemplate" data-entity-2="Narrative" data-source-line="86" data-uid="lnk35" id="link_OutcomeTemplate_Narrative"><path codeLine="86" d="M475.77,607.26 C514.15,623.96 560.2,642.01 603.28,653.79 C692.1,678.07 724.61,645.33 808.28,683.79 C810.08,684.61 806.5733,682.6625 808.3433,683.6125" fill="none" id="OutcomeTemplate-to-Narrative" style="stroke:#181818;stroke-width:1;"/><polygon fill="#181818" points="813.63,686.45,807.5917,678.6694,809.2245,684.0854,803.8084,685.7182,813.63,686.45" style="stroke:#181818;stroke-width:1;"/><text fill="#000000" font-family="sans-serif" font-size="13" lengthAdjust="spacing" textLength="55.6563" x="604.28" y="650.3584">narrative</text><text fill="#000000" font-family="sans-serif" font-size="13" lengthAdjust="spacing" textLength="8.2202" x="802.3728" y="689.5207">1</text></g><!--link Organization to Case--><g class="link" data-entity-1="Organization" data-entity-2="Case" data-source-line="87" data-uid="lnk36" id="link_Organization_Case"><path codeLine="87" d="M941.63,91.27 C930.3,99.64 920.04,109.48 912.28,120.95 C903.13,134.5 899.6145,145.6276 898.0745,161.6376" fill="none" id="Organization-to-Case" style="stroke:#181818;stroke-width:1;"/><polygon fill="#181818" points="897.5,167.61,902.3434,159.0343,897.9787,162.633,894.3801,158.2684,897.5,167.61" style="stroke:#181818;stroke-width:1;"/><text fill="#000000" font-family="sans-serif" font-size="13" lengthAdjust="spacing" textLength="59.4585" x="913.28" y="134.5184">casebook</text><text fill="#000000" font-family="sans-serif" font-size="13" lengthAdjust="spacing" textLength="22.7119" x="873.7528" y="157.0354">0..*</text></g><!--link Organization to Organization--><g class="link" data-entity-1="Organization" data-entity-2="Organization" data-source-line="88" data-uid="lnk37" id="link_Organization_Organization"><path codeLine="88" d="M1140.45,38.66 C1146.46,41.14 1150.06,44.58 1150.06,48.98 C1150.06,53.38 1152.0096,54.5392 1145.9996,57.0092" fill="none" id="Organization-to-Organization" style="stroke:#181818;stroke-width:1;"/><polygon fill="#181818" points="1140.45,59.29,1150.2949,59.5686,1145.0747,57.3893,1147.2539,52.1691,1140.45,59.29" style="stroke:#181818;stroke-width:1;"/><text fill="#000000" font-family="sans-serif" font-size="13" lengthAdjust="spacing" textLength="54.2598" x="1156.06" y="54.0484">subunits</text><text fill="#000000" font-family="sans-serif" font-size="13" lengthAdjust="spacing" textLength="22.7119" x="1148.145" y="73.0656">0..*</text></g><!--link Organization to Narrative--><g class="link" data-entity-1="Organization" data-entity-2="Narrative" data-source-line="89" data-uid="lnk38" id="link_Organization_Narrative"><path codeLine="89" d="M1121.38,91.3 C1132.45,99.79 1142.59,109.65 1150.28,120.95 C1174.76,156.92 1168.28,173.67 1168.28,217.17 C1168.28,217.17 1168.28,217.17 1168.28,565.81 C1168.28,673.4 1027.2084,715.4506 941.0984,731.5006" fill="none" id="Organization-to-Narrative" style="stroke:#181818;stroke-width:1;"/><polygon fill="#181818" points="935.2,732.6,944.7806,734.8832,940.1153,731.6838,943.3147,727.0186,935.2,732.6" style="stroke:#181818;stroke-width:1;"/><text fill="#000000" font-family="sans-serif" font-size="13" lengthAdjust="spacing" textLength="91.3872" x="1169.28" y="400.6884">base_narrative</text><text fill="#000000" font-family="sans-serif" font-size="13" lengthAdjust="spacing" textLength="24.667" x="942.754" y="728.4153">0..1</text></g><!--link Objective to Criterion--><g class="link" data-entity-1="Objective" data-entity-2="Criterion" data-source-line="96" data-uid="lnk40" id="link_Objective_Criterion"><path codeLine="96" d="M114.28,776.09 C114.28,804.26 114.28,839.28 114.28,871.43" fill="none" id="Objective-to-Criterion" style="stroke:#181818;stroke-width:1;"/><polygon fill="#181818" points="114.28,877.43,118.28,868.43,114.28,872.43,110.28,868.43,114.28,877.43" style="stroke:#181818;stroke-width:1;"/><text fill="#000000" font-family="sans-serif" font-size="13" lengthAdjust="spacing" textLength="63.229" x="115.28" y="844.2884">addresses</text><text fill="#000000" font-family="sans-serif" font-size="13" lengthAdjust="spacing" textLength="8.2202" x="105.7335" y="866.8624">1</text></g><!--link Evaluation to Objective--><g class="link" data-entity-1="Evaluation" data-entity-2="Objective" data-source-line="97" data-uid="lnk41" id="link_Evaluation_Objective"><path codeLine="97" d="M84.4994,609.8438 C77.5994,626.1738 76.81,635.26 80.28,653.79 C83.76,672.36 88.6795,686.5568 95.6295,702.5568" fill="none" id="Evaluation-Objective" style="stroke:#181818;stroke-width:1;"/><polygon fill="#181818" points="89.17,598.79,83.1501,602.76,84.4994,609.8438,90.5193,605.8737,89.17,598.79" style="stroke:#181818;stroke-width:1;"/><polygon fill="#181818" points="98.02,708.06,98.1031,698.2115,96.0279,703.474,90.7655,701.3988,98.02,708.06" style="stroke:#181818;stroke-width:1;"/><text fill="#000000" font-family="sans-serif" font-size="13" lengthAdjust="spacing" textLength="56.6147" x="81.28" y="650.3584">objective</text><text fill="#000000" font-family="sans-serif" font-size="13" lengthAdjust="spacing" textLength="8.2202" x="86.1787" y="697.7103">1</text></g><!--link Case to Narrative--><g class="link" data-entity-1="Case" data-entity-2="Narrative" data-source-line="98" data-uid="lnk42" id="link_Case_Narrative"><path codeLine="98" d="M988.97,259.78 C1005.45,270.45 1021.22,283.29 1033.28,298.39 C1083.19,360.9 1134.98,587.46 1090.28,653.79 C1055.91,704.78 992.1211,725.0311 941.1611,733.9011" fill="none" id="Case-to-Narrative" style="stroke:#181818;stroke-width:1;"/><polygon fill="#181818" points="935.25,734.93,944.8026,737.3274,940.1759,734.0726,943.4308,729.4459,935.25,734.93" style="stroke:#181818;stroke-width:1;"/><text fill="#000000" font-family="sans-serif" font-size="13" lengthAdjust="spacing" textLength="29.2817" x="1101.18" y="489.4084">brief</text><text fill="#000000" font-family="sans-serif" font-size="13" lengthAdjust="spacing" textLength="22.7119" x="942.7083" y="747.5324">1..*</text></g><!--link Case to Narrative--><g class="link" data-entity-1="Case" data-entity-2="Narrative" data-source-line="99" data-uid="lnk43" id="link_Case_Narrative"><path codeLine="99" d="M985.44,268.72 C995.11,277.48 1003.8,287.38 1010.28,298.39 C1054.38,373.35 989.53,417.1 1032.28,492.84 C1043.03,511.88 1061.62,503.22 1071.28,522.84 C1087.76,556.31 1088.71,573.8 1071.28,606.79 C1042.76,660.8 987.1638,694.7306 940.5338,715.8906" fill="none" id="Case-to-Narrative-1" style="stroke:#181818;stroke-width:1;"/><polygon fill="#181818" points="935.07,718.37,944.9186,718.2934,939.6231,716.3039,941.6127,711.0084,935.07,718.37" style="stroke:#181818;stroke-width:1;"/><text fill="#000000" font-family="sans-serif" font-size="13" lengthAdjust="spacing" textLength="62.2832" x="1033.28" y="489.4084">narratives</text><text fill="#000000" font-family="sans-serif" font-size="13" lengthAdjust="spacing" textLength="22.7119" x="942.9607" y="712.5226">0..*</text></g><!--SRC=[lLV1Rjms4BtxAmPxQMiaY_YQGu4WoA4ju0HrRa6meCJP5MjAN93KRZU6_xsFb2Y9gvKH8svyMeepd9atxmrfTw-QlR2YfiP8ThodcpTNbP9CfRAbvkutrtj_efhhWgsxAhLmZbPtohV2AzFSbHNNOaLVlZpSceOVltwbXol2tyDMiPQFf2IzfQPiHCr4sSxU6XoDNUUjQdPdkouUl96yXSMVTnzlkqYmUan9t0fhaSI1O_XtrAGrePhIgdr8aCoMMFcABGagJLDQzam6gm9nHUbPqdlXugTFrkm0nsUKh8NdDNs66z0G3HLCjMXEOmotVawjpWlVEkpUTJ_otMF53VOaOdery_NAQrw22HLvRZ8K1tp-RdK73SeWtnT5lXA-1wXWHwWD_lP42b2r5eKwZzO065Ko7OszBuovVnK2EULy2054uVNh2E1lv18Vw8W8ECqRSaOV-1LC9M9oQ7V9I0i6AkGiWqqBu9CfAVyiJEEd1LYc15WmcTFlyMhEwzUlVwVLpIeZsrjQ3JHONVKmHyCtwtMmdPq2Zm6XJSVirRHB0UAUn8vz0DZYgvkZCUVHqEsFTYSQzIt6wCv2GoVV0ij0vZrKZ5R6phuKshLoBbRc0uEvdX5oKcJ2wNgL20fmOhM0Cg_XUW1_T8TnPA94BNBpB3-R5WDYhIzDpKdkVGCMXO8vu7bdG6xqntI-WStyxvvBJp0ED0_43W89moJmFPtU2O4TR9NG-XIDSRHdgqGkYfg5Qz6g_CI9XjO_TSoUJSLXea3whT1JNH-Lrhca1UqWaYOO5Phh7zBta50OrqCMYqCV8qerKXsK35a6kbFRA1_oh0JCOu8oZFqH-VZjnOOGI2gq-iR16SJJZ9HoYvv56z48VS9uxNimQYQVAuDUN1jap18IA4uNHz2Cs_3gY0gVFkn5nrctuTYt6FOTz1SrF95baj3S8w-2TPTFiXzdej59ZebUgZc4vZWgsNg1omhqCzOH74y1-lJPmZLOPth1HGvmHos7lMZuVryuQECCq0mzaoQWYPCirSzxOtsFW8sBUDEZm328Hix7cN8GkhjQ-WjZLCg7OMlGosZTYsIOP7Wa8PQBmmnQm6ikZPs-X5ySlUy7rXosS6n0PwiDvbOEZYWhnOSp7GI6zsLUJo6PvXn8ErQt6Zs-urhkY9STdRnXEKhWQRiE_11wiOzBgjaQhStHRKRrF4c5IqUujkYzUTd_IHZI38-tVf9KN2H5oI0MaQJoKdh07QBqcH8cIMQ5zxaXST7w2g8UR-ZY7x0nlV0l_uE1HqSZXSLKssuYMPvwzFaA3A-CbXEc8hFPjCpeCCaYC2UjuiFZtF4xY9a_LgQ1EYg6MOeVtLFb2UjyfsDBkE7SejSyhmA1DdEwz38V67D-jQQ72vR52GzBLLPfZhZk5L0CauRbcZwiTsjwHtzz-eDK6633-J_pmHzl_voHayuEZPlK7XWffKtocqwcyOsvm8xywhlfMdO6lbMylNYfBf37hVu3]--></g></svg>