<svg xmlns="http://www.w3.org/2000/svg" xmlns:xlink="http://www.w3.org/1999/xlink" contentStyleType="text/css" data-diagram-type="CLASS" height="985px" preserveAspectRatio="none" style="width:1308px;height:985px;background:#FFFFFF;" version="1.1" viewBox="0 0 1308 985" width="1308px" zoomAndPan="magnify"><defs/><g><!--class Template--><a href="" target="_top" title="A schema that can be applied to a story" xlink:actuate="onRequest" xlink:href="" xlink:show="new" xlink:title="A schema that can be applied to a story" xlink:type="simple"><g class="entity" data-entity="Template" data-source-line="4" data-uid="ent0002" id="entity_Template"><rect fill="#F1F1F1" height="83.9531" rx="2.5" ry="2.5" style="stroke:#181818;stroke-width:0.5;" width="190.7598" x="360.62" y="353.64"/><text fill="#000000" font-family="sans-serif" font-size="14" font-style="italic" lengthAdjust="spacing" textLength="63.3486" x="424.3256" y="372.1752">Template</text><line style="stroke:#181818;stroke-width:0.5;" x1="361.62" x2="550.3798" y1="380.1283" y2="380.1283"/><text fill="#000000" font-family="sans-serif" font-size="14" lengthAdjust="spacing" textLength="79.2969" x="366.62" y="397.6634">id : ncname</text><text fill="#000000" font-family="sans-serif" font-size="14" lengthAdjust="spacing" textLength="103.1133" x="366.62" y="414.1517">prompt : string</text><text fill="#000000" font-family="sans-serif" font-size="14" lengthAdjust="spacing" textLength="178.7598" x="366.62" y="430.64">schema_def : JSONSchema</text></g></a><!--class Narrative--><a href="" target="_top" title="A narrative description of either a concrete or abstracted Case or ProgramTemplate. There can be many narratives." xlink:actuate="onRequest" xlink:href="" xlink:show="new" xlink:title="A narrative description of either a concrete or abstracted Case or ProgramTemplate. There can be many narratives." xlink:type="simple"><g class="entity" data-entity="Narrative" data-source-line="9" data-uid="ent0003" id="entity_Narrative"><rect fill="#F1F1F1" height="116.9297" rx="2.5" ry="2.5" style="stroke:#181818;stroke-width:0.5;" width="120.9854" x="154.51" y="683.79"/><text fill="#000000" font-family="sans-serif" font-size="14" lengthAdjust="spacing" textLength="61.5918" x="184.2068" y="702.3252">Narrative</text><line style="stroke:#181818;stroke-width:0.5;" x1="155.51" x2="274.4954" y1="710.2783" y2="710.2783"/><text fill="#000000" font-family="sans-serif" font-size="14" lengthAdjust="spacing" textLength="79.2969" x="160.51" y="727.8134">id : ncname</text><text fill="#000000" font-family="sans-serif" font-size="14" lengthAdjust="spacing" textLength="96.0244" x="160.51" y="744.3017">status : Status</text><text fill="#000000" font-family="sans-serif" font-size="14" lengthAdjust="spacing" textLength="108.9854" x="160.51" y="760.79">when : datetime</text><text fill="#000000" font-family="sans-serif" font-size="14" lengthAdjust="spacing" textLength="79.2217" x="160.51" y="777.2783">title : string</text><text fill="#000000" font-family="sans-serif" font-size="14" lengthAdjust="spacing" textLength="104.2754" x="160.51" y="793.7666">content : string</text></g></a><!--class SituationSchema--><a href="" target="_top" title="None" xlink:actuate="onRequest" xlink:href="" xlink:show="new" xlink:title="None" xlink:type="simple"><g class="entity" data-entity="SituationSchema" data-source-line="16" data-uid="ent0004" id="entity_SituationSchema"><rect fill="#F1F1F1" height="83.9531" rx="2.5" ry="2.5" style="stroke:#181818;stroke-width:0.5;" width="203.9121" x="528.04" y="522.84"/><text fill="#000000" font-family="sans-serif" font-size="14" lengthAdjust="spacing" textLength="111.8154" x="574.0883" y="541.3752">SituationSchema</text><line style="stroke:#181818;stroke-width:0.5;" x1="529.04" x2="730.9521" y1="549.3283" y2="549.3283"/><text fill="#000000" font-family="sans-serif" font-size="14" lengthAdjust="spacing" textLength="92.4492" x="534.04" y="566.8634">id(i) : ncname</text><text fill="#000000" font-family="sans-serif" font-size="14" lengthAdjust="spacing" textLength="116.2656" x="534.04" y="583.3517">prompt(i) : string</text><text fill="#000000" font-family="sans-serif" font-size="14" lengthAdjust="spacing" textLength="191.9121" x="534.04" y="599.84">schema_def(i) : JSONSchema</text></g></a><!--class OutcomeTemplate--><a href="" target="_top" title="A template that describes a category of outcome we expect at the end of a ProcessTemplate, and especially the criteria we intend to measure at the end of the process." xlink:actuate="onRequest" xlink:href="" xlink:show="new" xlink:title="A template that describes a category of outcome we expect at the end of a ProcessTemplate, and especially the criteria we intend to measure at the end of the process." xlink:type="simple"><g class="entity" data-entity="OutcomeTemplate" data-source-line="21" data-uid="ent0005" id="entity_OutcomeTemplate"><rect fill="#F1F1F1" height="83.9531" rx="2.5" ry="2.5" style="stroke:#181818;stroke-width:0.5;" width="203.9121" x="742.04" y="522.84"/><text fill="#000000" font-family="sans-serif" font-size="14" lengthAdjust="spacing" textLength="124.79" x="781.601" y="541.3752">OutcomeTemplate</text><line style="stroke:#181818;stroke-width:0.5;" x1="743.04" x2="944.9521" y1="549.3283" y2="549.3283"/><text fill="#000000" font-family="sans-serif" font-size="14" lengthAdjust="spacing" textLength="92.4492" x="748.04" y="566.8634">id(i) : ncname</text><text fill="#000000" font-family="sans-serif" font-size="14" lengthAdjust="spacing" textLength="116.2656" x="748.04" y="583.3517">prompt(i) : string</text><text fill="#000000" font-family="sans-serif" font-size="14" lengthAdjust="spacing" textLength="191.9121" x="748.04" y="599.84">schema_def(i) : JSONSchema</text></g></a><!--class Rule--><a href="" target="_top" title="The template that describes an entry in our best practice workbook, consisting of an (abstracted) situation we try to solve, and the process we intend to use to solve it." xlink:actuate="onRequest" xlink:href="" xlink:show="new" xlink:title="The template that describes an entry in our best practice workbook, consisting of an (abstracted) situation we try to solve, and the process we intend to use to solve it." xlink:type="simple"><g class="entity" data-entity="Rule" data-source-line="29" data-uid="ent0009" id="entity_Rule"><rect fill="#F1F1F1" height="100.4414" rx="2.5" ry="2.5" style="stroke:#181818;stroke-width:0.5;" width="140.9326" x="561.53" y="345.39"/><text fill="#000000" font-family="sans-serif" font-size="14" lengthAdjust="spacing" textLength="29.3877" x="617.3025" y="363.9252">Rule</text><line style="stroke:#181818;stroke-width:0.5;" x1="562.53" x2="701.4626" y1="371.8783" y2="371.8783"/><text fill="#000000" font-family="sans-serif" font-size="14" lengthAdjust="spacing" textLength="79.2969" x="567.53" y="389.4134">id : ncname</text><text fill="#000000" font-family="sans-serif" font-size="14" lengthAdjust="spacing" textLength="90.1455" x="567.53" y="405.9017">name : string</text><text fill="#000000" font-family="sans-serif" font-size="14" lengthAdjust="spacing" textLength="128.9326" x="567.53" y="422.39">description : string</text><text fill="#000000" font-family="sans-serif" font-size="14" lengthAdjust="spacing" textLength="103.1133" x="567.53" y="438.8783">prompt : string</text></g></a><!--class Rulebook--><a href="" target="_top" title="A set of rules" xlink:actuate="onRequest" xlink:href="" xlink:show="new" xlink:title="A set of rules" xlink:type="simple"><g class="entity" data-entity="Rulebook" data-source-line="36" data-uid="ent0011" id="entity_Rulebook"><rect fill="#F1F1F1" height="50.9766" rx="2.5" ry="2.5" style="stroke:#181818;stroke-width:0.5;" width="108.0244" x="390.99" y="192.69"/><text fill="#000000" font-family="sans-serif" font-size="14" lengthAdjust="spacing" textLength="63.5811" x="413.2117" y="211.2252">Rulebook</text><line style="stroke:#181818;stroke-width:0.5;" x1="391.99" x2="498.0144" y1="219.1783" y2="219.1783"/><text fill="#000000" font-family="sans-serif" font-size="14" lengthAdjust="spacing" textLength="96.0244" x="396.99" y="236.7134">status : Status</text></g></a><!--class Organization--><a href="" target="_top" title="An organization where persons work" xlink:actuate="onRequest" xlink:href="" xlink:show="new" xlink:title="An organization where persons work" xlink:type="simple"><g class="entity" data-entity="Organization" data-source-line="39" data-uid="ent0012" id="entity_Organization"><rect fill="#F1F1F1" height="83.9531" rx="2.5" ry="2.5" style="stroke:#181818;stroke-width:0.5;" width="205.5527" x="181.22" y="7"/><text fill="#000000" font-family="sans-serif" font-size="14" lengthAdjust="spacing" textLength="88.1289" x="239.9319" y="25.5352">Organization</text><line style="stroke:#181818;stroke-width:0.5;" x1="182.22" x2="385.7727" y1="33.4883" y2="33.4883"/><text fill="#000000" font-family="sans-serif" font-size="14" lengthAdjust="spacing" textLength="79.2969" x="187.22" y="51.0234">id : ncname</text><text fill="#000000" font-family="sans-serif" font-size="14" lengthAdjust="spacing" textLength="90.1455" x="187.22" y="67.5117">name : string</text><text fill="#000000" font-family="sans-serif" font-size="14" lengthAdjust="spacing" textLength="193.5527" x="187.22" y="84">mission_statetement : string</text></g></a><!--class ProgramTemplate--><a href="" target="_top" title="The actual process we will use to solve a given problem." xlink:actuate="onRequest" xlink:href="" xlink:show="new" xlink:title="The actual process we will use to solve a given problem." xlink:type="simple"><g class="entity" data-entity="ProgramTemplate" data-source-line="47" data-uid="ent0016" id="entity_ProgramTemplate"><rect fill="#F1F1F1" height="67.4648" rx="2.5" ry="2.5" style="stroke:#181818;stroke-width:0.5;" width="126.6748" x="955.66" y="531.08"/><text fill="#000000" font-family="sans-serif" font-size="14" lengthAdjust="spacing" textLength="120.6748" x="958.66" y="549.6152">ProgramTemplate</text><line style="stroke:#181818;stroke-width:0.5;" x1="956.66" x2="1081.3348" y1="557.5683" y2="557.5683"/><text fill="#000000" font-family="sans-serif" font-size="14" lengthAdjust="spacing" textLength="79.2969" x="961.66" y="575.1034">id : ncname</text><text fill="#000000" font-family="sans-serif" font-size="14" lengthAdjust="spacing" textLength="90.1455" x="961.66" y="591.5917">name : string</text></g></a><!--class Case--><a href="" target="_top" title="The narrative description of an individual work unit we have solved or intend to solve." xlink:actuate="onRequest" xlink:href="" xlink:show="new" xlink:title="The narrative description of an individual work unit we have solved or intend to solve." xlink:type="simple"><g class="entity" data-entity="Case" data-source-line="51" data-uid="ent0017" id="entity_Case"><rect fill="#F1F1F1" height="100.4414" rx="2.5" ry="2.5" style="stroke:#181818;stroke-width:0.5;" width="178.4004" x="156.8" y="167.95"/><text fill="#000000" font-family="sans-serif" font-size="14" lengthAdjust="spacing" textLength="32.3545" x="229.8229" y="186.4852">Case</text><line style="stroke:#181818;stroke-width:0.5;" x1="157.8" x2="334.2004" y1="194.4383" y2="194.4383"/><text fill="#000000" font-family="sans-serif" font-size="14" lengthAdjust="spacing" textLength="79.2969" x="162.8" y="211.9734">id : ncname</text><text fill="#000000" font-family="sans-serif" font-size="14" lengthAdjust="spacing" textLength="90.1455" x="162.8" y="228.4617">name : string</text><text fill="#000000" font-family="sans-serif" font-size="14" lengthAdjust="spacing" textLength="128.6865" x="162.8" y="244.95">idealized : boolean</text><text fill="#000000" font-family="sans-serif" font-size="14" lengthAdjust="spacing" textLength="166.4004" x="162.8" y="261.4383">outcome_analysis : JSON</text></g></a><!--class Role--><a href="" target="_top" title="A process involves certain actors playing certain roles in the process. This describes the roles." xlink:actuate="onRequest" xlink:href="" xlink:show="new" xlink:title="A process involves certain actors playing certain roles in the process. This describes the roles." xlink:type="simple"><g class="entity" data-entity="Role" data-source-line="62" data-uid="ent0023" id="entity_Role"><rect fill="#F1F1F1" height="83.9531" rx="2.5" ry="2.5" style="stroke:#181818;stroke-width:0.5;" width="140.9326" x="948.53" y="700.28"/><text fill="#000000" font-family="sans-serif" font-size="14" lengthAdjust="spacing" textLength="29.2988" x="1004.3469" y="718.8152">Role</text><line style="stroke:#181818;stroke-width:0.5;" x1="949.53" x2="1088.4626" y1="726.7683" y2="726.7683"/><text fill="#000000" font-family="sans-serif" font-size="14" lengthAdjust="spacing" textLength="79.2969" x="954.53" y="744.3034">id : ncname</text><text fill="#000000" font-family="sans-serif" font-size="14" lengthAdjust="spacing" textLength="90.1455" x="954.53" y="760.7917">name : string</text><text fill="#000000" font-family="sans-serif" font-size="14" lengthAdjust="spacing" textLength="128.9326" x="954.53" y="777.28">description : string</text></g></a><!--class Report--><a href="" target="_top" title="A report contains a narrative and evaluations" xlink:actuate="onRequest" xlink:href="" xlink:show="new" xlink:title="A report contains a narrative and evaluations" xlink:type="simple"><g class="entity" data-entity="Report" data-source-line="68" data-uid="ent0025" id="entity_Report"><rect fill="#F1F1F1" height="26.4883" rx="2.5" ry="2.5" style="stroke:#181818;stroke-width:0.5;" width="51.0283" x="221.49" y="382.37"/><text fill="#000000" font-family="sans-serif" font-size="14" lengthAdjust="spacing" textLength="45.0283" x="224.49" y="400.9052">Report</text></g></a><!--class Evaluation--><a href="" target="_top" title="The evaluation of an outcome with respect to one of the Program's Criteria" xlink:actuate="onRequest" xlink:href="" xlink:show="new" xlink:title="The evaluation of an outcome with respect to one of the Program's Criteria" xlink:type="simple"><g class="entity" data-entity="Evaluation" data-source-line="71" data-uid="ent0026" id="entity_Evaluation"><rect fill="#F1F1F1" height="67.4648" rx="2.5" ry="2.5" style="stroke:#181818;stroke-width:0.5;" width="138.8613" x="379.57" y="531.08"/><text fill="#000000" font-family="sans-serif" font-size="14" lengthAdjust="spacing" textLength="69.6035" x="414.1989" y="549.6152">Evaluation</text><line style="stroke:#181818;stroke-width:0.5;" x1="380.57" x2="517.4313" y1="557.5683" y2="557.5683"/><text fill="#000000" font-family="sans-serif" font-size="14" lengthAdjust="spacing" textLength="79.5635" x="385.57" y="575.1034">value : float</text><text fill="#000000" font-family="sans-serif" font-size="14" lengthAdjust="spacing" textLength="126.8613" x="385.57" y="591.5917">achieved : boolean</text></g></a><!--class Person--><a href="" target="_top" title="A person involved in a process" xlink:actuate="onRequest" xlink:href="" xlink:show="new" xlink:title="A person involved in a process" xlink:type="simple"><g class="entity" data-entity="Person" data-source-line="82" data-uid="ent0034" id="entity_Person"><rect fill="#F1F1F1" height="83.9531" rx="2.5" ry="2.5" style="stroke:#181818;stroke-width:0.5;" width="102.1455" x="163.93" y="885.96"/><text fill="#000000" font-family="sans-serif" font-size="14" lengthAdjust="spacing" textLength="45.6914" x="192.1571" y="904.4952">Person</text><line style="stroke:#181818;stroke-width:0.5;" x1="164.93" x2="265.0755" y1="912.4483" y2="912.4483"/><text fill="#000000" font-family="sans-serif" font-size="14" lengthAdjust="spacing" textLength="79.2969" x="169.93" y="929.9834">id : ncname</text><text fill="#000000" font-family="sans-serif" font-size="14" lengthAdjust="spacing" textLength="90.1455" x="169.93" y="946.4717">name : string</text><text fill="#000000" font-family="sans-serif" font-size="14" lengthAdjust="spacing" textLength="89.5508" x="169.93" y="962.96">email : string</text></g></a><!--class Objective--><a href="" target="_top" title="None" xlink:actuate="onRequest" xlink:href="" xlink:show="new" xlink:title="None" xlink:type="simple"><g class="entity" data-entity="Objective" data-source-line="88" data-uid="ent0036" id="entity_Objective"><rect fill="#F1F1F1" height="67.4648" rx="2.5" ry="2.5" style="stroke:#181818;stroke-width:0.5;" width="214.5625" x="532.72" y="708.52"/><text fill="#000000" font-family="sans-serif" font-size="14" lengthAdjust="spacing" textLength="63.2461" x="608.3782" y="727.0552">Objective</text><line style="stroke:#181818;stroke-width:0.5;" x1="533.72" x2="746.2825" y1="735.0083" y2="735.0083"/><text fill="#000000" font-family="sans-serif" font-size="14" lengthAdjust="spacing" textLength="202.5625" x="538.72" y="752.5434">standard_of_evalution : string</text><text fill="#000000" font-family="sans-serif" font-size="14" lengthAdjust="spacing" textLength="108.7871" x="538.72" y="769.0317">threshold : float</text></g></a><!--class Criterion--><a href="" target="_top" title="A description of a criterion by which outcomes will be evaluated. E.g. A KPI is a Criterion." xlink:actuate="onRequest" xlink:href="" xlink:show="new" xlink:title="A description of a criterion by which outcomes will be evaluated. E.g. A KPI is a Criterion." xlink:type="simple"><g class="entity" data-entity="Criterion" data-source-line="96" data-uid="ent0041" id="entity_Criterion"><rect fill="#F1F1F1" height="100.4414" rx="2.5" ry="2.5" style="stroke:#181818;stroke-width:0.5;" width="140.9326" x="569.53" y="877.72"/><text fill="#000000" font-family="sans-serif" font-size="14" lengthAdjust="spacing" textLength="59.5615" x="610.2155" y="896.2552">Criterion</text><line style="stroke:#181818;stroke-width:0.5;" x1="570.53" x2="709.4626" y1="904.2083" y2="904.2083"/><text fill="#000000" font-family="sans-serif" font-size="14" lengthAdjust="spacing" textLength="79.2969" x="575.53" y="921.7434">id : ncname</text><text fill="#000000" font-family="sans-serif" font-size="14" lengthAdjust="spacing" textLength="90.1455" x="575.53" y="938.2317">name : string</text><text fill="#000000" font-family="sans-serif" font-size="14" lengthAdjust="spacing" textLength="128.9326" x="575.53" y="954.72">description : string</text><text fill="#000000" font-family="sans-serif" font-size="14" lengthAdjust="spacing" textLength="79.5156" x="575.53" y="971.2083">unit : string</text></g></a><!--link Template to Narrative--><g class="link" data-entity-1="Template" data-entity-2="Narrative" data-source-line="26" data-uid="lnk6" id="link_Template_Narrative"><path codeLine="26" d="M397.55,437.86 C369.84,460.15 338.42,489.84 318,522.84 C297.58,555.83 309.28,571.12 294,606.79 C282.8,632.92 270.6311,655.1218 256.4811,678.2518" fill="none" id="Template-to-Narrative" style="stroke:#181818;stroke-width:1;"/><polygon fill="#181818" points="253.35,683.37,261.4588,677.7801,255.9593,679.1048,254.6345,673.6053,253.35,683.37" style="stroke:#181818;stroke-width:1;"/><text fill="#000000" font-family="sans-serif" font-size="13" lengthAdjust="spacing" textLength="55.6563" x="319" y="569.8784">narrative</text><text fill="#000000" font-family="sans-serif" font-size="13" lengthAdjust="spacing" textLength="8.2202" x="249.5495" y="672.8666">1</text></g><!--reverse link Template to SituationSchema--><g class="link" data-entity-1="Template" data-entity-2="SituationSchema" data-source-line="27" data-uid="lnk7" id="link_Template_SituationSchema"><path codeLine="27" d="M496.7526,452.1458 C510.4926,469.9358 516.59,476.19 534,492.84 C544.78,503.15 557.1,513.28 569.22,522.51" fill="none" id="Template-backto-SituationSchema" style="stroke:#181818;stroke-width:1;"/><polygon fill="none" points="485.75,437.9,492.004,455.8133,501.5012,448.4782,485.75,437.9" style="stroke:#181818;stroke-width:1;"/></g><!--reverse link Template to OutcomeTemplate--><g class="link" data-entity-1="Template" data-entity-2="OutcomeTemplate" data-source-line="28" data-uid="lnk8" id="link_Template_OutcomeTemplate"><path codeLine="28" d="M537.0459,447.0416 C568.6459,465.6716 592.12,477.71 629,492.84 C675.09,511.74 689.69,507.24 737,522.84 C738.51,523.33 740.03,523.84 741.56,524.36" fill="none" id="Template-backto-OutcomeTemplate" style="stroke:#181818;stroke-width:1;"/><polygon fill="none" points="521.54,437.9,533.9987,452.2102,540.093,441.873,521.54,437.9" style="stroke:#181818;stroke-width:1;"/></g><!--link Rule to SituationSchema--><g class="link" data-entity-1="Rule" data-entity-2="SituationSchema" data-source-line="35" data-uid="lnk10" id="link_Rule_SituationSchema"><path codeLine="35" d="M631.41,446.33 C631.12,470.58 630.8429,493.4204 630.5629,516.4604" fill="none" id="Rule-to-SituationSchema" style="stroke:#181818;stroke-width:1;"/><polygon fill="#181818" points="630.49,522.46,634.5991,513.5093,630.5508,517.4604,626.5997,513.4121,630.49,522.46" style="stroke:#181818;stroke-width:1;"/><text fill="#000000" font-family="sans-serif" font-size="13" lengthAdjust="spacing" textLength="109.5796" x="632" y="489.4084">situation_schema</text><text fill="#000000" font-family="sans-serif" font-size="13" lengthAdjust="spacing" textLength="24.667" x="604.7094" y="512.1072">0..1</text></g><!--link Rulebook to Rule--><g class="link" data-entity-1="Rulebook" data-entity-2="Rule" data-source-line="44" data-uid="lnk13" id="link_Rulebook_Rule"><path codeLine="44" d="M499.4,229.64 C538.66,240.16 589.58,260.45 618,298.39 C627.92,311.63 631.689,322.8702 633.319,339.0602" fill="none" id="Rulebook-to-Rule" style="stroke:#181818;stroke-width:1;"/><polygon fill="#181818" points="633.92,345.03,636.9983,335.6746,633.4191,340.0551,629.0386,336.476,633.92,345.03" style="stroke:#181818;stroke-width:1;"/><text fill="#000000" font-family="sans-serif" font-size="13" lengthAdjust="spacing" textLength="31.0146" x="627.79" y="311.9584">rules</text><text fill="#000000" font-family="sans-serif" font-size="13" lengthAdjust="spacing" textLength="22.7119" x="610.7482" y="334.8146">0..*</text></g><!--link Organization to Rulebook--><g class="link" data-entity-1="Organization" data-entity-2="Rulebook" data-source-line="45" data-uid="lnk14" id="link_Organization_Rulebook"><path codeLine="45" d="M302.3434,102.3336 C308.9234,118.0936 313.33,124.43 325,137.95 C344.16,160.16 365.812,175.6831 389.262,189.2031" fill="none" id="Organization-Rulebook" style="stroke:#181818;stroke-width:1;"/><polygon fill="#181818" points="297.72,91.26,296.3405,98.3379,302.3434,102.3336,303.7229,95.2557,297.72,91.26" style="stroke:#181818;stroke-width:1;"/><polygon fill="#181818" points="394.46,192.2,388.661,184.2394,390.1284,189.7026,384.6651,191.17,394.46,192.2" style="stroke:#181818;stroke-width:1;"/><text fill="#000000" font-family="sans-serif" font-size="13" lengthAdjust="spacing" textLength="106.7803" x="326" y="134.5184">considered_rules</text><text fill="#000000" font-family="sans-serif" font-size="13" lengthAdjust="spacing" textLength="8.2202" x="374.553" y="182.479">1</text></g><!--link Organization to Rulebook--><g class="link" data-entity-1="Organization" data-entity-2="Rulebook" data-source-line="46" data-uid="lnk15" id="link_Organization_Rulebook"><path codeLine="46" d="M397.3801,89.4017 C414.3101,99.0717 419.6,105.41 431,120.95 C446.07,141.51 448.4601,165.294 447.6901,186.274" fill="none" id="Organization-Rulebook-1" style="stroke:#181818;stroke-width:1;"/><polygon fill="#181818" points="386.96,83.45,390.1861,89.8992,397.3801,89.4017,394.1539,82.9525,386.96,83.45" style="stroke:#181818;stroke-width:1;"/><polygon fill="#181818" points="447.47,192.27,451.7974,183.4228,447.6534,187.2734,443.8028,183.1293,447.47,192.27" style="stroke:#181818;stroke-width:1;"/><text fill="#000000" font-family="sans-serif" font-size="13" lengthAdjust="spacing" textLength="56.1387" x="440.68" y="134.5184">rulebook</text><text fill="#000000" font-family="sans-serif" font-size="13" lengthAdjust="spacing" textLength="8.2202" x="439.1411" y="182.1486">1</text></g><!--link Rule to Rule--><g class="link" data-entity-1="Rule" data-entity-2="Rule" data-source-line="57" data-uid="lnk18" id="link_Rule_Rule"><path codeLine="57" d="M702.89,382.76 C708.79,385.52 712.47,389.81 712.47,395.62 C712.47,401.42 714.2247,403.1676 708.3247,405.9276" fill="none" id="Rule-to-Rule" style="stroke:#181818;stroke-width:1;"/><polygon fill="#181818" points="702.89,408.47,712.737,408.2796,707.419,406.3514,709.3472,401.0333,702.89,408.47" style="stroke:#181818;stroke-width:1;"/><text fill="#000000" font-family="sans-serif" font-size="13" lengthAdjust="spacing" textLength="94.3896" x="718.47" y="400.6884">superseded_by</text><text fill="#000000" font-family="sans-serif" font-size="13" lengthAdjust="spacing" textLength="24.667" x="710.5625" y="422.9295">0..1</text></g><!--link Rule to OutcomeTemplate--><g class="link" data-entity-1="Rule" data-entity-2="OutcomeTemplate" data-source-line="58" data-uid="lnk19" id="link_Rule_OutcomeTemplate"><path codeLine="58" d="M702.74,444.94 C716.62,454.9 730.92,465.5 744,475.84 C762.51,490.46 777.6609,503.3977 794.5909,518.4877" fill="none" id="Rule-to-OutcomeTemplate" style="stroke:#181818;stroke-width:1;"/><polygon fill="#181818" points="799.07,522.48,795.0129,513.5056,795.3375,519.1531,789.6899,519.4777,799.07,522.48" style="stroke:#181818;stroke-width:1;"/><text fill="#000000" font-family="sans-serif" font-size="13" lengthAdjust="spacing" textLength="119.0249" x="764.76" y="489.4084">expected_outcome</text><text fill="#000000" font-family="sans-serif" font-size="13" lengthAdjust="spacing" textLength="24.667" x="766.0506" y="512.1304">0..1</text></g><!--link Rule to ProgramTemplate--><g class="link" data-entity-1="Rule" data-entity-2="ProgramTemplate" data-source-line="59" data-uid="lnk20" id="link_Rule_ProgramTemplate"><path codeLine="59" d="M702.76,412.77 C755.11,426.1 827.36,447.43 887,475.84 C918.58,490.88 946.4539,509.1261 971.4239,527.2461" fill="none" id="Rule-to-ProgramTemplate" style="stroke:#181818;stroke-width:1;"/><polygon fill="#181818" points="976.28,530.77,971.3451,522.2467,972.2332,527.8334,966.6465,528.7215,976.28,530.77" style="stroke:#181818;stroke-width:1;"/><text fill="#000000" font-family="sans-serif" font-size="13" lengthAdjust="spacing" textLength="48.6421" x="918.61" y="489.4084">process</text><text fill="#000000" font-family="sans-serif" font-size="13" lengthAdjust="spacing" textLength="24.667" x="944.5912" y="520.2805">0..1</text></g><!--link Case to Rule--><g class="link" data-entity-1="Case" data-entity-2="Rule" data-source-line="60" data-uid="lnk21" id="link_Case_Rule"><path codeLine="60" d="M335.47,251.05 C394.36,272.14 461.12,296.28 464,298.39 C471.67,304.02 469.37,309.71 477,315.39 C507.11,337.84 522.49,328.42 556,345.39 C557.68,346.25 554.0673,344.3227 555.7673,345.2227" fill="none" id="Case-to-Rule" style="stroke:#181818;stroke-width:1;"/><polygon fill="#181818" points="561.07,348.03,554.9875,340.2839,556.6511,345.6906,551.2444,347.3542,561.07,348.03" style="stroke:#181818;stroke-width:1;"/><text fill="#000000" font-family="sans-serif" font-size="13" lengthAdjust="spacing" textLength="137.8584" x="478" y="311.9584">considered_templates</text><text fill="#000000" font-family="sans-serif" font-size="13" lengthAdjust="spacing" textLength="22.7119" x="532.3349" y="334.4797">0..*</text></g><!--link Case to Rule--><g class="link" data-entity-1="Case" data-entity-2="Rule" data-source-line="61" data-uid="lnk22" id="link_Case_Rule"><path codeLine="61" d="M292.5,268.79 C312.63,289.1 334.42,309.29 347,315.39 C431.42,356.37 468.13,312.46 556,345.39 C557.77,346.06 554.0055,344.4191 555.7755,345.1691" fill="none" id="Case-to-Rule-1" style="stroke:#181818;stroke-width:1;"/><polygon fill="#181818" points="561.3,347.51,554.5738,340.3157,556.6962,345.5593,551.4526,347.6817,561.3,347.51" style="stroke:#181818;stroke-width:1;"/><text fill="#000000" font-family="sans-serif" font-size="13" lengthAdjust="spacing" textLength="113.7817" x="348" y="311.9584">selected_template</text><text fill="#000000" font-family="sans-serif" font-size="13" lengthAdjust="spacing" textLength="24.667" x="550.1746" y="334.5091">0..1</text></g><!--link ProgramTemplate to Role--><g class="link" data-entity-1="ProgramTemplate" data-entity-2="Role" data-source-line="67" data-uid="lnk24" id="link_ProgramTemplate_Role"><path codeLine="67" d="M1019,598.81 C1019,627.5 1019,663.18 1019,694.05" fill="none" id="ProgramTemplate-to-Role" style="stroke:#181818;stroke-width:1;"/><polygon fill="#181818" points="1019,700.05,1023,691.05,1019,695.05,1015,691.05,1019,700.05" style="stroke:#181818;stroke-width:1;"/><text fill="#000000" font-family="sans-serif" font-size="13" lengthAdjust="spacing" textLength="30.9321" x="1020" y="650.3584">roles</text><text fill="#000000" font-family="sans-serif" font-size="13" lengthAdjust="spacing" textLength="22.7119" x="995.2377" y="689.4114">0..*</text></g><!--link Report to Evaluation--><g class="link" data-entity-1="Report" data-entity-2="Evaluation" data-source-line="75" data-uid="lnk27" id="link_Report_Evaluation"><path codeLine="75" d="M271.4239,416.8318 C302.2539,442.3518 359.2075,489.4948 404.2575,526.7748" fill="none" id="Report-Evaluation" style="stroke:#181818;stroke-width:1;"/><polygon fill="#181818" points="262.18,409.18,264.2514,416.0872,271.4239,416.8318,269.3526,409.9246,262.18,409.18" style="stroke:#181818;stroke-width:1;"/><polygon fill="#181818" points="408.88,530.6,404.4964,521.7805,405.0279,527.4123,399.3961,527.9438,408.88,530.6" style="stroke:#181818;stroke-width:1;"/><text fill="#000000" font-family="sans-serif" font-size="13" lengthAdjust="spacing" textLength="71.4556" x="361.09" y="489.4084">evaluations</text><text fill="#000000" font-family="sans-serif" font-size="13" lengthAdjust="spacing" textLength="22.7119" x="377.203" y="520.2465">0..*</text></g><!--link Report to Narrative--><g class="link" data-entity-1="Report" data-entity-2="Narrative" data-source-line="76" data-uid="lnk28" id="link_Report_Narrative"><path codeLine="76" d="M245.82,409.29 C241.75,453.19 228.6145,594.6157 220.9245,677.4757" fill="none" id="Report-to-Narrative" style="stroke:#181818;stroke-width:1;"/><polygon fill="#181818" points="220.37,683.45,225.1846,674.8582,220.8321,678.4714,217.2188,674.1189,220.37,683.45" style="stroke:#181818;stroke-width:1;"/><text fill="#000000" font-family="sans-serif" font-size="13" lengthAdjust="spacing" textLength="55.6563" x="236.22" y="569.8784">narrative</text><text fill="#000000" font-family="sans-serif" font-size="13" lengthAdjust="spacing" textLength="8.2202" x="212.5501" y="672.9564">1</text></g><!--link Case to Report--><g class="link" data-entity-1="Case" data-entity-2="Report" data-source-line="77" data-uid="lnk29" id="link_Case_Report"><path codeLine="77" d="M260.6711,280.5474 C262.6211,290.3074 261.98,288.74 263,298.39 C266.2,328.54 258.8969,357.8454 253.1369,376.1954" fill="none" id="Case-Report" style="stroke:#181818;stroke-width:1;"/><polygon fill="#181818" points="258.32,268.78,255.5731,275.4474,260.6711,280.5474,263.418,273.88,258.32,268.78" style="stroke:#181818;stroke-width:1;"/><polygon fill="#181818" points="251.34,381.92,257.8518,374.5311,252.8374,377.1495,250.219,372.1351,251.34,381.92" style="stroke:#181818;stroke-width:1;"/><text fill="#000000" font-family="sans-serif" font-size="13" lengthAdjust="spacing" textLength="54.939" x="264.66" y="311.9584">outcome</text><text fill="#000000" font-family="sans-serif" font-size="13" lengthAdjust="spacing" textLength="22.7119" x="227.0139" y="371.7303">0..*</text></g><!--link Case to Report--><g class="link" data-entity-1="Case" data-entity-2="Report" data-source-line="78" data-uid="lnk30" id="link_Case_Report"><path codeLine="78" d="M215.1817,279.7978 C209.9417,294.6678 210.89,299.86 214,315.39 C218.94,340.09 228.9159,361.4062 237.0459,376.6462" fill="none" id="Case-Report-1" style="stroke:#181818;stroke-width:1;"/><polygon fill="#181818" points="219.17,268.48,213.4032,272.8095,215.1817,279.7978,220.9485,275.4683,219.17,268.48" style="stroke:#181818;stroke-width:1;"/><polygon fill="#181818" points="239.87,381.94,239.1631,372.1165,237.5166,377.5285,232.1047,375.882,239.87,381.94" style="stroke:#181818;stroke-width:1;"/><text fill="#000000" font-family="sans-serif" font-size="13" lengthAdjust="spacing" textLength="45.5381" x="215" y="311.9584">reports</text><text fill="#000000" font-family="sans-serif" font-size="13" lengthAdjust="spacing" textLength="22.7119" x="211.3143" y="371.7577">0..*</text></g><!--link ProgramTemplate to ProgramTemplate--><g class="link" data-entity-1="ProgramTemplate" data-entity-2="ProgramTemplate" data-source-line="79" data-uid="lnk31" id="link_ProgramTemplate_ProgramTemplate"><path codeLine="79" d="M1082.37,558.71 C1088.47,559.95 1092.34,561.98 1092.34,564.81 C1092.34,567.64 1094.3516,568.494 1088.2516,569.724" fill="none" id="ProgramTemplate-to-ProgramTemplate" style="stroke:#181818;stroke-width:1;"/><polygon fill="#181818" points="1082.37,570.91,1091.9831,573.0521,1087.2714,569.9217,1090.4018,565.21,1082.37,570.91" style="stroke:#181818;stroke-width:1;"/><text fill="#000000" font-family="sans-serif" font-size="13" lengthAdjust="spacing" textLength="100.0518" x="1098.34" y="569.8784">follows_process</text><text fill="#000000" font-family="sans-serif" font-size="13" lengthAdjust="spacing" textLength="24.667" x="1090.1772" y="584.8966">0..1</text></g><!--link ProgramTemplate to ProgramTemplate--><g class="link" data-entity-1="ProgramTemplate" data-entity-2="ProgramTemplate" data-source-line="80" data-uid="lnk32" id="link_ProgramTemplate_ProgramTemplate"><path codeLine="80" d="M1082.47,551.16 C1136.89,547.1 1204.34,551.65 1204.34,564.81 C1204.34,577.98 1142.8733,582.9775 1088.4533,578.9075" fill="none" id="ProgramTemplate-to-ProgramTemplate-1" style="stroke:#181818;stroke-width:1;"/><polygon fill="#181818" points="1082.47,578.46,1091.1466,583.1201,1087.4561,578.8329,1091.7433,575.1424,1082.47,578.46" style="stroke:#181818;stroke-width:1;"/><text fill="#000000" font-family="sans-serif" font-size="13" lengthAdjust="spacing" textLength="85.3887" x="1210.34" y="569.8784">subprocesses</text><text fill="#000000" font-family="sans-serif" font-size="13" lengthAdjust="spacing" textLength="22.7119" x="1090.1867" y="593.2252">0..*</text></g><!--link ProgramTemplate to Narrative--><g class="link" data-entity-1="ProgramTemplate" data-entity-2="Narrative" data-source-line="81" data-uid="lnk33" id="link_ProgramTemplate_Narrative"><path codeLine="81" d="M970.17,598.92 C963.92,602.04 957.45,604.78 951,606.79 C745.66,670.8 677.57,588.42 468,636.79 C399.59,652.58 331.2585,682.3011 281.1485,706.8411" fill="none" id="ProgramTemplate-to-Narrative" style="stroke:#181818;stroke-width:1;"/><polygon fill="#181818" points="275.76,709.48,285.6021,709.114,280.2504,707.2809,282.0835,701.9293,275.76,709.48" style="stroke:#181818;stroke-width:1;"/><text fill="#000000" font-family="sans-serif" font-size="13" lengthAdjust="spacing" textLength="55.6563" x="469" y="650.3584">narrative</text><text fill="#000000" font-family="sans-serif" font-size="13" lengthAdjust="spacing" textLength="8.2202" x="283.6657" y="702.1588">1</text></g><!--link Narrative to Person--><g class="link" data-entity-1="Narrative" data-entity-2="Person" data-source-line="87" data-uid="lnk35" id="link_Narrative_Person"><path codeLine="87" d="M215,801.12 C215,828.57 215,854.73 215,879.66" fill="none" id="Narrative-to-Person" style="stroke:#181818;stroke-width:1;"/><polygon fill="#181818" points="215,885.66,219,876.66,215,880.66,211,876.66,215,885.66" style="stroke:#181818;stroke-width:1;"/><text fill="#000000" font-family="sans-serif" font-size="13" lengthAdjust="spacing" textLength="48.1089" x="216" y="844.2884">authors</text><text fill="#000000" font-family="sans-serif" font-size="13" lengthAdjust="spacing" textLength="22.7119" x="191.3032" y="875.32">0..*</text></g><!--link OutcomeTemplate to Objective--><g class="link" data-entity-1="OutcomeTemplate" data-entity-2="Objective" data-source-line="92" data-uid="lnk37" id="link_OutcomeTemplate_Objective"><path codeLine="92" d="M786.8109,614.9935 C751.0009,645.7835 716.3991,675.5477 683.1091,704.1777" fill="none" id="OutcomeTemplate-Objective" style="stroke:#181818;stroke-width:1;"/><polygon fill="#181818" points="795.91,607.17,788.7526,608.0487,786.8109,614.9935,793.9683,614.1148,795.91,607.17" style="stroke:#181818;stroke-width:1;"/><polygon fill="#181818" points="678.56,708.09,687.9918,705.2543,682.3509,704.8298,682.7754,699.1889,678.56,708.09" style="stroke:#181818;stroke-width:1;"/><text fill="#000000" font-family="sans-serif" font-size="13" lengthAdjust="spacing" textLength="63.2417" x="761.27" y="650.3584">objectives</text><text fill="#000000" font-family="sans-serif" font-size="13" lengthAdjust="spacing" textLength="22.7119" x="661.8812" y="697.7461">0..*</text></g><!--link Organization to Case--><g class="link" data-entity-1="Organization" data-entity-2="Case" data-source-line="93" data-uid="lnk38" id="link_Organization_Case"><path codeLine="93" d="M260,91.25 C255.53,100.72 251.5,110.96 249,120.95 C245.28,135.87 243.9625,146.4913 243.6525,161.6713" fill="none" id="Organization-to-Case" style="stroke:#181818;stroke-width:1;"/><polygon fill="#181818" points="243.53,167.67,247.7129,158.7535,243.6321,162.671,239.7146,158.5902,243.53,167.67" style="stroke:#181818;stroke-width:1;"/><text fill="#000000" font-family="sans-serif" font-size="13" lengthAdjust="spacing" textLength="59.4585" x="250" y="134.5184">casebook</text><text fill="#000000" font-family="sans-serif" font-size="13" lengthAdjust="spacing" textLength="22.7119" x="219.6858" y="157.1038">0..*</text></g><!--link Organization to Organization--><g class="link" data-entity-1="Organization" data-entity-2="Organization" data-source-line="94" data-uid="lnk39" id="link_Organization_Organization"><path codeLine="94" d="M387.16,38.66 C393.18,41.14 396.78,44.58 396.78,48.98 C396.78,53.38 398.7309,54.5425 392.7109,57.0125" fill="none" id="Organization-to-Organization" style="stroke:#181818;stroke-width:1;"/><polygon fill="#181818" points="387.16,59.29,397.0048,59.5743,391.7858,57.392,393.968,52.1731,387.16,59.29" style="stroke:#181818;stroke-width:1;"/><text fill="#000000" font-family="sans-serif" font-size="13" lengthAdjust="spacing" textLength="54.2598" x="402.78" y="54.0484">subunits</text><text fill="#000000" font-family="sans-serif" font-size="13" lengthAdjust="spacing" textLength="22.7119" x="394.8543" y="73.0656">0..*</text></g><!--link Organization to Narrative--><g class="link" data-entity-1="Organization" data-entity-2="Narrative" data-source-line="95" data-uid="lnk40" id="link_Organization_Narrative"><path codeLine="95" d="M180.88,68.68 C101.76,89.67 6,132.55 6,217.17 C6,217.17 6,217.17 6,565.81 C6,643.86 87.0278,691.7872 148.7378,717.6972" fill="none" id="Organization-to-Narrative" style="stroke:#181818;stroke-width:1;"/><polygon fill="#181818" points="154.27,720.02,147.5203,712.8477,149.6599,718.0844,144.4233,720.2239,154.27,720.02" style="stroke:#181818;stroke-width:1;"/><text fill="#000000" font-family="sans-serif" font-size="13" lengthAdjust="spacing" textLength="91.3872" x="7" y="400.6884">base_narrative</text><text fill="#000000" font-family="sans-serif" font-size="13" lengthAdjust="spacing" textLength="24.667" x="121.8988" y="714.1682">0..1</text></g><!--link Objective to Criterion--><g class="link" data-entity-1="Objective" data-entity-2="Criterion" data-source-line="102" data-uid="lnk42" id="link_Objective_Criterion"><path codeLine="102" d="M640,776.09 C640,804.26 640,839.28 640,871.43" fill="none" id="Objective-to-Criterion" style="stroke:#181818;stroke-width:1;"/><polygon fill="#181818" points="640,877.43,644,868.43,640,872.43,636,868.43,640,877.43" style="stroke:#181818;stroke-width:1;"/><text fill="#000000" font-family="sans-serif" font-size="13" lengthAdjust="spacing" textLength="63.229" x="641" y="844.2884">addresses</text><text fill="#000000" font-family="sans-serif" font-size="13" lengthAdjust="spacing" textLength="8.2202" x="631.4535" y="866.8624">1</text></g><!--link Evaluation to Objective--><g class="link" data-entity-1="Evaluation" data-entity-2="Objective" data-source-line="103" data-uid="lnk43" id="link_Evaluation_Objective"><path codeLine="103" d="M493.7672,606.9281 C527.8072,638.1981 565.401,672.7314 599.491,704.0414" fill="none" id="Evaluation-Objective" style="stroke:#181818;stroke-width:1;"/><polygon fill="#181818" points="484.93,598.81,486.6426,605.8148,493.7672,606.9281,492.0546,599.9233,484.93,598.81" style="stroke:#181818;stroke-width:1;"/><polygon fill="#181818" points="603.91,708.1,599.9873,699.0661,600.2275,704.7178,594.5758,704.9581,603.91,708.1" style="stroke:#181818;stroke-width:1;"/><text fill="#000000" font-family="sans-serif" font-size="13" lengthAdjust="spacing" textLength="56.6147" x="545.5" y="650.3584">objective</text><text fill="#000000" font-family="sans-serif" font-size="13" lengthAdjust="spacing" textLength="8.2202" x="588.2886" y="697.758">1</text></g><!--link Case to Narrative--><g class="link" data-entity-1="Case" data-entity-2="Narrative" data-source-line="104" data-uid="lnk44" id="link_Case_Narrative"><path codeLine="104" d="M220.79,268.47 C216.82,278.17 213.28,288.43 211,298.39 C180.09,433.5 193.9001,591.9522 205.2501,677.4122" fill="none" id="Case-to-Narrative" style="stroke:#181818;stroke-width:1;"/><polygon fill="#181818" points="206.04,683.36,208.8203,673.9117,205.3817,678.4035,200.8899,674.965,206.04,683.36" style="stroke:#181818;stroke-width:1;"/><text fill="#000000" font-family="sans-serif" font-size="13" lengthAdjust="spacing" textLength="29.2817" x="193.51" y="489.4084">brief</text><text fill="#000000" font-family="sans-serif" font-size="13" lengthAdjust="spacing" textLength="22.7119" x="181.6504" y="672.8554">1..*</text></g><!--link Case to Narrative--><g class="link" data-entity-1="Case" data-entity-2="Narrative" data-source-line="105" data-uid="lnk45" id="link_Case_Narrative"><path codeLine="105" d="M214.45,268.86 C184.75,318.88 142.44,399.37 126,475.84 C110.24,549.13 142.7827,625.2681 173.5227,678.3381" fill="none" id="Case-to-Narrative-1" style="stroke:#181818;stroke-width:1;"/><polygon fill="#181818" points="176.53,683.53,175.4803,673.7372,174.0239,679.2034,168.5577,677.747,176.53,683.53" style="stroke:#181818;stroke-width:1;"/><text fill="#000000" font-family="sans-serif" font-size="13" lengthAdjust="spacing" textLength="62.2832" x="127" y="489.4084">narratives</text><text fill="#000000" font-family="sans-serif" font-size="13" lengthAdjust="spacing" textLength="22.7119" x="148.5439" y="673.0461">0..*</text></g><!--SRC=[lLTDRnit4BtxLmnqQMB4GdpDeK0Gv90Mi8Cwjo0LkBiZYJMN54YkNCNmV-yZkTmFhLQj4JS-YSiPScRUUpEqkvTw9woeIPkA7U_e-kt5LbPCfRIbulIRwvq_KCrrmTPTYC9vAqfFYo_OKCBpWhv-VNnFhjnoBSXlXQTIQ2gOn6wd95Va3GbotjZ3qxTlz7X1-7jSIrRL4ycAtf4kjQYPQBIpimOtOnSNIhqvsatNhIfUm-AtkzkRktG_NJnTb4euHuiROQtmSfyZr7bDIBQqSkUbqMJMnD9lsIB6qkZIicSoMBM98luFmiLFdwtPe5evyILzWHldR6kX3_qTRlcSN9qNld7OlKi_nhiFMzROgt2dbnDVBxtYkJ8X8yzwLCMkFdVIDoBK89KkLkd6Q3uL-2lv-ZnEoU1Ve4f6fz6wRNnfQZvYbM-NYLS9ju9Tm0fVDw1K0D0aNte0M__UCTW9Os1AhAkmBm9q9JkNJtz30ZliO2k5KeTeZACzMod2CJAKBJAtPk4Qe3m-CVpSfJENFxbU0-5TNVrAY-l5YEhlQD6HS34q_lFgQehvnE0OXWpF7urAc83pywXerCS34mbTDHQgS1xvGaMo13h6tXV6tBy9h7JI-P1wG4VJgrvjhydb60CGuJIWu8pQjwWDIZz6ge5Aiob9_om1naypU0oxnOp9j5S1frIoYD7RvJB0D54SmEgoNRaMaa75GxboVsKVYcNnrKqpcpQGNbXs8xJy7kz8Pm6SmRVGNi3l7RexO8aelLJbQkbSpCo7riNrf1CDainrkbnaig4uCLkGT9p3PSVxtXt6aLKLSgbMp_ApUP4hTjJdEzg3durGG_8zIAN6l1EqWV1qC2eKrpz4mWx2C82wA6R767GaTINtiWfH1XofqTA7EBS2vZ70AWooNZFnsuif1TKNIdxdu8oAAaP8OuksKw-45kg07j2sjpd1T4HmJU0dLy2sE2nEcKxc1xpIC81FU-r9nmdQS6mXXdqg_Kbo3lYM6-BKOvm5gnIFdxHNe_B8o_IIUX_0SLIozG8T5VGprX4S3w7q-RE5Qx0UpIGyJL3SlZE7lMZuVtT5m3WfwAXw9alRH8dc_7bdh6yhOECYlbsGO1ZsFUVZtDuBbNfcsmbxfNpijZgzzDQjIBhN0fvzkCl51mEqWATF7krj2hyu-j0-2gPb2yU6wgoLmH0S5qUKMydx8nq4XhTfNWvBCemvaBRFRj5x_8THduWtEZfxmxANm7cxLFnmzIoESwfP6wNCWrlrwZbBXLD7kAPelNdU_smPSW-FuonBAYwoegeW5f6byb9wmEYMwaW9Wo17YRUn8N3H-2r4tOLzM_m5DkR_MKw_nZ5DTIKikjfw5SboxcNYjs3urgXgm5H4DkcM8peCeWZCoQlfH1qw9Lg5leWVQPwUiHxl9EJ3j9g_OufwWOjMK-XRoNRe7u_9_D37iZZWzIFBRUu9BatqekiQN2tfutApfFVq- -TF94Cpwix_cI_CECd7x1gWrCbYa7jWLrNPBALXb-aVGZD8ZyVOTOBigFXMylhaW9oHfbly0m00]--></g></svg>