<svg xmlns="http://www.w3.org/2000/svg" xmlns:xlink="http://www.w3.org/1999/xlink" contentStyleType="text/css" data-diagram-type="CLASS" height="646px" preserveAspectRatio="none" style="width:1086px;height:646px;background:#FFFFFF;" version="1.1" viewBox="0 0 1086 646" width="1086px" zoomAndPan="magnify"><defs/><g><!--class Process--><a href="" target="_top" title="None" xlink:actuate="onRequest" xlink:href="" xlink:show="new" xlink:title="None" xlink:type="simple"><g class="entity" data-entity="Process" data-source-line="4" data-uid="ent0002" id="entity_Process"><rect fill="#F1F1F1" height="100.4414" rx="2.5" ry="2.5" style="stroke:#181818;stroke-width:0.5;" width="140.9326" x="7" y="370.13"/><text fill="#000000" font-family="sans-serif" font-size="14" lengthAdjust="spacing" textLength="51.3105" x="51.811" y="388.6652">Process</text><line style="stroke:#181818;stroke-width:0.5;" x1="8" x2="146.9326" y1="396.6183" y2="396.6183"/><text fill="#000000" font-family="sans-serif" font-size="14" lengthAdjust="spacing" textLength="59.582" x="13" y="414.1534">id : curie</text><text fill="#000000" font-family="sans-serif" font-size="14" lengthAdjust="spacing" textLength="90.1455" x="13" y="430.6417">name : string</text><text fill="#000000" font-family="sans-serif" font-size="14" lengthAdjust="spacing" textLength="128.9326" x="13" y="447.13">description : string</text><text fill="#000000" font-family="sans-serif" font-size="14" lengthAdjust="spacing" textLength="96.0244" x="13" y="463.6183">status : Status</text></g></a><!--class Role--><a href="" target="_top" title="None" xlink:actuate="onRequest" xlink:href="" xlink:show="new" xlink:title="None" xlink:type="simple"><g class="entity" data-entity="Role" data-source-line="10" data-uid="ent0003" id="entity_Role"><rect fill="#F1F1F1" height="83.9531" rx="2.5" ry="2.5" style="stroke:#181818;stroke-width:0.5;" width="140.9326" x="7" y="555.82"/><text fill="#000000" font-family="sans-serif" font-size="14" lengthAdjust="spacing" textLength="29.2988" x="62.8169" y="574.3552">Role</text><line style="stroke:#181818;stroke-width:0.5;" x1="8" x2="146.9326" y1="582.3083" y2="582.3083"/><text fill="#000000" font-family="sans-serif" font-size="14" lengthAdjust="spacing" textLength="59.582" x="13" y="599.8434">id : curie</text><text fill="#000000" font-family="sans-serif" font-size="14" lengthAdjust="spacing" textLength="90.1455" x="13" y="616.3317">name : string</text><text fill="#000000" font-family="sans-serif" font-size="14" lengthAdjust="spacing" textLength="128.9326" x="13" y="632.82">description : string</text></g></a><!--class Person--><a href="" target="_top" title="None" xlink:actuate="onRequest" xlink:href="" xlink:show="new" xlink:title="None" xlink:type="simple"><g class="entity" data-entity="Person" data-source-line="16" data-uid="ent0005" id="entity_Person"><rect fill="#F1F1F1" height="83.9531" rx="2.5" ry="2.5" style="stroke:#181818;stroke-width:0.5;" width="102.1455" x="361.39" y="555.82"/><text fill="#000000" font-family="sans-serif" font-size="14" lengthAdjust="spacing" textLength="45.6914" x="389.6171" y="574.3552">Person</text><line style="stroke:#181818;stroke-width:0.5;" x1="362.39" x2="462.5355" y1="582.3083" y2="582.3083"/><text fill="#000000" font-family="sans-serif" font-size="14" lengthAdjust="spacing" textLength="59.582" x="367.39" y="599.8434">id : curie</text><text fill="#000000" font-family="sans-serif" font-size="14" lengthAdjust="spacing" textLength="90.1455" x="367.39" y="616.3317">name : string</text><text fill="#000000" font-family="sans-serif" font-size="14" lengthAdjust="spacing" textLength="89.5508" x="367.39" y="632.82">email : string</text></g></a><!--class CaseTemplate--><a href="" target="_top" title="None" xlink:actuate="onRequest" xlink:href="" xlink:show="new" xlink:title="None" xlink:type="simple"><g class="entity" data-entity="CaseTemplate" data-source-line="21" data-uid="ent0006" id="entity_CaseTemplate"><rect fill="#F1F1F1" height="133.418" rx="2.5" ry="2.5" style="stroke:#181818;stroke-width:0.5;" width="190.7598" x="366.09" y="151.47"/><text fill="#000000" font-family="sans-serif" font-size="14" lengthAdjust="spacing" textLength="95.7031" x="413.6183" y="170.0052">CaseTemplate</text><line style="stroke:#181818;stroke-width:0.5;" x1="367.09" x2="555.8498" y1="177.9583" y2="177.9583"/><text fill="#000000" font-family="sans-serif" font-size="14" lengthAdjust="spacing" textLength="59.582" x="372.09" y="195.4934">id : curie</text><text fill="#000000" font-family="sans-serif" font-size="14" lengthAdjust="spacing" textLength="90.1455" x="372.09" y="211.9817">name : string</text><text fill="#000000" font-family="sans-serif" font-size="14" lengthAdjust="spacing" textLength="128.9326" x="372.09" y="228.47">description : string</text><text fill="#000000" font-family="sans-serif" font-size="14" lengthAdjust="spacing" textLength="96.0244" x="372.09" y="244.9583">status : Status</text><text fill="#000000" font-family="sans-serif" font-size="14" lengthAdjust="spacing" textLength="178.7598" x="372.09" y="261.4466">schema_def : JSONSchema</text><text fill="#000000" font-family="sans-serif" font-size="14" lengthAdjust="spacing" textLength="103.1133" x="372.09" y="277.9348">prompt : string</text></g></a><!--class Narrative--><a href="" target="_top" title="None" xlink:actuate="onRequest" xlink:href="" xlink:show="new" xlink:title="None" xlink:type="simple"><g class="entity" data-entity="Narrative" data-source-line="33" data-uid="ent0011" id="entity_Narrative"><rect fill="#F1F1F1" height="116.9297" rx="2.5" ry="2.5" style="stroke:#181818;stroke-width:0.5;" width="120.9854" x="756.97" y="361.89"/><text fill="#000000" font-family="sans-serif" font-size="14" lengthAdjust="spacing" textLength="61.5918" x="786.6668" y="380.4252">Narrative</text><line style="stroke:#181818;stroke-width:0.5;" x1="757.97" x2="876.9554" y1="388.3783" y2="388.3783"/><text fill="#000000" font-family="sans-serif" font-size="14" lengthAdjust="spacing" textLength="59.582" x="762.97" y="405.9134">id : curie</text><text fill="#000000" font-family="sans-serif" font-size="14" lengthAdjust="spacing" textLength="96.0244" x="762.97" y="422.4017">status : Status</text><text fill="#000000" font-family="sans-serif" font-size="14" lengthAdjust="spacing" textLength="108.9854" x="762.97" y="438.89">when : datetime</text><text fill="#000000" font-family="sans-serif" font-size="14" lengthAdjust="spacing" textLength="79.2217" x="762.97" y="455.3783">title : string</text><text fill="#000000" font-family="sans-serif" font-size="14" lengthAdjust="spacing" textLength="104.2754" x="762.97" y="471.8666">content : string</text></g></a><!--class OutcomeTemplate--><a href="" target="_top" title="None" xlink:actuate="onRequest" xlink:href="" xlink:show="new" xlink:title="None" xlink:type="simple"><g class="entity" data-entity="OutcomeTemplate" data-source-line="42" data-uid="ent0014" id="entity_OutcomeTemplate"><rect fill="#F1F1F1" height="83.9531" rx="2.5" ry="2.5" style="stroke:#181818;stroke-width:0.5;" width="190.7598" x="472.09" y="378.38"/><text fill="#000000" font-family="sans-serif" font-size="14" lengthAdjust="spacing" textLength="124.79" x="505.0749" y="396.9152">OutcomeTemplate</text><line style="stroke:#181818;stroke-width:0.5;" x1="473.09" x2="661.8498" y1="404.8683" y2="404.8683"/><text fill="#000000" font-family="sans-serif" font-size="14" lengthAdjust="spacing" textLength="59.582" x="478.09" y="422.4034">id : curie</text><text fill="#000000" font-family="sans-serif" font-size="14" lengthAdjust="spacing" textLength="103.1133" x="478.09" y="438.8917">prompt : string</text><text fill="#000000" font-family="sans-serif" font-size="14" lengthAdjust="spacing" textLength="178.7598" x="478.09" y="455.38">schema_def : JSONSchema</text></g></a><!--class Organization--><a href="" target="_top" title="None" xlink:actuate="onRequest" xlink:href="" xlink:show="new" xlink:title="None" xlink:type="simple"><g class="entity" data-entity="Organization" data-source-line="48" data-uid="ent0016" id="entity_Organization"><rect fill="#F1F1F1" height="67.4648" rx="2.5" ry="2.5" style="stroke:#181818;stroke-width:0.5;" width="102.1455" x="683.39" y="7"/><text fill="#000000" font-family="sans-serif" font-size="14" lengthAdjust="spacing" textLength="88.1289" x="690.3983" y="25.5352">Organization</text><line style="stroke:#181818;stroke-width:0.5;" x1="684.39" x2="784.5355" y1="33.4883" y2="33.4883"/><text fill="#000000" font-family="sans-serif" font-size="14" lengthAdjust="spacing" textLength="59.582" x="689.39" y="51.0234">id : curie</text><text fill="#000000" font-family="sans-serif" font-size="14" lengthAdjust="spacing" textLength="90.1455" x="689.39" y="67.5117">name : string</text></g></a><!--class Case--><a href="" target="_top" title="None" xlink:actuate="onRequest" xlink:href="" xlink:show="new" xlink:title="None" xlink:type="simple"><g class="entity" data-entity="Case" data-source-line="52" data-uid="ent0017" id="entity_Case"><rect fill="#F1F1F1" height="83.9531" rx="2.5" ry="2.5" style="stroke:#181818;stroke-width:0.5;" width="178.4004" x="827.27" y="176.2"/><text fill="#000000" font-family="sans-serif" font-size="14" lengthAdjust="spacing" textLength="32.3545" x="900.2929" y="194.7352">Case</text><line style="stroke:#181818;stroke-width:0.5;" x1="828.27" x2="1004.6704" y1="202.6883" y2="202.6883"/><text fill="#000000" font-family="sans-serif" font-size="14" lengthAdjust="spacing" textLength="59.582" x="833.27" y="220.2234">id : curie</text><text fill="#000000" font-family="sans-serif" font-size="14" lengthAdjust="spacing" textLength="90.1455" x="833.27" y="236.7117">name : string</text><text fill="#000000" font-family="sans-serif" font-size="14" lengthAdjust="spacing" textLength="166.4004" x="833.27" y="253.2">outcome_analysis : JSON</text></g></a><!--class Evaluation--><a href="" target="_top" title="None" xlink:actuate="onRequest" xlink:href="" xlink:show="new" xlink:title="None" xlink:type="simple"><g class="entity" data-entity="Evaluation" data-source-line="64" data-uid="ent0025" id="entity_Evaluation"><rect fill="#F1F1F1" height="50.9766" rx="2.5" ry="2.5" style="stroke:#181818;stroke-width:0.5;" width="91.5635" x="929.68" y="394.86"/><text fill="#000000" font-family="sans-serif" font-size="14" lengthAdjust="spacing" textLength="69.6035" x="940.66" y="413.3952">Evaluation</text><line style="stroke:#181818;stroke-width:0.5;" x1="930.68" x2="1020.2435" y1="421.3483" y2="421.3483"/><text fill="#000000" font-family="sans-serif" font-size="14" lengthAdjust="spacing" textLength="79.5635" x="935.68" y="438.8834">value : float</text></g></a><!--class Criterion--><a href="" target="_top" title="None" xlink:actuate="onRequest" xlink:href="" xlink:show="new" xlink:title="None" xlink:type="simple"><g class="entity" data-entity="Criterion" data-source-line="67" data-uid="ent0026" id="entity_Criterion"><rect fill="#F1F1F1" height="83.9531" rx="2.5" ry="2.5" style="stroke:#181818;stroke-width:0.5;" width="140.9326" x="731" y="555.82"/><text fill="#000000" font-family="sans-serif" font-size="14" lengthAdjust="spacing" textLength="59.5615" x="771.6855" y="574.3552">Criterion</text><line style="stroke:#181818;stroke-width:0.5;" x1="732" x2="870.9326" y1="582.3083" y2="582.3083"/><text fill="#000000" font-family="sans-serif" font-size="14" lengthAdjust="spacing" textLength="59.582" x="737" y="599.8434">id : curie</text><text fill="#000000" font-family="sans-serif" font-size="14" lengthAdjust="spacing" textLength="90.1455" x="737" y="616.3317">name : string</text><text fill="#000000" font-family="sans-serif" font-size="14" lengthAdjust="spacing" textLength="128.9326" x="737" y="632.82">description : string</text></g></a><!--link Process to Role--><g class="link" data-entity-1="Process" data-entity-2="Role" data-source-line="15" data-uid="lnk4" id="link_Process_Role"><path codeLine="15" d="M77.47,470.69 C77.47,497.45 77.47,524.14 77.47,549.53" fill="none" id="Process-to-Role" style="stroke:#181818;stroke-width:1;"/><polygon fill="#181818" points="77.47,555.53,81.47,546.53,77.47,550.53,73.47,546.53,77.47,555.53" style="stroke:#181818;stroke-width:1;"/><text fill="#000000" font-family="sans-serif" font-size="13" lengthAdjust="spacing" textLength="30.9321" x="78.47" y="522.3884">roles</text><text fill="#000000" font-family="sans-serif" font-size="13" lengthAdjust="spacing" textLength="22.7119" x="53.7742" y="545.1916">0..*</text></g><!--link Process to Process--><g class="link" data-entity-1="Process" data-entity-2="Process" data-source-line="29" data-uid="lnk7" id="link_Process_Process"><path codeLine="29" d="M148.35,413.33 C154.26,414.84 157.93,417.18 157.93,420.35 C157.93,423.52 160.0733,424.3847 154.1633,425.8947" fill="none" id="Process-to-Process" style="stroke:#181818;stroke-width:1;"/><polygon fill="#181818" points="148.35,427.38,158.0601,429.0276,153.1944,426.1423,156.0797,421.2766,148.35,427.38" style="stroke:#181818;stroke-width:1;"/><text fill="#000000" font-family="sans-serif" font-size="13" lengthAdjust="spacing" textLength="100.0518" x="163.93" y="425.4184">follows_process</text><text fill="#000000" font-family="sans-serif" font-size="13" lengthAdjust="spacing" textLength="24.667" x="156.0216" y="441.3021">0..1</text></g><!--link Process to Process--><g class="link" data-entity-1="Process" data-entity-2="Process" data-source-line="30" data-uid="lnk8" id="link_Process_Process"><path codeLine="30" d="M148.28,403.55 C203.93,399.29 269.93,404.89 269.93,420.35 C269.93,435.81 209.9125,441.868 154.2625,437.608" fill="none" id="Process-to-Process-1" style="stroke:#181818;stroke-width:1;"/><polygon fill="#181818" points="148.28,437.15,156.9484,441.8253,153.2654,437.5316,157.5591,433.8486,148.28,437.15" style="stroke:#181818;stroke-width:1;"/><text fill="#000000" font-family="sans-serif" font-size="13" lengthAdjust="spacing" textLength="85.3887" x="275.93" y="425.4184">subprocesses</text><text fill="#000000" font-family="sans-serif" font-size="13" lengthAdjust="spacing" textLength="22.7119" x="155.855" y="451.9728">0..*</text></g><!--link Process to Person--><g class="link" data-entity-1="Process" data-entity-2="Person" data-source-line="31" data-uid="lnk9" id="link_Process_Person"><path codeLine="31" d="M148.1,458.34 C211.83,491.72 298.7548,537.2464 355.7348,567.0864" fill="none" id="Process-to-Person" style="stroke:#181818;stroke-width:1;"/><polygon fill="#181818" points="361.05,569.87,354.9328,562.1512,356.6206,567.5504,351.2214,569.2382,361.05,569.87" style="stroke:#181818;stroke-width:1;"/><text fill="#000000" font-family="sans-serif" font-size="13" lengthAdjust="spacing" textLength="48.1089" x="275.97" y="522.3884">authors</text><text fill="#000000" font-family="sans-serif" font-size="13" lengthAdjust="spacing" textLength="22.7119" x="330.7111" y="562.6988">0..*</text></g><!--link CaseTemplate to Process--><g class="link" data-entity-1="CaseTemplate" data-entity-2="Process" data-source-line="32" data-uid="lnk10" id="link_CaseTemplate_Process"><path codeLine="32" d="M366.05,268.92 C298.53,304.12 214.7704,347.7764 153.5404,379.6964" fill="none" id="CaseTemplate-to-Process" style="stroke:#181818;stroke-width:1;"/><polygon fill="#181818" points="148.22,382.47,158.0497,381.8565,152.6537,380.1587,154.3516,374.7626,148.22,382.47" style="stroke:#181818;stroke-width:1;"/><text fill="#000000" font-family="sans-serif" font-size="13" lengthAdjust="spacing" textLength="48.6421" x="270.47" y="328.4584">process</text><text fill="#000000" font-family="sans-serif" font-size="13" lengthAdjust="spacing" textLength="24.667" x="155.8796" y="375.8691">0..1</text></g><!--link CaseTemplate to Person--><g class="link" data-entity-1="CaseTemplate" data-entity-2="Person" data-source-line="40" data-uid="lnk12" id="link_CaseTemplate_Person"><path codeLine="40" d="M436.97,285.06 C429.22,308.92 421.6,336.29 417.47,361.89 C406.63,428.94 407.5107,502.146 409.6307,549.326" fill="none" id="CaseTemplate-to-Person" style="stroke:#181818;stroke-width:1;"/><polygon fill="#181818" points="409.9,555.32,413.492,546.1495,409.6756,550.325,405.5,546.5086,409.9,555.32" style="stroke:#181818;stroke-width:1;"/><text fill="#000000" font-family="sans-serif" font-size="13" lengthAdjust="spacing" textLength="48.1089" x="418.47" y="425.4184">authors</text><text fill="#000000" font-family="sans-serif" font-size="13" lengthAdjust="spacing" textLength="22.7119" x="385.7952" y="544.9481">0..*</text></g><!--link Narrative to Person--><g class="link" data-entity-1="Narrative" data-entity-2="Person" data-source-line="41" data-uid="lnk13" id="link_Narrative_Person"><path codeLine="41" d="M756.69,474.43 C754.29,475.97 751.88,477.44 749.47,478.82 C655.15,532.72 537.8531,566.6636 469.5731,583.6236" fill="none" id="Narrative-to-Person" style="stroke:#181818;stroke-width:1;"/><polygon fill="#181818" points="463.75,585.07,473.4488,586.7825,468.6025,583.8647,471.5203,579.0184,463.75,585.07" style="stroke:#181818;stroke-width:1;"/><text fill="#000000" font-family="sans-serif" font-size="13" lengthAdjust="spacing" textLength="48.1089" x="689.7" y="522.3884">authors</text><text fill="#000000" font-family="sans-serif" font-size="13" lengthAdjust="spacing" textLength="22.7119" x="471.3846" y="580.1922">0..*</text></g><!--link CaseTemplate to OutcomeTemplate--><g class="link" data-entity-1="CaseTemplate" data-entity-2="OutcomeTemplate" data-source-line="47" data-uid="lnk15" id="link_CaseTemplate_OutcomeTemplate"><path codeLine="47" d="M496.47,285.28 C512.69,315.91 528.6522,346.0575 542.8222,372.8175" fill="none" id="CaseTemplate-to-OutcomeTemplate" style="stroke:#181818;stroke-width:1;"/><polygon fill="#181818" points="545.63,378.12,544.9533,368.2944,543.2902,373.7013,537.8833,372.0381,545.63,378.12" style="stroke:#181818;stroke-width:1;"/><text fill="#000000" font-family="sans-serif" font-size="13" lengthAdjust="spacing" textLength="119.0249" x="521.81" y="328.4584">expected_outcome</text><text fill="#000000" font-family="sans-serif" font-size="13" lengthAdjust="spacing" textLength="24.667" x="516.2899" y="367.7863">0..1</text></g><!--link Organization to Case--><g class="link" data-entity-1="Organization" data-entity-2="Case" data-source-line="57" data-uid="lnk18" id="link_Organization_Case"><path codeLine="57" d="M768.7,74.74 C798.46,103.42 837.3799,140.9463 869.4099,171.8163" fill="none" id="Organization-to-Case" style="stroke:#181818;stroke-width:1;"/><polygon fill="#181818" points="873.73,175.98,870.0256,166.8544,870.1299,172.5103,864.474,172.6146,873.73,175.98" style="stroke:#181818;stroke-width:1;"/><text fill="#000000" font-family="sans-serif" font-size="13" lengthAdjust="spacing" textLength="34.3345" x="815.57" y="118.0384">cases</text><text fill="#000000" font-family="sans-serif" font-size="13" lengthAdjust="spacing" textLength="22.7119" x="842.8882" y="165.3431">0..*</text></g><!--link Organization to Organization--><g class="link" data-entity-1="Organization" data-entity-2="Organization" data-source-line="58" data-uid="lnk19" id="link_Organization_Organization"><path codeLine="58" d="M785.93,29.26 C791.76,31.41 795.54,35.23 795.54,40.74 C795.54,46.24 797.3894,47.984 791.5594,50.134" fill="none" id="Organization-to-Organization" style="stroke:#181818;stroke-width:1;"/><polygon fill="#181818" points="785.93,52.21,795.7581,52.8489,790.6212,50.48,792.9901,45.343,785.93,52.21" style="stroke:#181818;stroke-width:1;"/><text fill="#000000" font-family="sans-serif" font-size="13" lengthAdjust="spacing" textLength="54.2598" x="801.54" y="45.8084">subunits</text><text fill="#000000" font-family="sans-serif" font-size="13" lengthAdjust="spacing" textLength="22.7119" x="793.5866" y="67.1102">0..*</text></g><!--link Organization to Narrative--><g class="link" data-entity-1="Organization" data-entity-2="Narrative" data-source-line="59" data-uid="lnk20" id="link_Organization_Narrative"><path codeLine="59" d="M728.42,74.59 C720.91,121.9 711.18,211.56 729.47,284.89 C736.32,312.36 748.0911,334.3016 764.0111,356.6716" fill="none" id="Organization-to-Narrative" style="stroke:#181818;stroke-width:1;"/><polygon fill="#181818" points="767.49,361.56,765.5305,351.908,764.5909,357.4863,759.0126,356.5466,767.49,361.56" style="stroke:#181818;stroke-width:1;"/><text fill="#000000" font-family="sans-serif" font-size="13" lengthAdjust="spacing" textLength="91.3872" x="730.47" y="223.2484">base_narrative</text><text fill="#000000" font-family="sans-serif" font-size="13" lengthAdjust="spacing" textLength="24.667" x="762.9027" y="351.0676">0..1</text></g><!--link Case to Narrative--><g class="link" data-entity-1="Case" data-entity-2="Narrative" data-source-line="60" data-uid="lnk21" id="link_Case_Narrative"><path codeLine="60" d="M857.68,260.62 C845.24,268.93 832.05,277.4 819.47,284.89 C794.52,299.72 776.55,290.1 761.47,314.89 C752.43,329.74 752.6571,340.8649 760.7671,356.2149" fill="none" id="Case-to-Narrative" style="stroke:#181818;stroke-width:1;"/><polygon fill="#181818" points="763.57,361.52,762.9024,351.6938,761.2343,357.0991,755.829,355.431,763.57,361.52" style="stroke:#181818;stroke-width:1;"/><text fill="#000000" font-family="sans-serif" font-size="13" lengthAdjust="spacing" textLength="29.2817" x="762.47" y="328.4584">brief</text><text fill="#000000" font-family="sans-serif" font-size="13" lengthAdjust="spacing" textLength="22.7119" x="733.7046" y="351.0227">0..*</text></g><!--link Case to Narrative--><g class="link" data-entity-1="Case" data-entity-2="Narrative" data-source-line="61" data-uid="lnk22" id="link_Case_Narrative"><path codeLine="61" d="M851.63,260.46 C833.97,275.28 817.07,293.67 807.47,314.89 C800.97,329.24 799.4015,339.8599 800.9715,355.5199" fill="none" id="Case-to-Narrative-1" style="stroke:#181818;stroke-width:1;"/><polygon fill="#181818" points="801.57,361.49,804.6522,352.1359,801.0712,356.5149,796.6922,352.9339,801.57,361.49" style="stroke:#181818;stroke-width:1;"/><text fill="#000000" font-family="sans-serif" font-size="13" lengthAdjust="spacing" textLength="54.939" x="808.47" y="328.4584">outcome</text><text fill="#000000" font-family="sans-serif" font-size="13" lengthAdjust="spacing" textLength="22.7119" x="801.0171" y="350.9891">0..*</text></g><!--link Case to Narrative--><g class="link" data-entity-1="Case" data-entity-2="Narrative" data-source-line="62" data-uid="lnk23" id="link_Case_Narrative"><path codeLine="62" d="M896.47,260.46 C886.09,281.81 873.16,308.28 861.47,331.89 C856.71,341.48 854.3176,346.2856 849.3676,356.1656" fill="none" id="Case-to-Narrative-2" style="stroke:#181818;stroke-width:1;"/><polygon fill="#181818" points="846.68,361.53,854.2877,355.2752,848.9197,357.0597,847.1352,351.6917,846.68,361.53" style="stroke:#181818;stroke-width:1;"/><text fill="#000000" font-family="sans-serif" font-size="13" lengthAdjust="spacing" textLength="45.5381" x="870.02" y="328.4584">reports</text><text fill="#000000" font-family="sans-serif" font-size="13" lengthAdjust="spacing" textLength="22.7119" x="826.9436" y="351.0339">0..*</text></g><!--link Case to Narrative--><g class="link" data-entity-1="Case" data-entity-2="Narrative" data-source-line="63" data-uid="lnk24" id="link_Case_Narrative"><path codeLine="63" d="M925.56,260.57 C928.4,282.68 928.55,309.81 918.47,331.89 C909.69,351.09 899.0065,363.8455 882.9265,377.2655" fill="none" id="Case-to-Narrative-3" style="stroke:#181818;stroke-width:1;"/><polygon fill="#181818" points="878.32,381.11,887.7928,378.4143,882.1588,377.9063,882.6668,372.2723,878.32,381.11" style="stroke:#181818;stroke-width:1;"/><text fill="#000000" font-family="sans-serif" font-size="13" lengthAdjust="spacing" textLength="62.2832" x="924.47" y="328.4584">narratives</text><text fill="#000000" font-family="sans-serif" font-size="13" lengthAdjust="spacing" textLength="22.7119" x="885.767" y="373.8738">0..*</text></g><!--link Evaluation to Criterion--><g class="link" data-entity-1="Evaluation" data-entity-2="Criterion" data-source-line="72" data-uid="lnk27" id="link_Evaluation_Criterion"><path codeLine="72" d="M950.91,446.12 C922.71,474.55 880.2457,517.3705 846.5457,551.3405" fill="none" id="Evaluation-to-Criterion" style="stroke:#181818;stroke-width:1;"/><polygon fill="#181818" points="842.32,555.6,851.4982,552.0278,845.8414,552.0504,845.8188,546.3936,842.32,555.6" style="stroke:#181818;stroke-width:1;"/><text fill="#000000" font-family="sans-serif" font-size="13" lengthAdjust="spacing" textLength="52.9712" x="889.47" y="522.3884">criterion</text><text fill="#000000" font-family="sans-serif" font-size="13" lengthAdjust="spacing" textLength="24.667" x="823.1541" y="544.9631">0..1</text></g><!--link Case to Evaluation--><g class="link" data-entity-1="Case" data-entity-2="Evaluation" data-source-line="73" data-uid="lnk28" id="link_Case_Evaluation"><path codeLine="73" d="M973.6655,268.8417 C988.5055,284.2817 994.63,294.45 1002.47,314.89 C1012.59,341.3 1004.0951,367.5495 993.1951,389.0295" fill="none" id="Case-Evaluation" style="stroke:#181818;stroke-width:1;"/><polygon fill="#181818" points="965.35,260.19,966.6238,267.2877,973.6655,268.8417,972.3917,261.744,965.35,260.19" style="stroke:#181818;stroke-width:1;"/><polygon fill="#181818" points="990.48,394.38,998.1197,388.1643,992.7426,389.9212,990.9857,384.5441,990.48,394.38" style="stroke:#181818;stroke-width:1;"/><text fill="#000000" font-family="sans-serif" font-size="13" lengthAdjust="spacing" textLength="71.4556" x="1007.18" y="328.4584">evaluations</text><text fill="#000000" font-family="sans-serif" font-size="13" lengthAdjust="spacing" textLength="22.7119" x="969.4915" y="384.2447">0..*</text></g><!--link CaseTemplate to Criterion--><g class="link" data-entity-1="CaseTemplate" data-entity-2="Criterion" data-source-line="74" data-uid="lnk29" id="link_CaseTemplate_Criterion"><path codeLine="74" d="M557.18,255.8 C587.43,270.75 619.25,290.38 643.47,314.89 C711.11,383.35 640.33,444.92 692.47,525.82 C702.07,540.72 711.0778,549.7624 725.8278,559.8524" fill="none" id="CaseTemplate-to-Criterion" style="stroke:#181818;stroke-width:1;"/><polygon fill="#181818" points="730.78,563.24,725.6102,554.8571,726.6532,560.417,721.0933,561.46,730.78,563.24" style="stroke:#181818;stroke-width:1;"/><text fill="#000000" font-family="sans-serif" font-size="13" lengthAdjust="spacing" textLength="63.229" x="675.95" y="425.4184">addresses</text><text fill="#000000" font-family="sans-serif" font-size="13" lengthAdjust="spacing" textLength="22.7119" x="700.3928" y="556.4873">0..*</text></g><!--link CaseTemplate to CaseTemplate--><g class="link" data-entity-1="CaseTemplate" data-entity-2="CaseTemplate" data-source-line="75" data-uid="lnk30" id="link_CaseTemplate_CaseTemplate"><path codeLine="75" d="M557.25,204.35 C563.24,207.61 566.85,212.22 566.85,218.18 C566.85,224.14 568.5101,225.8818 562.5201,229.1418" fill="none" id="CaseTemplate-to-CaseTemplate" style="stroke:#181818;stroke-width:1;"/><polygon fill="#181818" points="557.25,232.01,567.0672,231.2211,561.6417,229.6198,563.243,224.1944,557.25,232.01" style="stroke:#181818;stroke-width:1;"/><text fill="#000000" font-family="sans-serif" font-size="13" lengthAdjust="spacing" textLength="94.3896" x="572.85" y="223.2484">superseded_by</text><text fill="#000000" font-family="sans-serif" font-size="13" lengthAdjust="spacing" textLength="24.667" x="564.8517" y="246.0891">0..1</text></g><!--SRC=[pLMnRjim4Dtr5OH60mcIDKENeai7fwYx1O5m9aynKOeaI2gfQ-ZVUufecPBBs6YD89eetZlTutjtbFyfjGK73TD6e4VBRc-AZHJ8k7HSuR36neOjQx1Pe_C5L-0zAxyvmz7xaZqyx9P6O_Vuo7O5esTNIrIYOrAmEyPR9v6nIK13WnJomKdzD8iH2-wa3TBe7CG72Asdw6fOiABRa_fk5BuJewuuI71rzOcLDzVNYt9FuOwLZXQ-7EKYwOo-D3TiGAefgrZlCtZyGSOf2FWXF9f4-OQOLm9hGdnTtIzNhnipb7M66k-KvhTbqeiaUssKCY- -id4lOrEQujjrH6CU7_qZEBHXOroFd8gSOpGoYTOimJa8ylcVV7bRs9SDzfO8uXDaCyyDCgYigTpeW7ekzzzFc1KaETefR1JZlWtSDF_LgiTzSbwlTMyPUCIBkEClYpoWgCmGF1p2FO6Mlw6VY4iCssIABpszaNm56jJMInzb6GIPdYJrSA12Ad0OnYGFdKQ60Mkr3FciNl6aToXbJLKgFMuLiNvQPfP0AjHdu4RlJY8TMkE2FmCvyZpqzPTdKEsfXkWnlK-rCX0clZiPqCdB_p3oFxEKS6fBGgKtVtpRgx98PKa_qW_C-9g_BHT7DK08jx-BymCwZRmscQLh1WNDvtfR_W40]--></g></svg>