<svg xmlns="http://www.w3.org/2000/svg" xmlns:xlink="http://www.w3.org/1999/xlink" contentStyleType="text/css" data-diagram-type="CLASS" height="791px" preserveAspectRatio="none" style="width:920px;height:791px;background:#FFFFFF;" version="1.1" viewBox="0 0 920 791" width="920px" zoomAndPan="magnify"><defs/><g><!--class Process--><a href="" target="_top" title="None" xlink:actuate="onRequest" xlink:href="" xlink:show="new" xlink:title="None" xlink:type="simple"><g class="entity" data-entity="Process" data-source-line="4" data-uid="ent0002" id="entity_Process"><rect fill="#F1F1F1" height="100.4414" rx="2.5" ry="2.5" style="stroke:#181818;stroke-width:0.5;" width="140.9326" x="254" y="522.84"/><text fill="#000000" font-family="sans-serif" font-size="14" lengthAdjust="spacing" textLength="51.3105" x="298.811" y="541.3752">Process</text><line style="stroke:#181818;stroke-width:0.5;" x1="255" x2="393.9326" y1="549.3283" y2="549.3283"/><text fill="#000000" font-family="sans-serif" font-size="14" lengthAdjust="spacing" textLength="79.2969" x="260" y="566.8634">id : ncname</text><text fill="#000000" font-family="sans-serif" font-size="14" lengthAdjust="spacing" textLength="90.1455" x="260" y="583.3517">name : string</text><text fill="#000000" font-family="sans-serif" font-size="14" lengthAdjust="spacing" textLength="128.9326" x="260" y="599.84">description : string</text><text fill="#000000" font-family="sans-serif" font-size="14" lengthAdjust="spacing" textLength="96.0244" x="260" y="616.3283">status : Status</text></g></a><!--class Role--><a href="" target="_top" title="None" xlink:actuate="onRequest" xlink:href="" xlink:show="new" xlink:title="None" xlink:type="simple"><g class="entity" data-entity="Role" data-source-line="10" data-uid="ent0003" id="entity_Role"><rect fill="#F1F1F1" height="83.9531" rx="2.5" ry="2.5" style="stroke:#181818;stroke-width:0.5;" width="140.9326" x="299" y="700.28"/><text fill="#000000" font-family="sans-serif" font-size="14" lengthAdjust="spacing" textLength="29.2988" x="354.8169" y="718.8152">Role</text><line style="stroke:#181818;stroke-width:0.5;" x1="300" x2="438.9326" y1="726.7683" y2="726.7683"/><text fill="#000000" font-family="sans-serif" font-size="14" lengthAdjust="spacing" textLength="79.2969" x="305" y="744.3034">id : ncname</text><text fill="#000000" font-family="sans-serif" font-size="14" lengthAdjust="spacing" textLength="90.1455" x="305" y="760.7917">name : string</text><text fill="#000000" font-family="sans-serif" font-size="14" lengthAdjust="spacing" textLength="128.9326" x="305" y="777.28">description : string</text></g></a><!--class Person--><a href="" target="_top" title="None" xlink:actuate="onRequest" xlink:href="" xlink:show="new" xlink:title="None" xlink:type="simple"><g class="entity" data-entity="Person" data-source-line="16" data-uid="ent0005" id="entity_Person"><rect fill="#F1F1F1" height="83.9531" rx="2.5" ry="2.5" style="stroke:#181818;stroke-width:0.5;" width="102.1455" x="186.39" y="700.28"/><text fill="#000000" font-family="sans-serif" font-size="14" lengthAdjust="spacing" textLength="45.6914" x="214.6171" y="718.8152">Person</text><line style="stroke:#181818;stroke-width:0.5;" x1="187.39" x2="287.5355" y1="726.7683" y2="726.7683"/><text fill="#000000" font-family="sans-serif" font-size="14" lengthAdjust="spacing" textLength="79.2969" x="192.39" y="744.3034">id : ncname</text><text fill="#000000" font-family="sans-serif" font-size="14" lengthAdjust="spacing" textLength="90.1455" x="192.39" y="760.7917">name : string</text><text fill="#000000" font-family="sans-serif" font-size="14" lengthAdjust="spacing" textLength="89.5508" x="192.39" y="777.28">email : string</text></g></a><!--class CaseTemplate--><a href="" target="_top" title="None" xlink:actuate="onRequest" xlink:href="" xlink:show="new" xlink:title="None" xlink:type="simple"><g class="entity" data-entity="CaseTemplate" data-source-line="21" data-uid="ent0006" id="entity_CaseTemplate"><rect fill="#F1F1F1" height="133.418" rx="2.5" ry="2.5" style="stroke:#181818;stroke-width:0.5;" width="190.7598" x="136.09" y="312.42"/><text fill="#000000" font-family="sans-serif" font-size="14" lengthAdjust="spacing" textLength="95.7031" x="183.6183" y="330.9552">CaseTemplate</text><line style="stroke:#181818;stroke-width:0.5;" x1="137.09" x2="325.8498" y1="338.9083" y2="338.9083"/><text fill="#000000" font-family="sans-serif" font-size="14" lengthAdjust="spacing" textLength="79.2969" x="142.09" y="356.4434">id : ncname</text><text fill="#000000" font-family="sans-serif" font-size="14" lengthAdjust="spacing" textLength="90.1455" x="142.09" y="372.9317">name : string</text><text fill="#000000" font-family="sans-serif" font-size="14" lengthAdjust="spacing" textLength="128.9326" x="142.09" y="389.42">description : string</text><text fill="#000000" font-family="sans-serif" font-size="14" lengthAdjust="spacing" textLength="96.0244" x="142.09" y="405.9083">status : Status</text><text fill="#000000" font-family="sans-serif" font-size="14" lengthAdjust="spacing" textLength="178.7598" x="142.09" y="422.3966">schema_def : JSONSchema</text><text fill="#000000" font-family="sans-serif" font-size="14" lengthAdjust="spacing" textLength="103.1133" x="142.09" y="438.8848">prompt : string</text></g></a><!--class Narrative--><a href="" target="_top" title="None" xlink:actuate="onRequest" xlink:href="" xlink:show="new" xlink:title="None" xlink:type="simple"><g class="entity" data-entity="Narrative" data-source-line="33" data-uid="ent0011" id="entity_Narrative"><rect fill="#F1F1F1" height="116.9297" rx="2.5" ry="2.5" style="stroke:#181818;stroke-width:0.5;" width="120.9854" x="618.97" y="320.66"/><text fill="#000000" font-family="sans-serif" font-size="14" lengthAdjust="spacing" textLength="61.5918" x="648.6668" y="339.1952">Narrative</text><line style="stroke:#181818;stroke-width:0.5;" x1="619.97" x2="738.9554" y1="347.1483" y2="347.1483"/><text fill="#000000" font-family="sans-serif" font-size="14" lengthAdjust="spacing" textLength="79.2969" x="624.97" y="364.6834">id : ncname</text><text fill="#000000" font-family="sans-serif" font-size="14" lengthAdjust="spacing" textLength="96.0244" x="624.97" y="381.1717">status : Status</text><text fill="#000000" font-family="sans-serif" font-size="14" lengthAdjust="spacing" textLength="108.9854" x="624.97" y="397.66">when : datetime</text><text fill="#000000" font-family="sans-serif" font-size="14" lengthAdjust="spacing" textLength="79.2217" x="624.97" y="414.1483">title : string</text><text fill="#000000" font-family="sans-serif" font-size="14" lengthAdjust="spacing" textLength="104.2754" x="624.97" y="430.6366">content : string</text></g></a><!--class OutcomeTemplate--><a href="" target="_top" title="None" xlink:actuate="onRequest" xlink:href="" xlink:show="new" xlink:title="None" xlink:type="simple"><g class="entity" data-entity="OutcomeTemplate" data-source-line="42" data-uid="ent0014" id="entity_OutcomeTemplate"><rect fill="#F1F1F1" height="83.9531" rx="2.5" ry="2.5" style="stroke:#181818;stroke-width:0.5;" width="190.7598" x="650.09" y="531.08"/><text fill="#000000" font-family="sans-serif" font-size="14" lengthAdjust="spacing" textLength="124.79" x="683.0749" y="549.6152">OutcomeTemplate</text><line style="stroke:#181818;stroke-width:0.5;" x1="651.09" x2="839.8498" y1="557.5683" y2="557.5683"/><text fill="#000000" font-family="sans-serif" font-size="14" lengthAdjust="spacing" textLength="79.2969" x="656.09" y="575.1034">id : ncname</text><text fill="#000000" font-family="sans-serif" font-size="14" lengthAdjust="spacing" textLength="103.1133" x="656.09" y="591.5917">prompt : string</text><text fill="#000000" font-family="sans-serif" font-size="14" lengthAdjust="spacing" textLength="178.7598" x="656.09" y="608.08">schema_def : JSONSchema</text></g></a><!--class Organization--><a href="" target="_top" title="None" xlink:actuate="onRequest" xlink:href="" xlink:show="new" xlink:title="None" xlink:type="simple"><g class="entity" data-entity="Organization" data-source-line="48" data-uid="ent0016" id="entity_Organization"><rect fill="#F1F1F1" height="67.4648" rx="2.5" ry="2.5" style="stroke:#181818;stroke-width:0.5;" width="102.1455" x="464.39" y="7"/><text fill="#000000" font-family="sans-serif" font-size="14" lengthAdjust="spacing" textLength="88.1289" x="471.3983" y="25.5352">Organization</text><line style="stroke:#181818;stroke-width:0.5;" x1="465.39" x2="565.5355" y1="33.4883" y2="33.4883"/><text fill="#000000" font-family="sans-serif" font-size="14" lengthAdjust="spacing" textLength="79.2969" x="470.39" y="51.0234">id : ncname</text><text fill="#000000" font-family="sans-serif" font-size="14" lengthAdjust="spacing" textLength="90.1455" x="470.39" y="67.5117">name : string</text></g></a><!--class Case--><a href="" target="_top" title="None" xlink:actuate="onRequest" xlink:href="" xlink:show="new" xlink:title="None" xlink:type="simple"><g class="entity" data-entity="Case" data-source-line="52" data-uid="ent0017" id="entity_Case"><rect fill="#F1F1F1" height="83.9531" rx="2.5" ry="2.5" style="stroke:#181818;stroke-width:0.5;" width="178.4004" x="426.27" y="151.46"/><text fill="#000000" font-family="sans-serif" font-size="14" lengthAdjust="spacing" textLength="32.3545" x="499.2929" y="169.9952">Case</text><line style="stroke:#181818;stroke-width:0.5;" x1="427.27" x2="603.6704" y1="177.9483" y2="177.9483"/><text fill="#000000" font-family="sans-serif" font-size="14" lengthAdjust="spacing" textLength="79.2969" x="432.27" y="195.4834">id : ncname</text><text fill="#000000" font-family="sans-serif" font-size="14" lengthAdjust="spacing" textLength="90.1455" x="432.27" y="211.9717">name : string</text><text fill="#000000" font-family="sans-serif" font-size="14" lengthAdjust="spacing" textLength="166.4004" x="432.27" y="228.46">outcome_analysis : JSON</text></g></a><!--class Evaluation--><a href="" target="_top" title="None" xlink:actuate="onRequest" xlink:href="" xlink:show="new" xlink:title="None" xlink:type="simple"><g class="entity" data-entity="Evaluation" data-source-line="65" data-uid="ent0026" id="entity_Evaluation"><rect fill="#F1F1F1" height="50.9766" rx="2.5" ry="2.5" style="stroke:#181818;stroke-width:0.5;" width="91.5635" x="19.68" y="353.64"/><text fill="#000000" font-family="sans-serif" font-size="14" lengthAdjust="spacing" textLength="69.6035" x="30.66" y="372.1752">Evaluation</text><line style="stroke:#181818;stroke-width:0.5;" x1="20.68" x2="110.2435" y1="380.1283" y2="380.1283"/><text fill="#000000" font-family="sans-serif" font-size="14" lengthAdjust="spacing" textLength="79.5635" x="25.68" y="397.6634">value : float</text></g></a><!--class Criterion--><a href="" target="_top" title="None" xlink:actuate="onRequest" xlink:href="" xlink:show="new" xlink:title="None" xlink:type="simple"><g class="entity" data-entity="Criterion" data-source-line="68" data-uid="ent0027" id="entity_Criterion"><rect fill="#F1F1F1" height="83.9531" rx="2.5" ry="2.5" style="stroke:#181818;stroke-width:0.5;" width="140.9326" x="7" y="531.08"/><text fill="#000000" font-family="sans-serif" font-size="14" lengthAdjust="spacing" textLength="59.5615" x="47.6855" y="549.6152">Criterion</text><line style="stroke:#181818;stroke-width:0.5;" x1="8" x2="146.9326" y1="557.5683" y2="557.5683"/><text fill="#000000" font-family="sans-serif" font-size="14" lengthAdjust="spacing" textLength="79.2969" x="13" y="575.1034">id : ncname</text><text fill="#000000" font-family="sans-serif" font-size="14" lengthAdjust="spacing" textLength="90.1455" x="13" y="591.5917">name : string</text><text fill="#000000" font-family="sans-serif" font-size="14" lengthAdjust="spacing" textLength="128.9326" x="13" y="608.08">description : string</text></g></a><!--link Process to Role--><g class="link" data-entity-1="Process" data-entity-2="Role" data-source-line="15" data-uid="lnk4" id="link_Process_Role"><path codeLine="15" d="M337.85,623.77 C344.37,648.03 350.5802,671.0763 356.7802,694.1063" fill="none" id="Process-to-Role" style="stroke:#181818;stroke-width:1;"/><polygon fill="#181818" points="358.34,699.9,359.8629,690.1696,357.0402,695.0719,352.1379,692.2493,358.34,699.9" style="stroke:#181818;stroke-width:1;"/><text fill="#000000" font-family="sans-serif" font-size="13" lengthAdjust="spacing" textLength="30.9321" x="350.66" y="666.8484">roles</text><text fill="#000000" font-family="sans-serif" font-size="13" lengthAdjust="spacing" textLength="22.7119" x="332.8704" y="689.5472">0..*</text></g><!--link Process to Process--><g class="link" data-entity-1="Process" data-entity-2="Process" data-source-line="29" data-uid="lnk7" id="link_Process_Process"><path codeLine="29" d="M395.35,566.63 C401.26,568.01 404.93,570.15 404.93,573.06 C404.93,575.96 407.1028,576.7357 401.1928,578.1157" fill="none" id="Process-to-Process" style="stroke:#181818;stroke-width:1;"/><polygon fill="#181818" points="395.35,579.48,405.0238,581.3287,400.219,578.3431,403.2047,573.5383,395.35,579.48" style="stroke:#181818;stroke-width:1;"/><text fill="#000000" font-family="sans-serif" font-size="13" lengthAdjust="spacing" textLength="100.0518" x="410.93" y="578.1284">follows_process</text><text fill="#000000" font-family="sans-serif" font-size="13" lengthAdjust="spacing" textLength="24.667" x="403.0216" y="593.3459">0..1</text></g><!--link Process to Process--><g class="link" data-entity-1="Process" data-entity-2="Process" data-source-line="30" data-uid="lnk8" id="link_Process_Process"><path codeLine="30" d="M395.28,557.68 C450.93,553.79 516.93,558.91 516.93,573.06 C516.93,587.2 456.9154,592.7384 401.2654,588.8484" fill="none" id="Process-to-Process-1" style="stroke:#181818;stroke-width:1;"/><polygon fill="#181818" points="395.28,588.43,403.9792,593.0478,400.2678,588.7787,404.537,585.0673,395.28,588.43" style="stroke:#181818;stroke-width:1;"/><text fill="#000000" font-family="sans-serif" font-size="13" lengthAdjust="spacing" textLength="85.3887" x="522.93" y="578.1284">subprocesses</text><text fill="#000000" font-family="sans-serif" font-size="13" lengthAdjust="spacing" textLength="22.7119" x="402.855" y="603.1209">0..*</text></g><!--link Process to Person--><g class="link" data-entity-1="Process" data-entity-2="Person" data-source-line="31" data-uid="lnk9" id="link_Process_Person"><path codeLine="31" d="M298.6,623.77 C285.98,648.03 273.7407,671.5481 261.7507,694.5781" fill="none" id="Process-to-Person" style="stroke:#181818;stroke-width:1;"/><polygon fill="#181818" points="258.98,699.9,266.6841,693.7642,261.2889,695.4651,259.5881,690.0699,258.98,699.9" style="stroke:#181818;stroke-width:1;"/><text fill="#000000" font-family="sans-serif" font-size="13" lengthAdjust="spacing" textLength="48.1089" x="281.97" y="666.8484">authors</text><text fill="#000000" font-family="sans-serif" font-size="13" lengthAdjust="spacing" textLength="22.7119" x="238.7129" y="689.5472">0..*</text></g><!--link CaseTemplate to Process--><g class="link" data-entity-1="CaseTemplate" data-entity-2="Process" data-source-line="32" data-uid="lnk10" id="link_CaseTemplate_Process"><path codeLine="32" d="M263.47,446.18 C275.61,471.23 286.5938,493.9004 297.8638,517.1604" fill="none" id="CaseTemplate-to-Process" style="stroke:#181818;stroke-width:1;"/><polygon fill="#181818" points="300.48,522.56,300.1554,512.7165,298.2998,518.0604,292.956,516.2048,300.48,522.56" style="stroke:#181818;stroke-width:1;"/><text fill="#000000" font-family="sans-serif" font-size="13" lengthAdjust="spacing" textLength="48.6421" x="284.53" y="489.4084">process</text><text fill="#000000" font-family="sans-serif" font-size="13" lengthAdjust="spacing" textLength="24.667" x="271.4663" y="511.9938">0..1</text></g><!--link CaseTemplate to Person--><g class="link" data-entity-1="CaseTemplate" data-entity-2="Person" data-source-line="40" data-uid="lnk12" id="link_CaseTemplate_Person"><path codeLine="40" d="M212.5,446.3 C200.96,495.27 190.08,563.55 199.47,623.28 C203.57,649.42 210.446,672.0462 218.616,694.3462" fill="none" id="CaseTemplate-to-Person" style="stroke:#181818;stroke-width:1;"/><polygon fill="#181818" points="220.68,699.98,221.3398,690.1533,218.96,695.2852,213.8281,692.9053,220.68,699.98" style="stroke:#181818;stroke-width:1;"/><text fill="#000000" font-family="sans-serif" font-size="13" lengthAdjust="spacing" textLength="48.1089" x="200.47" y="578.1284">authors</text><text fill="#000000" font-family="sans-serif" font-size="13" lengthAdjust="spacing" textLength="22.7119" x="194.3089" y="689.64">0..*</text></g><!--link Narrative to Person--><g class="link" data-entity-1="Narrative" data-entity-2="Person" data-source-line="41" data-uid="lnk13" id="link_Narrative_Person"><path codeLine="41" d="M740.06,413.56 C778.07,438.25 823.82,475.69 845.47,522.84 C864.09,563.41 874.77,589.6 845.47,623.28 C764.32,716.55 409.23,654.3 294.47,700.28 C292.54,701.05 296.0314,699.3082 294.1314,700.2182" fill="none" id="Narrative-to-Person" style="stroke:#181818;stroke-width:1;"/><polygon fill="#181818" points="288.72,702.81,298.5649,702.5299,293.2295,700.6502,295.1092,695.3148,288.72,702.81" style="stroke:#181818;stroke-width:1;"/><text fill="#000000" font-family="sans-serif" font-size="13" lengthAdjust="spacing" textLength="48.1089" x="864.66" y="578.1284">authors</text><text fill="#000000" font-family="sans-serif" font-size="13" lengthAdjust="spacing" textLength="22.7119" x="272.7462" y="689.4679">0..*</text></g><!--link CaseTemplate to OutcomeTemplate--><g class="link" data-entity-1="CaseTemplate" data-entity-2="OutcomeTemplate" data-source-line="47" data-uid="lnk15" id="link_CaseTemplate_OutcomeTemplate"><path codeLine="47" d="M327,409.51 C411.5,436.36 537.6,478.52 644.47,522.84 C650.41,525.3 651.0268,525.4915 657.1268,528.2315" fill="none" id="CaseTemplate-to-OutcomeTemplate" style="stroke:#181818;stroke-width:1;"/><polygon fill="#181818" points="662.6,530.69,656.0292,523.3535,658.039,528.6413,652.7512,530.6511,662.6,530.69" style="stroke:#181818;stroke-width:1;"/><text fill="#000000" font-family="sans-serif" font-size="13" lengthAdjust="spacing" textLength="119.0249" x="567.72" y="489.4084">expected_outcome</text><text fill="#000000" font-family="sans-serif" font-size="13" lengthAdjust="spacing" textLength="24.667" x="623.5333" y="520.3356">0..1</text></g><!--link Organization to CaseTemplate--><g class="link" data-entity-1="Organization" data-entity-2="CaseTemplate" data-source-line="57" data-uid="lnk18" id="link_Organization_CaseTemplate"><path codeLine="57" d="M464.23,53.95 C377.46,77.74 204.04,139.36 132.47,265.42 C123.27,281.61 123.5332,292.611 133.5832,307.181" fill="none" id="Organization-to-CaseTemplate" style="stroke:#181818;stroke-width:1;"/><polygon fill="#181818" points="136.99,312.12,135.1725,302.4403,134.151,308.0042,128.5871,306.9827,136.99,312.12" style="stroke:#181818;stroke-width:1;"/><text fill="#000000" font-family="sans-serif" font-size="13" lengthAdjust="spacing" textLength="96.3003" x="242.52" y="198.5084">case_templates</text><text fill="#000000" font-family="sans-serif" font-size="13" lengthAdjust="spacing" textLength="22.7119" x="105.2989" y="302.8339">0..*</text></g><!--link Organization to Case--><g class="link" data-entity-1="Organization" data-entity-2="Case" data-source-line="58" data-uid="lnk19" id="link_Organization_Case"><path codeLine="58" d="M515.47,74.81 C515.47,97.25 515.47,121.09 515.47,145.1" fill="none" id="Organization-to-Case" style="stroke:#181818;stroke-width:1;"/><polygon fill="#181818" points="515.47,151.1,519.47,142.1,515.47,146.1,511.47,142.1,515.47,151.1" style="stroke:#181818;stroke-width:1;"/><text fill="#000000" font-family="sans-serif" font-size="13" lengthAdjust="spacing" textLength="34.3345" x="516.47" y="118.0284">cases</text><text fill="#000000" font-family="sans-serif" font-size="13" lengthAdjust="spacing" textLength="22.7119" x="491.7736" y="140.7504">0..*</text></g><!--link Organization to Organization--><g class="link" data-entity-1="Organization" data-entity-2="Organization" data-source-line="59" data-uid="lnk20" id="link_Organization_Organization"><path codeLine="59" d="M566.93,29.25 C572.76,31.4 576.54,35.23 576.54,40.73 C576.54,46.23 578.3894,47.984 572.5594,50.134" fill="none" id="Organization-to-Organization" style="stroke:#181818;stroke-width:1;"/><polygon fill="#181818" points="566.93,52.21,576.7581,52.8489,571.6212,50.48,573.9901,45.343,566.93,52.21" style="stroke:#181818;stroke-width:1;"/><text fill="#000000" font-family="sans-serif" font-size="13" lengthAdjust="spacing" textLength="54.2598" x="582.54" y="45.7984">subunits</text><text fill="#000000" font-family="sans-serif" font-size="13" lengthAdjust="spacing" textLength="22.7119" x="574.5866" y="67.1102">0..*</text></g><!--link Organization to Narrative--><g class="link" data-entity-1="Organization" data-entity-2="Narrative" data-source-line="60" data-uid="lnk21" id="link_Organization_Narrative"><path codeLine="60" d="M566.93,72.14 C624.34,109.39 714.06,178.42 751.47,265.42 C759.95,285.15 756.3499,300.431 743.8899,318.161" fill="none" id="Organization-to-Narrative" style="stroke:#181818;stroke-width:1;"/><polygon fill="#181818" points="740.44,323.07,748.8875,318.0064,743.3149,318.9792,742.3421,313.4066,740.44,323.07" style="stroke:#181818;stroke-width:1;"/><text fill="#000000" font-family="sans-serif" font-size="13" lengthAdjust="spacing" textLength="91.3872" x="737.08" y="198.5084">base_narrative</text><text fill="#000000" font-family="sans-serif" font-size="13" lengthAdjust="spacing" textLength="24.667" x="748.0002" y="314.1003">0..1</text></g><!--link Case to Narrative--><g class="link" data-entity-1="Case" data-entity-2="Narrative" data-source-line="61" data-uid="lnk22" id="link_Case_Narrative"><path codeLine="61" d="M604.95,233.06 C618.9,242.1 632.11,252.84 642.47,265.42 C655.37,281.07 662.1521,295.6065 667.6621,314.6465" fill="none" id="Case-to-Narrative" style="stroke:#181818;stroke-width:1;"/><polygon fill="#181818" points="669.33,320.41,670.6705,310.6528,667.9401,315.6071,662.9858,312.8767,669.33,320.41" style="stroke:#181818;stroke-width:1;"/><text fill="#000000" font-family="sans-serif" font-size="13" lengthAdjust="spacing" textLength="29.2817" x="654.28" y="278.9884">brief</text><text fill="#000000" font-family="sans-serif" font-size="13" lengthAdjust="spacing" textLength="22.7119" x="644.7978" y="309.9273">0..*</text></g><!--link Case to Narrative--><g class="link" data-entity-1="Case" data-entity-2="Narrative" data-source-line="62" data-uid="lnk23" id="link_Case_Narrative"><path codeLine="62" d="M605.1,210.39 C636.2,220.69 667.9,237.62 686.47,265.42 C697.08,281.31 699.2828,295.4901 697.0928,314.3301" fill="none" id="Case-to-Narrative-1" style="stroke:#181818;stroke-width:1;"/><polygon fill="#181818" points="696.4,320.29,701.4124,311.8121,696.9773,315.3234,693.4659,310.8883,696.4,320.29" style="stroke:#181818;stroke-width:1;"/><text fill="#000000" font-family="sans-serif" font-size="13" lengthAdjust="spacing" textLength="54.939" x="694.96" y="278.9884">outcome</text><text fill="#000000" font-family="sans-serif" font-size="13" lengthAdjust="spacing" textLength="22.7119" x="675.167" y="309.7927">0..*</text></g><!--link Case to Narrative--><g class="link" data-entity-1="Case" data-entity-2="Narrative" data-source-line="63" data-uid="lnk24" id="link_Case_Narrative"><path codeLine="63" d="M508.84,235.74 C508.32,251.33 510.3,268.61 518.47,282.42 C540.41,319.5 577.2186,341.5295 612.9886,356.3795" fill="none" id="Case-to-Narrative-2" style="stroke:#181818;stroke-width:1;"/><polygon fill="#181818" points="618.53,358.68,611.7515,351.5349,613.9121,356.7629,608.6842,358.9235,618.53,358.68" style="stroke:#181818;stroke-width:1;"/><text fill="#000000" font-family="sans-serif" font-size="13" lengthAdjust="spacing" textLength="45.5381" x="519.47" y="278.9884">reports</text><text fill="#000000" font-family="sans-serif" font-size="13" lengthAdjust="spacing" textLength="22.7119" x="588.2539" y="353.0352">0..*</text></g><!--link Case to Narrative--><g class="link" data-entity-1="Case" data-entity-2="Narrative" data-source-line="64" data-uid="lnk25" id="link_Case_Narrative"><path codeLine="64" d="M542.95,235.88 C555.53,254.46 569.22,274.06 576.47,282.42 C589.26,297.17 599.7341,307.9449 614.1141,321.4349" fill="none" id="Case-to-Narrative-3" style="stroke:#181818;stroke-width:1;"/><polygon fill="#181818" points="618.49,325.54,614.6629,316.4651,614.8434,322.1191,609.1894,322.2997,618.49,325.54" style="stroke:#181818;stroke-width:1;"/><text fill="#000000" font-family="sans-serif" font-size="13" lengthAdjust="spacing" textLength="62.2832" x="577.47" y="278.9884">narratives</text><text fill="#000000" font-family="sans-serif" font-size="13" lengthAdjust="spacing" textLength="22.7119" x="588.2093" y="316.0634">0..*</text></g><!--link Evaluation to Criterion--><g class="link" data-entity-1="Evaluation" data-entity-2="Criterion" data-source-line="73" data-uid="lnk28" id="link_Evaluation_Criterion"><path codeLine="73" d="M58.82,404.82 C53.56,427.71 47.82,462.66 52.47,492.84 C54.4,505.38 56.1398,512.9428 59.9698,524.9728" fill="none" id="Evaluation-to-Criterion" style="stroke:#181818;stroke-width:1;"/><polygon fill="#181818" points="61.79,530.69,62.8712,520.9007,60.2732,525.9256,55.2482,523.3276,61.79,530.69" style="stroke:#181818;stroke-width:1;"/><text fill="#000000" font-family="sans-serif" font-size="13" lengthAdjust="spacing" textLength="52.9712" x="53.47" y="489.4084">criterion</text><text fill="#000000" font-family="sans-serif" font-size="13" lengthAdjust="spacing" textLength="24.667" x="33.4322" y="520.3356">0..1</text></g><!--link Case to Evaluation--><g class="link" data-entity-1="Case" data-entity-2="Evaluation" data-source-line="74" data-uid="lnk29" id="link_Case_Evaluation"><path codeLine="74" d="M413.9915,205.7888 C320.9015,217.3488 194.54,237.1 149.47,265.42 C115.58,286.71 93.3871,321.651 79.8371,347.841" fill="none" id="Case-Evaluation" style="stroke:#181818;stroke-width:1;"/><polygon fill="#181818" points="425.9,204.31,419.4528,201.0799,413.9915,205.7888,420.4387,209.0189,425.9,204.31" style="stroke:#181818;stroke-width:1;"/><polygon fill="#181818" points="77.08,353.17,84.7683,347.0145,79.3776,348.7292,77.663,343.3384,77.08,353.17" style="stroke:#181818;stroke-width:1;"/><text fill="#000000" font-family="sans-serif" font-size="13" lengthAdjust="spacing" textLength="71.4556" x="150.47" y="278.9884">evaluations</text><text fill="#000000" font-family="sans-serif" font-size="13" lengthAdjust="spacing" textLength="22.7119" x="55.3053" y="343.037">0..*</text></g><!--link CaseTemplate to Criterion--><g class="link" data-entity-1="CaseTemplate" data-entity-2="Criterion" data-source-line="75" data-uid="lnk30" id="link_CaseTemplate_Criterion"><path codeLine="75" d="M147.69,446.06 C138.21,455.48 129.2,465.49 121.47,475.84 C109.15,492.31 101.4671,507.2389 94.1571,525.0589" fill="none" id="CaseTemplate-to-Criterion" style="stroke:#181818;stroke-width:1;"/><polygon fill="#181818" points="91.88,530.61,98.9964,523.8014,93.7776,525.9841,91.595,520.7653,91.88,530.61" style="stroke:#181818;stroke-width:1;"/><text fill="#000000" font-family="sans-serif" font-size="13" lengthAdjust="spacing" textLength="63.229" x="122.47" y="489.4084">addresses</text><text fill="#000000" font-family="sans-serif" font-size="13" lengthAdjust="spacing" textLength="22.7119" x="70.4808" y="520.2429">0..*</text></g><!--link CaseTemplate to CaseTemplate--><g class="link" data-entity-1="CaseTemplate" data-entity-2="CaseTemplate" data-source-line="76" data-uid="lnk31" id="link_CaseTemplate_CaseTemplate"><path codeLine="76" d="M327.25,365.3 C333.24,368.56 336.85,373.17 336.85,379.13 C336.85,385.09 338.5101,386.8218 332.5201,390.0818" fill="none" id="CaseTemplate-to-CaseTemplate" style="stroke:#181818;stroke-width:1;"/><polygon fill="#181818" points="327.25,392.95,337.0672,392.1611,331.6417,390.5598,333.243,385.1344,327.25,392.95" style="stroke:#181818;stroke-width:1;"/><text fill="#000000" font-family="sans-serif" font-size="13" lengthAdjust="spacing" textLength="94.3896" x="342.85" y="384.1984">superseded_by</text><text fill="#000000" font-family="sans-serif" font-size="13" lengthAdjust="spacing" textLength="24.667" x="334.8517" y="407.0284">0..1</text></g><!--link Case to CaseTemplate--><g class="link" data-entity-1="Case" data-entity-2="CaseTemplate" data-source-line="77" data-uid="lnk32" id="link_Case_CaseTemplate"><path codeLine="77" d="M425.83,234.81 C407.44,244.14 388.5,254.55 371.47,265.42 C358.51,273.68 339.4538,288.4829 315.1838,308.2329" fill="none" id="Case-to-CaseTemplate" style="stroke:#181818;stroke-width:1;"/><polygon fill="#181818" points="310.53,312.02,320.0354,309.4419,314.4082,308.8641,314.986,303.2368,310.53,312.02" style="stroke:#181818;stroke-width:1;"/><text fill="#000000" font-family="sans-serif" font-size="13" lengthAdjust="spacing" textLength="137.8584" x="372.47" y="278.9884">considered_templates</text><text fill="#000000" font-family="sans-serif" font-size="13" lengthAdjust="spacing" textLength="22.7119" x="295.5854" y="301.9103">0..*</text></g><!--link Case to CaseTemplate--><g class="link" data-entity-1="Case" data-entity-2="CaseTemplate" data-source-line="78" data-uid="lnk33" id="link_Case_CaseTemplate"><path codeLine="78" d="M425.83,205.13 C352.58,215.92 257.36,235.32 233.47,265.42 C223.06,278.52 219.494,289.4509 219.204,306.1809" fill="none" id="Case-to-CaseTemplate-1" style="stroke:#181818;stroke-width:1;"/><polygon fill="#181818" points="219.1,312.18,223.2554,303.2507,219.1867,307.1808,215.2566,303.112,219.1,312.18" style="stroke:#181818;stroke-width:1;"/><text fill="#000000" font-family="sans-serif" font-size="13" lengthAdjust="spacing" textLength="113.7817" x="234.47" y="278.9884">selected_template</text><text fill="#000000" font-family="sans-serif" font-size="13" lengthAdjust="spacing" textLength="24.667" x="192.471" y="301.6225">0..1</text></g><!--SRC=[pLQnRjim4Dtr5OH60mcIrKENeai7fuYx1O50awUOA4KA99NKDVJlFKQqJ5gcRRHk4K_KtJlnyRqxolQ7K2qrj25ASx3GalkxOYqu42OCap2ieMdTXZJGhC3OWabgBIc_6St0sf8yFMqNMa7__4os1S7VjXOWUKy49tEYcA8D499ataDpOfqHwkKWXpIO4QqJMkKWrb7NMSmkXmKf-XshHotXVr7gYxq8DpUVI7btUpihTnpcf3IuiEKe68gdrTN9GKE5J6c53JzJ2z_HEqaTV0oRaYnR8_MAGus8hyk7nV8zS81gZSRcEwVwVHdr8mfVQodrcwtQ4CiO5PVORXNGaCS71n5EExVMnYDJbNECHYR1cmKrXZhn-cV6d5RsRGtU4uw4d9ZKEk5arbMcbGDrgFVn8sOLYSvs3XlKUEWSqytVDUkqKoxhjlwKXHDYI1v-ji0Sy4eFoVqfp0jLuXVrCt6LUKic-UeJ7EXNL56viS86OGP9qhF4DgPYeHuC0vKB4U__wTgnvZGqpGm3sYdXybNUhwZri6JbcQanL8JzusqE2eo0-WBSwFnPf85M6sSlG8uyzsFnvPNAxbmxUOptk9QQkgHfZ71Wn3_uvEI_Xp7Zs9U8YtT_VDh9CejrYL_Yvsryp5-tiyaUb7EpkyppyprfPjkrU4q1n_5UROwwDkr_98R_aWoMn5EGLXxV3EHma-pgojy0]--></g></svg>