<svg xmlns="http://www.w3.org/2000/svg" xmlns:xlink="http://www.w3.org/1999/xlink" contentStyleType="text/css" data-diagram-type="CLASS" height="1146px" preserveAspectRatio="none" style="width:1089px;height:1146px;background:#FFFFFF;" version="1.1" viewBox="0 0 1089 1146" width="1089px" zoomAndPan="magnify"><defs/><g><!--class Template--><a href="" target="_top" title="A schema that can be applied to a story" xlink:actuate="onRequest" xlink:href="" xlink:show="new" xlink:title="A schema that can be applied to a story" xlink:type="simple"><g class="entity" data-entity="Template" data-source-line="4" data-uid="ent0002" id="entity_Template"><rect fill="#F1F1F1" height="83.9531" rx="2.5" ry="2.5" style="stroke:#181818;stroke-width:0.5;" width="190.7598" x="171.58" y="522.83"/><text fill="#000000" font-family="sans-serif" font-size="14" font-style="italic" lengthAdjust="spacing" textLength="63.3486" x="235.2856" y="541.3652">Template</text><line style="stroke:#181818;stroke-width:0.5;" x1="172.58" x2="361.3398" y1="549.3183" y2="549.3183"/><text fill="#000000" font-family="sans-serif" font-size="14" lengthAdjust="spacing" textLength="79.2969" x="177.58" y="566.8534">id : ncname</text><text fill="#000000" font-family="sans-serif" font-size="14" lengthAdjust="spacing" textLength="103.1133" x="177.58" y="583.3417">prompt : string</text><text fill="#000000" font-family="sans-serif" font-size="14" lengthAdjust="spacing" textLength="178.7598" x="177.58" y="599.83">schema_def : JSONSchema</text></g></a><!--class Narrative--><a href="" target="_top" title="A narrative description of either a concrete or abstracted Case or ProgramTemplate. There can be many narratives." xlink:actuate="onRequest" xlink:href="" xlink:show="new" xlink:title="A narrative description of either a concrete or abstracted Case or ProgramTemplate. There can be many narratives." xlink:type="simple"><g class="entity" data-entity="Narrative" data-source-line="9" data-uid="ent0003" id="entity_Narrative"><rect fill="#F1F1F1" height="116.9297" rx="2.5" ry="2.5" style="stroke:#181818;stroke-width:0.5;" width="120.9854" x="799.46" y="683.79"/><text fill="#000000" font-family="sans-serif" font-size="14" lengthAdjust="spacing" textLength="61.5918" x="829.1568" y="702.3252">Narrative</text><line style="stroke:#181818;stroke-width:0.5;" x1="800.46" x2="919.4454" y1="710.2783" y2="710.2783"/><text fill="#000000" font-family="sans-serif" font-size="14" lengthAdjust="spacing" textLength="79.2969" x="805.46" y="727.8134">id : ncname</text><text fill="#000000" font-family="sans-serif" font-size="14" lengthAdjust="spacing" textLength="96.0244" x="805.46" y="744.3017">status : Status</text><text fill="#000000" font-family="sans-serif" font-size="14" lengthAdjust="spacing" textLength="108.9854" x="805.46" y="760.79">when : datetime</text><text fill="#000000" font-family="sans-serif" font-size="14" lengthAdjust="spacing" textLength="79.2217" x="805.46" y="777.2783">title : string</text><text fill="#000000" font-family="sans-serif" font-size="14" lengthAdjust="spacing" textLength="104.2754" x="805.46" y="793.7666">content : string</text></g></a><!--class SituationSchema--><a href="" target="_top" title="None" xlink:actuate="onRequest" xlink:href="" xlink:show="new" xlink:title="None" xlink:type="simple"><g class="entity" data-entity="SituationSchema" data-source-line="16" data-uid="ent0004" id="entity_SituationSchema"><rect fill="#F1F1F1" height="83.9531" rx="2.5" ry="2.5" style="stroke:#181818;stroke-width:0.5;" width="203.9121" x="7" y="700.27"/><text fill="#000000" font-family="sans-serif" font-size="14" lengthAdjust="spacing" textLength="111.8154" x="53.0483" y="718.8052">SituationSchema</text><line style="stroke:#181818;stroke-width:0.5;" x1="8" x2="209.9121" y1="726.7583" y2="726.7583"/><text fill="#000000" font-family="sans-serif" font-size="14" lengthAdjust="spacing" textLength="92.4492" x="13" y="744.2934">id(i) : ncname</text><text fill="#000000" font-family="sans-serif" font-size="14" lengthAdjust="spacing" textLength="116.2656" x="13" y="760.7817">prompt(i) : string</text><text fill="#000000" font-family="sans-serif" font-size="14" lengthAdjust="spacing" textLength="191.9121" x="13" y="777.27">schema_def(i) : JSONSchema</text></g></a><!--class ReportTemplate--><a href="" target="_top" title="A template that describes a category of outcome we expect at the end of a ProcessTemplate, and especially the criteria we intend to measure at the end of the process." xlink:actuate="onRequest" xlink:href="" xlink:show="new" xlink:title="A template that describes a category of outcome we expect at the end of a ProcessTemplate, and especially the criteria we intend to measure at the end of the process." xlink:type="simple"><g class="entity" data-entity="ReportTemplate" data-source-line="21" data-uid="ent0005" id="entity_ReportTemplate"><rect fill="#F1F1F1" height="83.9531" rx="2.5" ry="2.5" style="stroke:#181818;stroke-width:0.5;" width="203.9121" x="429" y="700.27"/><text fill="#000000" font-family="sans-serif" font-size="14" lengthAdjust="spacing" textLength="108.377" x="476.7676" y="718.8052">ReportTemplate</text><line style="stroke:#181818;stroke-width:0.5;" x1="430" x2="631.9121" y1="726.7583" y2="726.7583"/><text fill="#000000" font-family="sans-serif" font-size="14" lengthAdjust="spacing" textLength="92.4492" x="435" y="744.2934">id(i) : ncname</text><text fill="#000000" font-family="sans-serif" font-size="14" lengthAdjust="spacing" textLength="116.2656" x="435" y="760.7817">prompt(i) : string</text><text fill="#000000" font-family="sans-serif" font-size="14" lengthAdjust="spacing" textLength="191.9121" x="435" y="777.27">schema_def(i) : JSONSchema</text></g></a><!--class Rule--><a href="" target="_top" title="The template that describes an entry in our best practice workbook, consisting of an (abstracted) situation we try to solve, and the process we intend to use to solve it." xlink:actuate="onRequest" xlink:href="" xlink:show="new" xlink:title="The template that describes an entry in our best practice workbook, consisting of an (abstracted) situation we try to solve, and the process we intend to use to solve it." xlink:type="simple"><g class="entity" data-entity="Rule" data-source-line="29" data-uid="ent0009" id="entity_Rule"><rect fill="#F1F1F1" height="100.4414" rx="2.5" ry="2.5" style="stroke:#181818;stroke-width:0.5;" width="140.9326" x="397.49" y="345.39"/><text fill="#000000" font-family="sans-serif" font-size="14" lengthAdjust="spacing" textLength="29.3877" x="453.2625" y="363.9252">Rule</text><line style="stroke:#181818;stroke-width:0.5;" x1="398.49" x2="537.4226" y1="371.8783" y2="371.8783"/><text fill="#000000" font-family="sans-serif" font-size="14" lengthAdjust="spacing" textLength="79.2969" x="403.49" y="389.4134">id : ncname</text><text fill="#000000" font-family="sans-serif" font-size="14" lengthAdjust="spacing" textLength="90.1455" x="403.49" y="405.9017">name : string</text><text fill="#000000" font-family="sans-serif" font-size="14" lengthAdjust="spacing" textLength="128.9326" x="403.49" y="422.39">description : string</text><text fill="#000000" font-family="sans-serif" font-size="14" lengthAdjust="spacing" textLength="103.1133" x="403.49" y="438.8783">prompt : string</text></g></a><!--class Rulebook--><a href="" target="_top" title="A set of rules" xlink:actuate="onRequest" xlink:href="" xlink:show="new" xlink:title="A set of rules" xlink:type="simple"><g class="entity" data-entity="Rulebook" data-source-line="36" data-uid="ent0011" id="entity_Rulebook"><rect fill="#F1F1F1" height="50.9766" rx="2.5" ry="2.5" style="stroke:#181818;stroke-width:0.5;" width="108.0244" x="545.94" y="192.68"/><text fill="#000000" font-family="sans-serif" font-size="14" lengthAdjust="spacing" textLength="63.5811" x="568.1617" y="211.2152">Rulebook</text><line style="stroke:#181818;stroke-width:0.5;" x1="546.94" x2="652.9644" y1="219.1683" y2="219.1683"/><text fill="#000000" font-family="sans-serif" font-size="14" lengthAdjust="spacing" textLength="96.0244" x="551.94" y="236.7034">status : Status</text></g></a><!--class Organization--><a href="" target="_top" title="An organization where persons work" xlink:actuate="onRequest" xlink:href="" xlink:show="new" xlink:title="An organization where persons work" xlink:type="simple"><g class="entity" data-entity="Organization" data-source-line="39" data-uid="ent0012" id="entity_Organization"><rect fill="#F1F1F1" height="83.9531" rx="2.5" ry="2.5" style="stroke:#181818;stroke-width:0.5;" width="205.5527" x="656.18" y="7"/><text fill="#000000" font-family="sans-serif" font-size="14" lengthAdjust="spacing" textLength="88.1289" x="714.8919" y="25.5352">Organization</text><line style="stroke:#181818;stroke-width:0.5;" x1="657.18" x2="860.7327" y1="33.4883" y2="33.4883"/><text fill="#000000" font-family="sans-serif" font-size="14" lengthAdjust="spacing" textLength="79.2969" x="662.18" y="51.0234">id : ncname</text><text fill="#000000" font-family="sans-serif" font-size="14" lengthAdjust="spacing" textLength="90.1455" x="662.18" y="67.5117">name : string</text><text fill="#000000" font-family="sans-serif" font-size="14" lengthAdjust="spacing" textLength="193.5527" x="662.18" y="84">mission_statetement : string</text></g></a><!--class ProgramTemplate--><a href="" target="_top" title="The actual process we will use to solve a given problem." xlink:actuate="onRequest" xlink:href="" xlink:show="new" xlink:title="The actual process we will use to solve a given problem." xlink:type="simple"><g class="entity" data-entity="ProgramTemplate" data-source-line="47" data-uid="ent0016" id="entity_ProgramTemplate"><rect fill="#F1F1F1" height="67.4648" rx="2.5" ry="2.5" style="stroke:#181818;stroke-width:0.5;" width="126.6748" x="372.62" y="531.08"/><text fill="#000000" font-family="sans-serif" font-size="14" lengthAdjust="spacing" textLength="120.6748" x="375.62" y="549.6152">ProgramTemplate</text><line style="stroke:#181818;stroke-width:0.5;" x1="373.62" x2="498.2948" y1="557.5683" y2="557.5683"/><text fill="#000000" font-family="sans-serif" font-size="14" lengthAdjust="spacing" textLength="79.2969" x="378.62" y="575.1034">id : ncname</text><text fill="#000000" font-family="sans-serif" font-size="14" lengthAdjust="spacing" textLength="90.1455" x="378.62" y="591.5917">name : string</text></g></a><!--class Case--><a href="" target="_top" title="The narrative description of an individual work unit we have solved or intend to solve." xlink:actuate="onRequest" xlink:href="" xlink:show="new" xlink:title="The narrative description of an individual work unit we have solved or intend to solve." xlink:type="simple"><g class="entity" data-entity="Case" data-source-line="51" data-uid="ent0017" id="entity_Case"><rect fill="#F1F1F1" height="100.4414" rx="2.5" ry="2.5" style="stroke:#181818;stroke-width:0.5;" width="178.4004" x="706.76" y="167.95"/><text fill="#000000" font-family="sans-serif" font-size="14" lengthAdjust="spacing" textLength="32.3545" x="779.7829" y="186.4852">Case</text><line style="stroke:#181818;stroke-width:0.5;" x1="707.76" x2="884.1604" y1="194.4383" y2="194.4383"/><text fill="#000000" font-family="sans-serif" font-size="14" lengthAdjust="spacing" textLength="79.2969" x="712.76" y="211.9734">id : ncname</text><text fill="#000000" font-family="sans-serif" font-size="14" lengthAdjust="spacing" textLength="90.1455" x="712.76" y="228.4617">name : string</text><text fill="#000000" font-family="sans-serif" font-size="14" lengthAdjust="spacing" textLength="128.6865" x="712.76" y="244.95">idealized : boolean</text><text fill="#000000" font-family="sans-serif" font-size="14" lengthAdjust="spacing" textLength="166.4004" x="712.76" y="261.4383">outcome_analysis : JSON</text></g></a><!--class Role--><a href="" target="_top" title="A process involves certain actors playing certain roles in the process. This describes the roles." xlink:actuate="onRequest" xlink:href="" xlink:show="new" xlink:title="A process involves certain actors playing certain roles in the process. This describes the roles." xlink:type="simple"><g class="entity" data-entity="Role" data-source-line="61" data-uid="ent0022" id="entity_Role"><rect fill="#F1F1F1" height="83.9531" rx="2.5" ry="2.5" style="stroke:#181818;stroke-width:0.5;" width="140.9326" x="278.49" y="700.27"/><text fill="#000000" font-family="sans-serif" font-size="14" lengthAdjust="spacing" textLength="29.2988" x="334.3069" y="718.8052">Role</text><line style="stroke:#181818;stroke-width:0.5;" x1="279.49" x2="418.4226" y1="726.7583" y2="726.7583"/><text fill="#000000" font-family="sans-serif" font-size="14" lengthAdjust="spacing" textLength="79.2969" x="284.49" y="744.2934">id : ncname</text><text fill="#000000" font-family="sans-serif" font-size="14" lengthAdjust="spacing" textLength="90.1455" x="284.49" y="760.7817">name : string</text><text fill="#000000" font-family="sans-serif" font-size="14" lengthAdjust="spacing" textLength="128.9326" x="284.49" y="777.27">description : string</text></g></a><!--class Objective--><a href="" target="_top" title="None" xlink:actuate="onRequest" xlink:href="" xlink:show="new" xlink:title="None" xlink:type="simple"><g class="entity" data-entity="Objective" data-source-line="67" data-uid="ent0024" id="entity_Objective"><rect fill="#F1F1F1" height="83.9531" rx="2.5" ry="2.5" style="stroke:#181818;stroke-width:0.5;" width="214.5625" x="526.67" y="877.72"/><text fill="#000000" font-family="sans-serif" font-size="14" lengthAdjust="spacing" textLength="63.2461" x="602.3282" y="896.2552">Objective</text><line style="stroke:#181818;stroke-width:0.5;" x1="527.67" x2="740.2325" y1="904.2083" y2="904.2083"/><text fill="#000000" font-family="sans-serif" font-size="14" lengthAdjust="spacing" textLength="79.2969" x="532.67" y="921.7434">id : ncname</text><text fill="#000000" font-family="sans-serif" font-size="14" lengthAdjust="spacing" textLength="202.5625" x="532.67" y="938.2317">standard_of_evalution : string</text><text fill="#000000" font-family="sans-serif" font-size="14" lengthAdjust="spacing" textLength="108.7871" x="532.67" y="954.72">threshold : float</text></g></a><!--class Report--><a href="" target="_top" title="A report contains a narrative and evaluations" xlink:actuate="onRequest" xlink:href="" xlink:show="new" xlink:title="A report contains a narrative and evaluations" xlink:type="simple"><g class="entity" data-entity="Report" data-source-line="72" data-uid="ent0025" id="entity_Report"><rect fill="#F1F1F1" height="50.9766" rx="2.5" ry="2.5" style="stroke:#181818;stroke-width:0.5;" width="91.2969" x="754.31" y="539.32"/><text fill="#000000" font-family="sans-serif" font-size="14" lengthAdjust="spacing" textLength="45.0283" x="777.4443" y="557.8552">Report</text><line style="stroke:#181818;stroke-width:0.5;" x1="755.31" x2="844.6069" y1="565.8083" y2="565.8083"/><text fill="#000000" font-family="sans-serif" font-size="14" lengthAdjust="spacing" textLength="79.2969" x="760.31" y="583.3434">id : ncname</text></g></a><!--class Evaluation--><a href="" target="_top" title="The evaluation of an outcome with respect to one of the Program's Criteria" xlink:actuate="onRequest" xlink:href="" xlink:show="new" xlink:title="The evaluation of an outcome with respect to one of the Program's Criteria" xlink:type="simple"><g class="entity" data-entity="Evaluation" data-source-line="78" data-uid="ent0029" id="entity_Evaluation"><rect fill="#F1F1F1" height="67.4648" rx="2.5" ry="2.5" style="stroke:#181818;stroke-width:0.5;" width="138.8613" x="642.53" y="708.52"/><text fill="#000000" font-family="sans-serif" font-size="14" lengthAdjust="spacing" textLength="69.6035" x="677.1589" y="727.0552">Evaluation</text><line style="stroke:#181818;stroke-width:0.5;" x1="643.53" x2="780.3913" y1="735.0083" y2="735.0083"/><text fill="#000000" font-family="sans-serif" font-size="14" lengthAdjust="spacing" textLength="79.5635" x="648.53" y="752.5434">value : float</text><text fill="#000000" font-family="sans-serif" font-size="14" lengthAdjust="spacing" textLength="126.8613" x="648.53" y="769.0317">achieved : boolean</text></g></a><!--class Person--><a href="" target="_top" title="A person involved in a process" xlink:actuate="onRequest" xlink:href="" xlink:show="new" xlink:title="A person involved in a process" xlink:type="simple"><g class="entity" data-entity="Person" data-source-line="88" data-uid="ent0036" id="entity_Person"><rect fill="#F1F1F1" height="83.9531" rx="2.5" ry="2.5" style="stroke:#181818;stroke-width:0.5;" width="102.1455" x="808.88" y="877.72"/><text fill="#000000" font-family="sans-serif" font-size="14" lengthAdjust="spacing" textLength="45.6914" x="837.1071" y="896.2552">Person</text><line style="stroke:#181818;stroke-width:0.5;" x1="809.88" x2="910.0255" y1="904.2083" y2="904.2083"/><text fill="#000000" font-family="sans-serif" font-size="14" lengthAdjust="spacing" textLength="79.2969" x="814.88" y="921.7434">id : ncname</text><text fill="#000000" font-family="sans-serif" font-size="14" lengthAdjust="spacing" textLength="90.1455" x="814.88" y="938.2317">name : string</text><text fill="#000000" font-family="sans-serif" font-size="14" lengthAdjust="spacing" textLength="89.5508" x="814.88" y="954.72">email : string</text></g></a><!--class Criterion--><a href="" target="_top" title="A description of a criterion by which outcomes will be evaluated. E.g. A KPI is a Criterion." xlink:actuate="onRequest" xlink:href="" xlink:show="new" xlink:title="A description of a criterion by which outcomes will be evaluated. E.g. A KPI is a Criterion." xlink:type="simple"><g class="entity" data-entity="Criterion" data-source-line="97" data-uid="ent0041" id="entity_Criterion"><rect fill="#F1F1F1" height="100.4414" rx="2.5" ry="2.5" style="stroke:#181818;stroke-width:0.5;" width="140.9326" x="563.49" y="1038.67"/><text fill="#000000" font-family="sans-serif" font-size="14" lengthAdjust="spacing" textLength="59.5615" x="604.1755" y="1057.2052">Criterion</text><line style="stroke:#181818;stroke-width:0.5;" x1="564.49" x2="703.4226" y1="1065.1583" y2="1065.1583"/><text fill="#000000" font-family="sans-serif" font-size="14" lengthAdjust="spacing" textLength="79.2969" x="569.49" y="1082.6934">id : ncname</text><text fill="#000000" font-family="sans-serif" font-size="14" lengthAdjust="spacing" textLength="90.1455" x="569.49" y="1099.1817">name : string</text><text fill="#000000" font-family="sans-serif" font-size="14" lengthAdjust="spacing" textLength="128.9326" x="569.49" y="1115.67">description : string</text><text fill="#000000" font-family="sans-serif" font-size="14" lengthAdjust="spacing" textLength="79.5156" x="569.49" y="1132.1583">unit : string</text></g></a><!--link Template to Narrative--><g class="link" data-entity-1="Template" data-entity-2="Narrative" data-source-line="26" data-uid="lnk6" id="link_Template_Narrative"><path codeLine="26" d="M362.81,605.02 C364.54,605.62 366.25,606.21 367.96,606.79 C415.96,623.01 435.91,608.5 477.96,636.79 C485.85,642.09 482.65,649.15 490.96,653.79 C606,718.08 663.61,634.8 785.96,683.79 C790.49,685.6 789.7206,684.8743 794.1106,687.3043" fill="none" id="Template-to-Narrative" style="stroke:#181818;stroke-width:1;"/><polygon fill="#181818" points="799.36,690.21,793.423,682.3518,794.9855,687.7886,789.5487,689.351,799.36,690.21" style="stroke:#181818;stroke-width:1;"/><text fill="#000000" font-family="sans-serif" font-size="13" lengthAdjust="spacing" textLength="55.6563" x="491.96" y="650.3584">narrative</text><text fill="#000000" font-family="sans-serif" font-size="13" lengthAdjust="spacing" textLength="8.2202" x="783.0982" y="680.1691">1</text></g><!--reverse link Template to SituationSchema--><g class="link" data-entity-1="Template" data-entity-2="SituationSchema" data-source-line="27" data-uid="lnk7" id="link_Template_SituationSchema"><path codeLine="27" d="M217.8671,620.3179 C192.6071,648.3779 171.32,672.01 146.04,700.07" fill="none" id="Template-backto-SituationSchema" style="stroke:#181818;stroke-width:1;"/><polygon fill="none" points="229.91,606.94,213.4078,616.3036,222.3263,624.3322,229.91,606.94" style="stroke:#181818;stroke-width:1;"/></g><!--reverse link Template to ReportTemplate--><g class="link" data-entity-1="Template" data-entity-2="ReportTemplate" data-source-line="28" data-uid="lnk8" id="link_Template_ReportTemplate"><path codeLine="28" d="M323.3328,619.0875 C340.6428,634.6575 347.86,639.91 367.96,653.79 C391.19,669.83 399.07,670.44 423.96,683.79 C433.62,688.97 443.77,694.42 453.81,699.81" fill="none" id="Template-backto-ReportTemplate" style="stroke:#181818;stroke-width:1;"/><polygon fill="none" points="309.95,607.05,319.3202,623.5484,327.3453,614.6266,309.95,607.05" style="stroke:#181818;stroke-width:1;"/></g><!--link Rule to SituationSchema--><g class="link" data-entity-1="Rule" data-entity-2="SituationSchema" data-source-line="35" data-uid="lnk10" id="link_Rule_SituationSchema"><path codeLine="35" d="M397.36,407.97 C290.76,426.72 96.77,467.65 55.96,522.83 C17.09,575.38 48.6672,647.5407 77.2872,694.7007" fill="none" id="Rule-to-SituationSchema" style="stroke:#181818;stroke-width:1;"/><polygon fill="#181818" points="80.4,699.83,79.1503,690.0608,77.806,695.5555,72.3112,694.2112,80.4,699.83" style="stroke:#181818;stroke-width:1;"/><text fill="#000000" font-family="sans-serif" font-size="13" lengthAdjust="spacing" textLength="109.5796" x="56.96" y="569.8784">situation_schema</text><text fill="#000000" font-family="sans-serif" font-size="13" lengthAdjust="spacing" textLength="24.667" x="49.9895" y="689.4677">0..1</text></g><!--link Rulebook to Rule--><g class="link" data-entity-1="Rulebook" data-entity-2="Rule" data-source-line="44" data-uid="lnk13" id="link_Rulebook_Rule"><path codeLine="44" d="M545.48,238.15 C518.08,250.73 487.31,270.2 470.96,298.39 C462.91,312.27 460.4321,323.2701 460.5321,339.1001" fill="none" id="Rulebook-to-Rule" style="stroke:#181818;stroke-width:1;"/><polygon fill="#181818" points="460.57,345.1,464.5131,336.0749,460.5384,340.1001,456.5132,336.1254,460.57,345.1" style="stroke:#181818;stroke-width:1;"/><text fill="#000000" font-family="sans-serif" font-size="13" lengthAdjust="spacing" textLength="31.0146" x="471.96" y="311.9584">rules</text><text fill="#000000" font-family="sans-serif" font-size="13" lengthAdjust="spacing" textLength="22.7119" x="436.0345" y="334.5324">0..*</text></g><!--link Organization to Rulebook--><g class="link" data-entity-1="Organization" data-entity-2="Rulebook" data-source-line="45" data-uid="lnk14" id="link_Organization_Rulebook"><path codeLine="45" d="M645.0814,82.7155 C624.3314,93.0155 615.74,101.76 602.96,120.95 C588.97,141.96 589.4292,165.7458 592.9892,186.5758" fill="none" id="Organization-Rulebook" style="stroke:#181818;stroke-width:1;"/><polygon fill="#181818" points="655.83,77.38,648.6772,76.4649,645.0814,82.7155,652.2342,83.6306,655.83,77.38" style="stroke:#181818;stroke-width:1;"/><polygon fill="#181818" points="594,192.49,596.4266,182.9448,593.1577,187.5615,588.541,184.2925,594,192.49" style="stroke:#181818;stroke-width:1;"/><text fill="#000000" font-family="sans-serif" font-size="13" lengthAdjust="spacing" textLength="106.7803" x="603.96" y="134.5184">considered_rules</text><text fill="#000000" font-family="sans-serif" font-size="13" lengthAdjust="spacing" textLength="8.2202" x="583.601" y="182.009">1</text></g><!--link Organization to Rulebook--><g class="link" data-entity-1="Organization" data-entity-2="Rulebook" data-source-line="46" data-uid="lnk15" id="link_Organization_Rulebook"><path codeLine="46" d="M731.8685,101.9944 C721.7185,120.8344 715.98,130.09 708.96,137.95 C689.93,159.23 669.3224,174.9427 647.6824,188.9927" fill="none" id="Organization-Rulebook-1" style="stroke:#181818;stroke-width:1;"/><polygon fill="#181818" points="737.56,91.43,731.1928,94.815,731.8685,101.9944,738.2357,98.6094,737.56,91.43" style="stroke:#181818;stroke-width:1;"/><polygon fill="#181818" points="642.65,192.26,652.3768,190.7139,646.8436,189.5372,648.0203,184.0041,642.65,192.26" style="stroke:#181818;stroke-width:1;"/><text fill="#000000" font-family="sans-serif" font-size="13" lengthAdjust="spacing" textLength="56.1387" x="720.91" y="134.5184">rulebook</text><text fill="#000000" font-family="sans-serif" font-size="13" lengthAdjust="spacing" textLength="8.2202" x="643.6243" y="182.1386">1</text></g><!--link Rule to Rule--><g class="link" data-entity-1="Rule" data-entity-2="Rule" data-source-line="57" data-uid="lnk18" id="link_Rule_Rule"><path codeLine="57" d="M538.84,382.75 C544.75,385.52 548.42,389.81 548.42,395.61 C548.42,401.42 550.1829,403.1536 544.2729,405.9236" fill="none" id="Rule-to-Rule" style="stroke:#181818;stroke-width:1;"/><polygon fill="#181818" points="538.84,408.47,548.6869,408.2724,543.3674,406.348,545.2917,401.0285,538.84,408.47" style="stroke:#181818;stroke-width:1;"/><text fill="#000000" font-family="sans-serif" font-size="13" lengthAdjust="spacing" textLength="94.3896" x="554.42" y="400.6784">superseded_by</text><text fill="#000000" font-family="sans-serif" font-size="13" lengthAdjust="spacing" textLength="24.667" x="546.5116" y="422.9295">0..1</text></g><!--link Rule to ProgramTemplate--><g class="link" data-entity-1="Rule" data-entity-2="ProgramTemplate" data-source-line="58" data-uid="lnk19" id="link_Rule_ProgramTemplate"><path codeLine="58" d="M458.44,446.32 C453.23,473.57 448.0382,500.697 443.4282,524.777" fill="none" id="Rule-to-ProgramTemplate" style="stroke:#181818;stroke-width:1;"/><polygon fill="#181818" points="442.3,530.67,447.9209,522.5827,443.2402,525.7592,440.0636,521.0784,442.3,530.67" style="stroke:#181818;stroke-width:1;"/><text fill="#000000" font-family="sans-serif" font-size="13" lengthAdjust="spacing" textLength="48.6421" x="452.96" y="489.3984">process</text><text fill="#000000" font-family="sans-serif" font-size="13" lengthAdjust="spacing" textLength="24.667" x="417.2851" y="520.3299">0..1</text></g><!--link Case to Rule--><g class="link" data-entity-1="Case" data-entity-2="Rule" data-source-line="59" data-uid="lnk20" id="link_Case_Rule"><path codeLine="59" d="M706.61,253.21 C690.85,258.66 674.51,263.95 658.96,268.39 C597.76,285.85 569.72,260.02 518.96,298.39 C503.5,310.08 494.7681,322.3886 486.8281,339.4786" fill="none" id="Case-to-Rule" style="stroke:#181818;stroke-width:1;"/><polygon fill="#181818" points="484.3,344.92,491.7197,338.4433,486.4067,340.3855,484.4645,335.0725,484.3,344.92" style="stroke:#181818;stroke-width:1;"/><text fill="#000000" font-family="sans-serif" font-size="13" lengthAdjust="spacing" textLength="137.8584" x="519.96" y="311.9584">considered_templates</text><text fill="#000000" font-family="sans-serif" font-size="13" lengthAdjust="spacing" textLength="22.7119" x="463.0659" y="334.6898">0..*</text></g><!--link Case to Rule--><g class="link" data-entity-1="Case" data-entity-2="Rule" data-source-line="60" data-uid="lnk21" id="link_Case_Rule"><path codeLine="60" d="M713.53,268.79 C699.62,278.13 685.61,288.18 672.96,298.39 C664.64,305.1 664.82,309.43 655.96,315.39 C619.95,339.61 580.9954,356.7304 544.2754,370.1504" fill="none" id="Case-to-Rule-1" style="stroke:#181818;stroke-width:1;"/><polygon fill="#181818" points="538.64,372.21,548.4662,372.8776,543.3362,370.4937,545.7201,365.3637,538.64,372.21" style="stroke:#181818;stroke-width:1;"/><text fill="#000000" font-family="sans-serif" font-size="13" lengthAdjust="spacing" textLength="113.7817" x="673.96" y="311.9584">selected_template</text><text fill="#000000" font-family="sans-serif" font-size="13" lengthAdjust="spacing" textLength="24.667" x="546.2931" y="366.944">0..1</text></g><!--link ProgramTemplate to Role--><g class="link" data-entity-1="ProgramTemplate" data-entity-2="Role" data-source-line="66" data-uid="lnk23" id="link_ProgramTemplate_Role"><path codeLine="66" d="M403.3,599.04 C393.67,610.29 383.88,623.41 376.96,636.79 C366.81,656.38 361.3549,674.127 357.0449,693.947" fill="none" id="ProgramTemplate-to-Role" style="stroke:#181818;stroke-width:1;"/><polygon fill="#181818" points="355.77,699.81,361.5911,691.8655,356.8325,694.9242,353.7738,690.1656,355.77,699.81" style="stroke:#181818;stroke-width:1;"/><text fill="#000000" font-family="sans-serif" font-size="13" lengthAdjust="spacing" textLength="30.9321" x="377.96" y="650.3584">roles</text><text fill="#000000" font-family="sans-serif" font-size="13" lengthAdjust="spacing" textLength="22.7119" x="333.1595" y="689.4445">0..*</text></g><!--link ReportTemplate to Objective--><g class="link" data-entity-1="ReportTemplate" data-entity-2="Objective" data-source-line="75" data-uid="lnk26" id="link_ReportTemplate_Objective"><path codeLine="75" d="M555.1,784.38 C571.58,812.44 590.2614,844.2763 606.7414,872.3363" fill="none" id="ReportTemplate-to-Objective" style="stroke:#181818;stroke-width:1;"/><polygon fill="#181818" points="609.78,877.51,608.6713,867.7237,607.2479,873.1986,601.773,871.7752,609.78,877.51" style="stroke:#181818;stroke-width:1;"/><text fill="#000000" font-family="sans-serif" font-size="13" lengthAdjust="spacing" textLength="63.2417" x="592.68" y="844.2884">objectives</text><text fill="#000000" font-family="sans-serif" font-size="13" lengthAdjust="spacing" textLength="22.7119" x="582.0137" y="866.8747">0..*</text></g><!--link ProgramTemplate to ReportTemplate--><g class="link" data-entity-1="ProgramTemplate" data-entity-2="ReportTemplate" data-source-line="76" data-uid="lnk27" id="link_ProgramTemplate_ReportTemplate"><path codeLine="76" d="M422.91,598.92 C418.25,616.02 415.9,636.79 423.96,653.79 C432.44,671.67 441.9512,683.2683 457.2112,695.9883" fill="none" id="ProgramTemplate-to-ReportTemplate" style="stroke:#181818;stroke-width:1;"/><polygon fill="#181818" points="461.82,699.83,457.4679,690.9949,457.9793,696.6286,452.3456,697.14,461.82,699.83" style="stroke:#181818;stroke-width:1;"/><text fill="#000000" font-family="sans-serif" font-size="13" lengthAdjust="spacing" textLength="54.939" x="424.96" y="650.3584">outcome</text><text fill="#000000" font-family="sans-serif" font-size="13" lengthAdjust="spacing" textLength="24.667" x="424.9421" y="689.4677">0..1</text></g><!--link Report to ReportTemplate--><g class="link" data-entity-1="Report" data-entity-2="ReportTemplate" data-source-line="77" data-uid="lnk28" id="link_Report_ReportTemplate"><path codeLine="77" d="M772.67,590.76 C765.34,596.59 757.16,602.38 748.96,606.79 C710.32,627.54 693.35,615.59 654.96,636.79 C624.4,653.66 598.7359,674.5957 575.8759,695.9357" fill="none" id="Report-to-ReportTemplate" style="stroke:#181818;stroke-width:1;"/><polygon fill="#181818" points="571.49,700.03,580.7985,696.8125,575.145,696.6181,575.3394,690.9646,571.49,700.03" style="stroke:#181818;stroke-width:1;"/><text fill="#000000" font-family="sans-serif" font-size="13" lengthAdjust="spacing" textLength="59.9663" x="655.96" y="650.3584">based_on</text><text fill="#000000" font-family="sans-serif" font-size="13" lengthAdjust="spacing" textLength="24.667" x="552.2712" y="689.3898">0..1</text></g><!--link Report to Evaluation--><g class="link" data-entity-1="Report" data-entity-2="Evaluation" data-source-line="82" data-uid="lnk30" id="link_Report_Evaluation"><path codeLine="82" d="M760.0035,598.5062 C741.4335,614.2362 729.48,625.82 723.96,636.79 C712.86,658.79 710.158,680.6401 710.058,702.0501" fill="none" id="Report-Evaluation" style="stroke:#181818;stroke-width:1;"/><polygon fill="#181818" points="769.16,590.75,761.9964,591.5759,760.0035,598.5062,767.1671,597.6803,769.16,590.75" style="stroke:#181818;stroke-width:1;"/><polygon fill="#181818" points="710.03,708.05,714.072,699.0688,710.0534,703.0501,706.0721,699.0314,710.03,708.05" style="stroke:#181818;stroke-width:1;"/><text fill="#000000" font-family="sans-serif" font-size="13" lengthAdjust="spacing" textLength="71.4556" x="724.96" y="650.3584">evaluations</text><text fill="#000000" font-family="sans-serif" font-size="13" lengthAdjust="spacing" textLength="22.7119" x="685.6329" y="697.6984">0..*</text></g><!--link Report to Narrative--><g class="link" data-entity-1="Report" data-entity-2="Narrative" data-source-line="83" data-uid="lnk31" id="link_Report_Narrative"><path codeLine="83" d="M797.3,590.68 C796.22,608.64 796.47,633.24 802.96,653.79 C806.18,663.98 807.9832,668.9092 813.4032,678.4792" fill="none" id="Report-to-Narrative" style="stroke:#181818;stroke-width:1;"/><polygon fill="#181818" points="816.36,683.7,815.4053,673.8975,813.896,679.3493,808.4442,677.84,816.36,683.7" style="stroke:#181818;stroke-width:1;"/><text fill="#000000" font-family="sans-serif" font-size="13" lengthAdjust="spacing" textLength="55.6563" x="803.96" y="650.3584">narrative</text><text fill="#000000" font-family="sans-serif" font-size="13" lengthAdjust="spacing" textLength="8.2202" x="802.5731" y="673.2368">1</text></g><!--link Case to Report--><g class="link" data-entity-1="Case" data-entity-2="Report" data-source-line="84" data-uid="lnk32" id="link_Case_Report"><path codeLine="84" d="M796.53,268.55 C797.4,343.37 798.9398,476.7204 799.5998,533.1404" fill="none" id="Case-to-Report" style="stroke:#181818;stroke-width:1;"/><polygon fill="#181818" points="799.67,539.14,803.5645,530.0938,799.6115,534.1403,795.565,530.1874,799.67,539.14" style="stroke:#181818;stroke-width:1;"/><text fill="#000000" font-family="sans-serif" font-size="13" lengthAdjust="spacing" textLength="54.939" x="799.55" y="400.6784">outcome</text><text fill="#000000" font-family="sans-serif" font-size="13" lengthAdjust="spacing" textLength="22.7119" x="775.0052" y="528.6614">0..*</text></g><!--link ProgramTemplate to ProgramTemplate--><g class="link" data-entity-1="ProgramTemplate" data-entity-2="ProgramTemplate" data-source-line="85" data-uid="lnk33" id="link_ProgramTemplate_ProgramTemplate"><path codeLine="85" d="M499.32,558.71 C505.43,559.95 509.29,561.98 509.29,564.81 C509.29,567.64 511.3101,568.4767 505.2001,569.7167" fill="none" id="ProgramTemplate-to-ProgramTemplate" style="stroke:#181818;stroke-width:1;"/><polygon fill="#181818" points="499.32,570.91,508.9358,573.0401,504.2201,569.9155,507.3446,565.1999,499.32,570.91" style="stroke:#181818;stroke-width:1;"/><text fill="#000000" font-family="sans-serif" font-size="13" lengthAdjust="spacing" textLength="100.0518" x="515.29" y="569.8784">follows_process</text><text fill="#000000" font-family="sans-serif" font-size="13" lengthAdjust="spacing" textLength="24.667" x="507.1262" y="584.8966">0..1</text></g><!--link ProgramTemplate to ProgramTemplate--><g class="link" data-entity-1="ProgramTemplate" data-entity-2="ProgramTemplate" data-source-line="86" data-uid="lnk34" id="link_ProgramTemplate_ProgramTemplate"><path codeLine="86" d="M499.42,551.16 C553.84,547.09 621.29,551.65 621.29,564.81 C621.29,577.97 559.8234,582.9664 505.4034,578.9064" fill="none" id="ProgramTemplate-to-ProgramTemplate-1" style="stroke:#181818;stroke-width:1;"/><polygon fill="#181818" points="499.42,578.46,508.0975,583.1185,504.4061,578.832,508.6927,575.1407,499.42,578.46" style="stroke:#181818;stroke-width:1;"/><text fill="#000000" font-family="sans-serif" font-size="13" lengthAdjust="spacing" textLength="85.3887" x="627.29" y="569.8784">subprocesses</text><text fill="#000000" font-family="sans-serif" font-size="13" lengthAdjust="spacing" textLength="22.7119" x="507.1357" y="593.2252">0..*</text></g><!--link ProgramTemplate to Narrative--><g class="link" data-entity-1="ProgramTemplate" data-entity-2="Narrative" data-source-line="87" data-uid="lnk35" id="link_ProgramTemplate_Narrative"><path codeLine="87" d="M492.99,599.04 C511.54,610.45 531.97,623.66 549.96,636.79 C559.38,643.67 559.31,649.02 569.96,653.79 C658.4,693.42 696.65,646.12 785.96,683.79 C790.45,685.68 789.6917,684.9586 794.0617,687.4386" fill="none" id="ProgramTemplate-to-Narrative" style="stroke:#181818;stroke-width:1;"/><polygon fill="#181818" points="799.28,690.4,793.4269,682.4791,794.9315,687.9322,789.4784,689.4368,799.28,690.4" style="stroke:#181818;stroke-width:1;"/><text fill="#000000" font-family="sans-serif" font-size="13" lengthAdjust="spacing" textLength="55.6563" x="570.96" y="650.3584">narrative</text><text fill="#000000" font-family="sans-serif" font-size="13" lengthAdjust="spacing" textLength="8.2202" x="783.4114" y="697.5815">1</text></g><!--link Narrative to Person--><g class="link" data-entity-1="Narrative" data-entity-2="Person" data-source-line="93" data-uid="lnk37" id="link_Narrative_Person"><path codeLine="93" d="M859.96,801.18 C859.96,826.14 859.96,848.74 859.96,871.47" fill="none" id="Narrative-to-Person" style="stroke:#181818;stroke-width:1;"/><polygon fill="#181818" points="859.96,877.47,863.96,868.47,859.96,872.47,855.96,868.47,859.96,877.47" style="stroke:#181818;stroke-width:1;"/><text fill="#000000" font-family="sans-serif" font-size="13" lengthAdjust="spacing" textLength="48.1089" x="860.96" y="844.2884">authors</text><text fill="#000000" font-family="sans-serif" font-size="13" lengthAdjust="spacing" textLength="22.7119" x="836.1983" y="866.8281">0..*</text></g><!--link Organization to Case--><g class="link" data-entity-1="Organization" data-entity-2="Case" data-source-line="94" data-uid="lnk38" id="link_Organization_Case"><path codeLine="94" d="M773.65,91.3 C776.71,100.94 779.69,111.24 781.96,120.95 C785.48,136.07 787.4413,146.8189 789.5813,161.9789" fill="none" id="Organization-to-Case" style="stroke:#181818;stroke-width:1;"/><polygon fill="#181818" points="790.42,167.92,793.1228,158.4492,789.7211,162.9691,785.2013,159.5675,790.42,167.92" style="stroke:#181818;stroke-width:1;"/><text fill="#000000" font-family="sans-serif" font-size="13" lengthAdjust="spacing" textLength="59.4585" x="786.25" y="134.5184">casebook</text><text fill="#000000" font-family="sans-serif" font-size="13" lengthAdjust="spacing" textLength="22.7119" x="766.0429" y="157.029">0..*</text></g><!--link Organization to Organization--><g class="link" data-entity-1="Organization" data-entity-2="Organization" data-source-line="95" data-uid="lnk39" id="link_Organization_Organization"><path codeLine="95" d="M862.12,38.66 C868.13,41.13 871.73,44.57 871.73,48.97 C871.73,53.37 873.6763,54.5213 867.6663,57.0013" fill="none" id="Organization-to-Organization" style="stroke:#181818;stroke-width:1;"/><polygon fill="#181818" points="862.12,59.29,871.9653,59.5546,866.742,57.3828,868.9137,52.1594,862.12,59.29" style="stroke:#181818;stroke-width:1;"/><text fill="#000000" font-family="sans-serif" font-size="13" lengthAdjust="spacing" textLength="54.2598" x="877.73" y="54.0384">subunits</text><text fill="#000000" font-family="sans-serif" font-size="13" lengthAdjust="spacing" textLength="22.7119" x="869.8143" y="73.0656">0..*</text></g><!--link Organization to Narrative--><g class="link" data-entity-1="Organization" data-entity-2="Narrative" data-source-line="96" data-uid="lnk40" id="link_Organization_Narrative"><path codeLine="96" d="M862.18,81.07 C923.33,106.57 988.96,149.66 988.96,217.17 C988.96,217.17 988.96,217.17 988.96,565.81 C988.96,616.09 958.4755,657.3323 925.0155,689.3423" fill="none" id="Organization-to-Narrative" style="stroke:#181818;stroke-width:1;"/><polygon fill="#181818" points="920.68,693.49,929.9484,690.1589,924.293,690.0336,924.4182,684.3781,920.68,693.49" style="stroke:#181818;stroke-width:1;"/><text fill="#000000" font-family="sans-serif" font-size="13" lengthAdjust="spacing" textLength="91.3872" x="989.96" y="400.6784">base_narrative</text><text fill="#000000" font-family="sans-serif" font-size="13" lengthAdjust="spacing" textLength="24.667" x="928.671" y="684.9214">0..1</text></g><!--link Objective to Criterion--><g class="link" data-entity-1="Objective" data-entity-2="Criterion" data-source-line="103" data-uid="lnk42" id="link_Objective_Criterion"><path codeLine="103" d="M633.96,962.02 C633.96,985.13 633.96,1008.09 633.96,1032.41" fill="none" id="Objective-to-Criterion" style="stroke:#181818;stroke-width:1;"/><polygon fill="#181818" points="633.96,1038.41,637.96,1029.41,633.96,1033.41,629.96,1029.41,633.96,1038.41" style="stroke:#181818;stroke-width:1;"/><text fill="#000000" font-family="sans-serif" font-size="13" lengthAdjust="spacing" textLength="63.229" x="634.96" y="1005.2384">addresses</text><text fill="#000000" font-family="sans-serif" font-size="13" lengthAdjust="spacing" textLength="8.2202" x="625.4135" y="1027.8467">1</text></g><!--link Evaluation to Objective--><g class="link" data-entity-1="Evaluation" data-entity-2="Objective" data-source-line="104" data-uid="lnk43" id="link_Evaluation_Objective"><path codeLine="104" d="M697.28,776.25 C684.53,804.94 668.4383,841.1378 654.7083,872.0078" fill="none" id="Evaluation-to-Objective" style="stroke:#181818;stroke-width:1;"/><polygon fill="#181818" points="652.27,877.49,659.5823,870.8922,654.3019,872.9215,652.2727,867.6411,652.27,877.49" style="stroke:#181818;stroke-width:1;"/><text fill="#000000" font-family="sans-serif" font-size="13" lengthAdjust="spacing" textLength="56.6147" x="673.96" y="844.2884">objective</text><text fill="#000000" font-family="sans-serif" font-size="13" lengthAdjust="spacing" textLength="8.2202" x="646.6598" y="866.8514">1</text></g><!--link Case to Narrative--><g class="link" data-entity-1="Case" data-entity-2="Narrative" data-source-line="105" data-uid="lnk44" id="link_Case_Narrative"><path codeLine="105" d="M826.27,268.85 C838.32,291.37 850.77,318.84 856.96,345.39 C871.5,407.81 866.683,583.3849 862.873,677.3649" fill="none" id="Case-to-Narrative" style="stroke:#181818;stroke-width:1;"/><polygon fill="#181818" points="862.63,683.36,866.9913,674.5294,862.8325,678.3641,858.9978,674.2054,862.63,683.36" style="stroke:#181818;stroke-width:1;"/><text fill="#000000" font-family="sans-serif" font-size="13" lengthAdjust="spacing" textLength="29.2817" x="867.62" y="489.3984">brief</text><text fill="#000000" font-family="sans-serif" font-size="13" lengthAdjust="spacing" textLength="22.7119" x="839.6591" y="672.8554">1..*</text></g><!--link Case to Narrative--><g class="link" data-entity-1="Case" data-entity-2="Narrative" data-source-line="106" data-uid="lnk45" id="link_Case_Narrative"><path codeLine="106" d="M833.92,268.6 C840.41,278.19 846.73,288.39 851.96,298.39 C889.77,370.81 890.45,394.69 899.96,475.83 C908.36,547.57 893.4727,623.9417 879.1927,677.6117" fill="none" id="Case-to-Narrative-1" style="stroke:#181818;stroke-width:1;"/><polygon fill="#181818" points="877.65,683.41,883.8296,675.7411,878.9356,678.5781,876.0986,673.6841,877.65,683.41" style="stroke:#181818;stroke-width:1;"/><text fill="#000000" font-family="sans-serif" font-size="13" lengthAdjust="spacing" textLength="62.2832" x="902.46" y="489.3984">narratives</text><text fill="#000000" font-family="sans-serif" font-size="13" lengthAdjust="spacing" textLength="22.7119" x="881.1909" y="672.9115">0..*</text></g><!--SRC=[lLTDRzms4BtlhnZeqYI85_4rXm91a4DRm0dgt89qGKcpAzOKAP3KkXl3_xqpb4XzhTOmwiQdbJYaPjvxypXsTr8tmeeQj2dHOGFNxpQLB14AQGk5tM-i6t-26kiShTk8t7ah2W_PLrfGmcC6txuzV01NL5WBy9NmK0WDEO9e6YMn16z0WFF6dXw_VuU73T3VmrwYAXz1bl0UTA55ZG2JbSOQ-ZAjqWUbFinMky_jIjnJnE-tdszkk-_3vd5JAE4SP3V2Mk7bCMQeupDGiOMLZPT6Wza3Ib-XfHmBemkB7i7GKryevVzHkF3gYpK7GYiMleMlj0rZjRNGf-4RRlkSMfqNldMqUjlzcAxULwXfhQHlUhdOwwLNk0OJLUHHJr1C-DnAtmh6e8Cke7HZD9vB_9LyVPcdBk09ghgWyspzYOsnVYOgtpzsikfeoz4nLVJsG8fY_aph2qDvtPDO_scGn4d1H2cWBdbTC7C5EXTFVmk2Lj1Hh1HAdK8m7UtHIi77I4Oj2BT6uLeYUNeY_sowCxS_6QvHtrrT_GhPTJPH-dl8aWQpSV1VLrTBoXS1CnOIEQtgA275hvEY2HvFb4ZggjPIJpXFvL8FoOB8CVOkD-RkBMlIIUUvSYP7mwkXrrw3Yoao3tmQaU2CElQaZP2V4jLIZyPGaFvPxHTUhT0nzegLaALJ4KqTP86YTzijixJeD-8gLRjpFICZn1ckwAxe6InBRzsoigLzfBRwR0z2on_X6zrPHCxe7PiBoRiXRoTQ0ailXLmjdGkLUJOkh1S-D2eoulGcYs8ZS4ArfD5f3M-Ix8Vj51nKLL8jvUvP-snyY8ZDN3x9dlJP2ZKMtxrKQgex0GVgEyr1kSBwFuamKSZNJyfYzHAZFfAwb4TPSfRC8xHQUiwp4XGU4Ypv6Xjw9hnxiKuXz8MIFv0t4w8AAQLfH6_KEw65Ef47zEwsrZ192AvbVM99tEQdx5peWZJQrJD5yHs2PpKsaatqjUMEQJAeaAqgnGyzQrIykA9Af3uonWuAj5wGCPAAZ7L06q-CO7njQIj7JsuMcYy8ey5WUIq4_j_cHcmi09sWPsA7cj1fqMlolmcPE72jZH8NPY1T2blkp7w7Hw7QIvRhAukkCefFsoj3zz1YbEYPiE4X3484D8yEGmk5AO0_5Ip2FPKjYtGsfOnH6PLFq9Zun79QHJCeQtOcR-uQ9TkaMfxOa9DU2JcTkFYKoahMCLJQ-qMQcsZ-9PnS69t85eYuEEJqYV_Yu6C_7Yr1ucDnnCDuJHILnEFC4Xw7ijwC0HpdJ3MDc9a3SNdeETFk_UO9j1T9EMSeUwEKkNUxmLWkTicv8roRzxilwE9YTV6M2XTsT9lm4CscP1yHqKLUoYfeE95gPXAZ92U5zxbHugBr5VdTuZ8UXtTqiHVJZ-uglX0zNUaWvOjk_HjBEBbRTajCUuadMEStRFmNWHxp4mrEigXY3xbk6CXJbs6vXK_RmnO-m1zVVWF9nfFE_vd3QHW2fhIDZ2hfRLGxqrQMDcfqt9KfVCNhfirttJ4smzvAt9zjqXN9k-nV]--></g></svg>